<svg width="300" height="164" viewBox="0 0 300 164" fill="none" xmlns="http://www.w3.org/2000/svg">
<path fill-rule="evenodd" clip-rule="evenodd" d="M125.859 97.1991C96.3849 90.4777 75.0938 71.811 75.0938 49.9362C75.0938 47.1977 75.4339 44.5153 76.0716 41.9005C90.4326 38.0006 128.122 32.2029 135.017 36.7715C139.545 39.4365 130.725 75.3147 125.859 97.1991Z" fill="#3E79BB"/>
<path fill-rule="evenodd" clip-rule="evenodd" d="M223.921 41.8926C224.568 44.5132 224.903 47.1975 224.903 49.936C224.903 71.8552 203.523 90.5548 173.958 97.2434C169.086 75.3512 160.278 39.4363 164.8 36.7713C171.689 32.2085 209.537 37.9927 223.921 41.8926Z" fill="#3E79BB"/>
<path fill-rule="evenodd" clip-rule="evenodd" d="M149.998 0C182.314 0 209.952 13.7619 220.423 32.9409C208.381 31.0702 152.595 17.6716 153.217 28.7279V99.8181C152.154 99.8548 151.078 99.8702 149.998 99.8702C148.857 99.8702 147.727 99.8509 146.594 99.8142V28.7279C147.215 17.6832 91.7012 31.0335 79.5781 32.9313C90.045 13.7581 117.689 0 149.998 0Z" fill="#3E79BB"/>
<mask id="mask0_824_276" style="mask-type:luminance" maskUnits="userSpaceOnUse" x="163" y="125" width="25" height="39">
<path d="M163.758 125.663H188V163.561H163.758V125.663Z" fill="white"/>
</mask>
<g mask="url(#mask0_824_276)">
<path d="M169.087 128.046C171.414 126.554 174.201 125.959 176.935 125.879C180.093 125.841 183.332 126.274 186.194 127.68C185.663 129.487 185.126 131.289 184.588 133.094C182.285 131.913 179.689 131.335 177.105 131.347C175.569 131.387 173.953 131.714 172.73 132.699C171.6 133.6 170.995 135.142 171.314 136.566C171.505 137.788 172.388 138.764 173.387 139.425C175.716 140.98 178.489 141.624 180.959 142.899C182.839 143.839 184.637 145.068 185.897 146.778C187.46 148.885 187.91 151.658 187.53 154.215C187.207 156.561 186.013 158.779 184.206 160.316C182.499 161.798 180.344 162.689 178.143 163.135C175.581 163.653 172.927 163.688 170.345 163.29C168.107 162.956 165.889 162.347 163.883 161.276C164.308 159.396 164.866 157.544 165.352 155.678C168.046 157.197 171.138 157.987 174.226 158.024C176.054 157.993 178.031 157.653 179.425 156.371C180.544 155.38 181 153.799 180.791 152.344C180.656 151.08 179.869 149.98 178.874 149.236C176.812 147.657 174.23 147.08 171.909 146.013C169.481 144.896 167.104 143.357 165.696 141.023C164.482 139.059 164.227 136.63 164.64 134.39C165.133 131.766 166.838 129.451 169.087 128.046Z" fill="#3D79BB"/>
</g>
<path d="M0 126.281C11.8312 126.272 23.6605 126.281 35.4917 126.275C35.4878 129.878 35.4897 133.478 35.4917 137.08C32.0961 137.088 28.7006 137.08 25.307 137.084C25.307 145.721 25.3051 154.358 25.307 162.996C20.3809 162.99 15.4509 162.998 10.5229 162.99C10.5344 154.356 10.5229 145.723 10.5306 137.088C7.02296 137.077 3.51341 137.088 0.00386514 137.08C0.00193257 133.482 0.00966288 129.88 0 126.281Z" fill="#3D79BB"/>
<path d="M45.7326 126.267C50.8713 126.29 56.0119 126.273 61.1506 126.273C65.9047 138.518 70.6666 150.76 75.4284 163.001C70.6299 162.986 65.8294 162.994 61.0308 162.998C58.5088 155.764 56.0138 148.519 53.5092 141.277C53.3739 141.446 53.2928 141.645 53.2271 141.849C50.8288 148.897 48.4092 155.938 46.0147 162.988C41.2722 163.001 36.5316 162.99 31.7891 162.994C36.4137 150.743 41.0654 138.498 45.7326 126.267Z" fill="#3D79BB"/>
<path d="M72.022 126.267C83.8513 126.29 95.6805 126.269 107.51 126.277C107.512 129.879 107.512 133.481 107.512 137.082C104.116 137.084 100.721 137.08 97.3271 137.082C97.3252 145.72 97.329 154.357 97.3252 162.994C92.3971 162.999 87.4729 162.982 82.5448 163.003C82.5043 154.365 82.539 145.722 82.5275 137.084C79.0198 137.08 75.5122 137.084 72.0046 137.08C72.0162 133.478 71.9775 129.871 72.022 126.267Z" fill="#3D79BB"/>
<path d="M117.715 126.271C122.852 126.283 127.99 126.277 133.129 126.275C137.899 138.514 142.655 150.757 147.409 163.001C142.608 162.984 137.808 163 133.007 162.994C130.491 155.727 127.988 148.459 125.459 141.196C122.935 148.451 120.492 155.733 117.987 162.996C113.247 162.998 108.506 162.986 103.766 163.001C108.408 150.755 113.046 138.508 117.715 126.271Z" fill="#3D79BB"/>
<path d="M188.318 126.445C197.546 126.447 206.776 126.453 216.006 126.441C216.025 128.314 216.008 130.186 216.014 132.059C212.498 132.055 208.985 132.069 205.469 132.051C205.439 142.365 205.469 152.681 205.456 162.996C203.224 162.988 200.994 163.005 198.763 162.988C198.777 152.678 198.769 142.369 198.767 132.061C195.283 132.055 191.798 132.059 188.316 132.059C188.314 130.186 188.308 128.316 188.318 126.445Z" fill="#3D79BB"/>
<path d="M220.207 126.435C227.308 126.468 234.41 126.423 241.512 126.456C241.493 128.281 241.502 130.105 241.506 131.929C236.646 131.929 231.783 131.943 226.925 131.922C226.879 135.054 226.923 138.185 226.902 141.318C231.503 141.347 236.105 141.3 240.708 141.341C240.664 143.161 240.743 144.986 240.667 146.808C236.081 146.766 231.492 146.8 226.906 146.791C226.9 150.341 226.913 153.891 226.9 157.439C232.037 157.464 237.177 157.441 242.314 157.453C242.328 159.289 242.291 161.127 242.333 162.965C234.955 163.036 227.572 162.968 220.192 162.999C220.173 153.284 220.19 143.571 220.184 133.856C220.198 131.382 220.153 128.907 220.207 126.435Z" fill="#3D79BB"/>
<path d="M249.195 126.476C256.305 126.412 263.423 126.459 270.537 126.453C270.525 128.277 270.529 130.103 270.535 131.93C265.674 131.93 260.812 131.941 255.952 131.924C255.907 135.055 255.952 138.185 255.928 141.316C260.528 141.343 265.127 141.312 269.729 141.33C269.729 143.144 269.711 144.955 269.737 146.768C265.137 146.82 260.536 146.774 255.934 146.791C255.93 150.343 255.938 153.893 255.93 157.444C261.067 157.461 266.204 157.444 271.343 157.453C271.352 159.293 271.325 161.133 271.356 162.973C263.983 163.029 256.607 162.965 249.234 163.005C249.174 150.828 249.249 138.651 249.195 126.476Z" fill="#3D79BB"/>
<mask id="mask1_824_276" style="mask-type:luminance" maskUnits="userSpaceOnUse" x="278" y="126" width="22" height="38">
<path d="M278.047 126.157H299.999V163.263H278.047V126.157Z" fill="white"/>
</mask>
<g mask="url(#mask1_824_276)">
<path d="M278.253 126.438C280.491 126.461 282.727 126.436 284.965 126.451C284.953 136.759 284.961 147.07 284.963 157.38C289.974 157.384 294.983 157.38 299.996 157.38C299.996 159.253 299.998 161.123 299.994 162.996C292.747 163 285.504 162.982 278.257 163.006C278.224 150.817 278.232 138.628 278.253 126.438Z" fill="#3D79BB"/>
</g>
</svg>
