<svg width="72" height="58" viewBox="0 0 72 58" fill="none" xmlns="http://www.w3.org/2000/svg">
<path d="M22.848 1.07932C22.479 1.17932 1.369 17.6363 1.178 17.9793C1.041 18.2113 1.014 22.5583 1 37.2413V56.2043L1.656 56.9703H70.344L71 56.2043V37.2693C71 21.0823 70.973 18.2793 70.809 17.9693C70.563 17.5183 54.375 1.35832 53.952 1.13932C53.747 1.03032 49.276 0.989323 38.366 1.00232C29.957 1.01132 22.971 1.03832 22.848 1.07932ZM59.953 10.2393C63.781 14.0673 66.898 17.2253 66.898 17.2803C66.898 17.3353 60.855 17.3893 53.459 17.3893H40.033L25.951 3.31132H53.021L59.953 10.2393ZM36.533 17.3213C36.492 17.3623 29.506 17.3763 21.015 17.3623L5.594 17.3223L14.33 10.5273L23.08 3.71832L29.848 10.4863C33.566 14.2043 36.574 17.2803 36.533 17.3213ZM5.648 19.7113V26.6843H3.324V19.7113H5.648ZM33.675 19.7113V22.0353H7.973V19.7113H33.675ZM38.323 19.7113V26.6843H36V19.7113H38.323ZM68.675 19.7113V54.7113H40.648V19.7113H68.675ZM33.675 24.3593V26.6833H7.973V24.3593H33.675ZM38.324 29.0113V54.7113H36V49.2973C36.0666 47.4 36.0165 45.5005 35.85 43.6093C35.508 42.9803 35.194 42.9533 28.413 42.9533H22.055V37.7533C22.055 32.0533 22.028 31.7923 21.289 31.4783C18.7367 31.2917 16.1759 31.2506 13.619 31.3553L6.346 31.3963L5.717 32.0253L5.676 43.3663L5.648 54.7113H3.324V29.0113H38.324ZM10.324 35.6283C10.365 37.5013 10.379 37.6283 10.693 37.9523L11.021 38.3073H13.8C17.423 38.3073 17.177 38.4853 17.273 35.7503L17.341 33.7273H19.665L19.706 38.3343L19.733 42.9553H7.973V33.6553H10.283L10.324 35.6283ZM14.945 33.6593V35.9833H12.621V33.6593H14.945ZM10.3 47.0583C10.3 50.0663 10.355 50.1203 14.155 50.0383C16.479 49.9973 16.575 49.9833 16.917 49.6693C17.259 49.3553 17.272 49.2863 17.3 47.3453L17.341 45.3453H19.665V54.6453L13.827 54.6863L7.973 54.7113V50.0903C7.973 47.5473 8.014 45.4143 8.073 45.3733C8.45344 45.2839 8.84487 45.2502 9.235 45.2733H10.3V47.0583ZM14.948 45.2813V47.7563L13.824 47.7113L12.689 47.6703L12.648 46.6583C12.6146 46.2585 12.6236 45.8562 12.675 45.4583C12.73 45.3353 13.058 45.2803 13.851 45.2803L14.948 45.2813ZM24.354 47.3453C24.381 49.2863 24.395 49.3553 24.737 49.6693C25.079 49.9833 25.175 49.9973 27.499 50.0383C31.299 50.1203 31.354 50.0793 31.354 47.1263V45.2673L32.489 45.3083L33.61 45.3493L33.651 50.0253L33.676 54.7113H22.055V45.2643L23.19 45.3053L24.311 45.3463L24.354 47.3453ZM28.961 45.3453V47.6693L27.84 47.7103L26.705 47.7513V45.2633L27.84 45.3043L28.961 45.3453Z" fill="#484A53" stroke="#FEFEFE" stroke-width="0.6"/>
<path d="M46.1332 24.3634L45.3672 25.0194V42.2464L46.0232 42.9574H54.6642C63.1002 42.9574 63.3052 42.9574 63.5922 42.6844C63.7731 42.4822 63.9 42.2377 63.9612 41.9734C64.0022 41.7274 64.0292 37.8034 64.0022 33.2734L63.9612 25.0154L63.1952 24.3594L46.1332 24.3634ZM61.7022 26.6874V40.6324H47.6232V26.6874H61.7022Z" fill="#484A53" stroke="#FEFEFE" stroke-width="0.6"/>
<path d="M50.4228 29.3392C50.2209 29.5589 50.0796 29.8274 50.0128 30.1182C49.9718 30.3782 49.9448 32.1692 49.9718 34.1102L50.0128 37.6512L50.7788 38.3072H58.6538L59.3098 37.5962V29.6662L58.5438 29.0112H50.7508L50.4228 29.3392ZM57.0538 31.3392V35.9872H52.2688V33.7582C52.2415 32.9821 52.2749 32.2051 52.3688 31.4342C53.1628 31.3401 53.9627 31.3066 54.7618 31.3342L57.0538 31.3392Z" fill="#484A53" stroke="#FEFEFE" stroke-width="0.6"/>
<path fill-rule="evenodd" clip-rule="evenodd" d="M22.0554 31.3325H5.64844V42.9575H22.0554V31.3325ZM19.7304 33.7095H7.97344V42.9565H19.7304V33.7095Z" fill="#8D2813"/>
<path fill-rule="evenodd" clip-rule="evenodd" d="M17.2669 33.0116C17.2669 32.8583 17.206 32.7113 17.0976 32.6029C16.9892 32.4945 16.8422 32.4336 16.6889 32.4336H10.8719C10.7191 32.4344 10.5729 32.4956 10.4651 32.6039C10.3574 32.7123 10.2969 32.8588 10.2969 33.0116V37.7356C10.2969 37.8889 10.3578 38.0359 10.4662 38.1443C10.5746 38.2527 10.7216 38.3136 10.8749 38.3136H16.6919C16.8452 38.3136 16.9922 38.2527 17.1006 38.1443C17.209 38.0359 17.2699 37.8889 17.2699 37.7356L17.2669 33.0116ZM14.9429 33.6646H12.6179V35.9886H14.9419L14.9429 33.6646Z" fill="#8D2813"/>
<path fill-rule="evenodd" clip-rule="evenodd" d="M36.0008 42.9531H19.5938V54.5781H36.0008V42.9531ZM33.6757 45.3301H21.9188V54.5771H33.6757V45.3301Z" fill="#8D2813"/>
<path fill-rule="evenodd" clip-rule="evenodd" d="M31.3528 44.7689C31.3528 44.6156 31.2919 44.4686 31.1835 44.3602C31.0751 44.2518 30.9281 44.1909 30.7748 44.1909H24.9578C24.805 44.1917 24.6588 44.253 24.551 44.3613C24.4433 44.4696 24.3828 44.6161 24.3828 44.7689V49.4929C24.3828 49.6462 24.4437 49.7932 24.5521 49.9016C24.6605 50.01 24.8075 50.0709 24.9608 50.0709H30.7778C30.9311 50.0709 31.0781 50.01 31.1865 49.9016C31.2949 49.7932 31.3558 49.6462 31.3558 49.4929L31.3528 44.7689ZM29.0288 45.4219H26.7038V47.7459H29.0278L29.0288 45.4219Z" fill="#8D2813"/>
<path fill-rule="evenodd" clip-rule="evenodd" d="M22.0554 42.9531H5.64844V54.5781H22.0554V42.9531ZM19.7304 45.3301H7.97344V54.5771H19.7304V45.3301Z" fill="#8D2813"/>
<path fill-rule="evenodd" clip-rule="evenodd" d="M17.2669 44.7689C17.2669 44.6156 17.206 44.4686 17.0976 44.3602C16.9892 44.2518 16.8422 44.1909 16.6889 44.1909H10.8719C10.7191 44.1917 10.5729 44.253 10.4651 44.3613C10.3574 44.4696 10.2969 44.6161 10.2969 44.7689V49.4929C10.2969 49.6462 10.3578 49.7932 10.4662 49.9016C10.5746 50.01 10.7216 50.0709 10.8749 50.0709H16.6919C16.8452 50.0709 16.9922 50.01 17.1006 49.9016C17.209 49.7932 17.2699 49.6462 17.2699 49.4929L17.2669 44.7689ZM14.9429 45.4219H12.6179V47.7459H14.9419L14.9429 45.4219Z" fill="#8D2813"/>
</svg>
