<svg width="80" height="82" viewBox="0 0 80 82" fill="none" xmlns="http://www.w3.org/2000/svg">
<path d="M21.0497 73.2627H18.5234V75.789H21.0497V73.2627Z" fill="#8D2813"/>
<path d="M49.3325 57.3328H26.6667V37.333C26.6667 37.1579 26.6322 36.9845 26.5651 36.8227C26.4981 36.6609 26.3998 36.5139 26.2759 36.3901C26.1521 36.2664 26.005 36.1682 25.8432 36.1012C25.6813 36.0343 25.5079 35.9999 25.3328 36H1.33304C0.979495 36 0.640431 36.1404 0.390438 36.3904C0.140445 36.6404 0 36.9795 0 37.333V79.9995C0 80.3531 0.140445 80.6921 0.390438 80.9421C0.640431 81.1921 0.979495 81.3326 1.33304 81.3326H49.3325C49.6861 81.3326 50.0251 81.1921 50.2751 80.9421C50.5251 80.6921 50.6656 80.3531 50.6656 79.9995V58.6667C50.6657 58.4916 50.6313 58.3181 50.5643 58.1563C50.4974 57.9945 50.3992 57.8474 50.2754 57.7236C50.1516 57.5997 50.0046 57.5014 49.8429 57.4344C49.6811 57.3673 49.5077 57.3328 49.3325 57.3328ZM34.6666 59.9997H39.9996V65.3328H34.6666V59.9997ZM10.6668 38.6669H15.9998V43.9999H10.6668V38.6669ZM2.66692 38.6669H7.99992V45.3338C7.99992 45.6873 8.14036 46.0264 8.39035 46.2764C8.64035 46.5264 8.97941 46.6668 9.33295 46.6668H17.3329C17.6864 46.6668 18.0255 46.5264 18.2755 46.2764C18.5255 46.0264 18.6659 45.6873 18.6659 45.3338V38.6669H23.9997V57.3337H2.66692V38.6669ZM10.6668 59.9997H15.9998V65.3328H10.6668V59.9997ZM2.66692 59.9997H7.99992V66.6666C7.99992 66.8417 8.0344 67.015 8.10139 67.1768C8.16838 67.3385 8.26657 67.4854 8.39035 67.6092C8.51414 67.733 8.66109 67.8312 8.82282 67.8982C8.98455 67.9652 9.1579 67.9997 9.33295 67.9997H17.3329C17.5079 67.9997 17.6813 67.9652 17.843 67.8982C18.0047 67.8312 18.1517 67.733 18.2755 67.6092C18.3993 67.4854 18.4974 67.3385 18.5644 67.1768C18.6314 67.015 18.6659 66.8417 18.6659 66.6666V59.9997H23.9997V78.6665H2.66692V59.9997ZM47.9995 78.6656H26.6667V59.9997H31.9997V66.6666C31.9997 66.8417 32.0341 67.015 32.1011 67.1768C32.1681 67.3385 32.2663 67.4854 32.3901 67.6092C32.5139 67.733 32.6608 67.8312 32.8226 67.8982C32.9843 67.9652 33.1576 67.9997 33.3327 67.9997H41.3326C41.5077 67.9997 41.681 67.9652 41.8428 67.8982C42.0045 67.8312 42.1514 67.733 42.2752 67.6092C42.399 67.4854 42.4972 67.3385 42.5642 67.1768C42.6312 67.015 42.6657 66.8417 42.6657 66.6666V59.9997H47.9995V78.6656Z" fill="#8D2813"/>
<path d="M45.4716 73.2627H42.9453V75.789H45.4716V73.2627Z" fill="#8D2813"/>
<path d="M21.0497 52.2104H18.5234V54.7367H21.0497V52.2104Z" fill="#8D2813"/>
<path d="M78.3522 17.2961C78.4545 17.3209 78.5594 17.3333 78.6646 17.3332C78.8983 17.3331 79.1278 17.2718 79.3303 17.1553C79.5329 17.0389 79.7014 16.8714 79.8191 16.6696C79.9403 16.4566 80.0023 16.2149 79.9985 15.9698V10.6646C79.9985 10.3654 79.8979 10.0749 79.7127 9.83981C79.5276 9.60473 79.2688 9.43877 78.9779 9.36864L40.3113 0.0373742C40.1058 -0.0124581 39.8912 -0.0124581 39.6857 0.0373742L1.01997 9.37033C0.729233 9.44062 0.470588 9.60664 0.285624 9.84171C0.100659 10.0768 0.000124501 10.3672 0.000186875 10.6663V15.9614C-0.00439683 16.2407 0.0754366 16.5148 0.229237 16.7479C0.381811 16.9722 0.599061 17.1447 0.852082 17.2425C1.1051 17.3403 1.3819 17.3587 1.64564 17.2953L4.00351 16.7269V33.333H6.67043V16.0844L39.9998 8.03813L73.3316 16.0844V78.6656H65.3317V26.6661C65.3317 26.3127 65.1914 25.9738 64.9416 25.7238C64.6918 25.4739 64.3529 25.3333 63.9995 25.3331H16C15.6465 25.3331 15.3074 25.4736 15.0574 25.7235C14.8074 25.9735 14.667 26.3126 14.667 26.6661V32C14.667 32.3535 14.8074 32.6926 15.0574 32.9426C15.3074 33.1926 15.6465 33.333 16 33.333H62.6648V35.9999H29.3321V38.6669H62.6648V41.3338H29.3321V43.9999H62.6648V46.6668H29.3321V49.3337H62.6648V78.6664H53.3318V81.3334H79.9993V78.6664H75.9994V16.7277L78.3522 17.2961ZM17.3322 30.6661V28H62.6648V30.6669L17.3322 30.6661ZM39.9998 5.33332C39.8945 5.33321 39.7896 5.34565 39.6873 5.37037L2.66626 14.3067V11.7164L39.9998 2.70514L77.3324 11.7156V14.3059L40.3113 5.37037C40.209 5.34565 40.105 5.33321 39.9998 5.33332Z" fill="#484A53"/>
<path d="M42.6689 21.3334C43.1942 21.3334 43.7143 21.2299 44.1996 21.0289C44.6849 20.8279 45.1259 20.5333 45.4973 20.1619C45.8687 19.7904 46.1634 19.3495 46.3644 18.8642C46.5654 18.3789 46.6689 17.8587 46.6689 17.3335C46.6689 16.8082 46.5654 16.288 46.3644 15.8027C46.1634 15.3174 45.8687 14.8765 45.4973 14.5051C45.1259 14.1336 44.6849 13.839 44.1996 13.638C43.7143 13.437 43.1942 13.3335 42.6689 13.3335H37.3359C36.8106 13.3335 36.2905 13.437 35.8052 13.638C35.3199 13.839 34.8789 14.1336 34.5075 14.5051C34.1361 14.8765 33.8414 15.3174 33.6404 15.8027C33.4394 16.288 33.3359 16.8082 33.3359 17.3335C33.3359 17.8587 33.4394 18.3789 33.6404 18.8642C33.8414 19.3495 34.1361 19.7904 34.5075 20.1619C34.8789 20.5333 35.3199 20.8279 35.8052 21.0289C36.2905 21.2299 36.8106 21.3334 37.3359 21.3334H42.6689ZM36.002 17.3335C36.0025 16.98 36.143 16.6412 36.3929 16.3913C36.6428 16.1414 36.9816 16.0009 37.335 16.0004H42.6681C43.0217 16.0004 43.3609 16.1409 43.6109 16.391C43.861 16.6411 44.0015 16.9802 44.0015 17.3339C44.0015 17.6875 43.861 18.0267 43.6109 18.2768C43.3609 18.5268 43.0217 18.6673 42.6681 18.6673H37.3359C36.9823 18.6669 36.6434 18.5262 36.3935 18.2761C36.1436 18.026 36.0031 17.687 36.0029 17.3335H36.002Z" fill="#484A53"/>
<path d="M62.6715 38.9171H29.2656V35.9697H62.6715V38.9171Z" fill="#8D2813"/>
<path d="M62.6715 43.9693H29.2656V41.022H62.6715V43.9693Z" fill="#8D2813"/>
<path d="M62.6715 49.3968H29.2656V46.6616H62.6715V49.3968Z" fill="#8D2813"/>
</svg>
