<svg width="80" height="72" viewBox="0 0 80 72" fill="none" xmlns="http://www.w3.org/2000/svg">
<path d="M21.6333 0.209485C21.4891 0.353656 21.4415 1.39381 21.4415 3.8734C21.4415 7.92152 21.4257 7.85735 22.8176 7.85735H23.6818V14.8976H13.8404C4.20814 14.8976 3.99981 14.8976 3.67977 15.2176C3.35972 15.5377 3.35972 15.746 3.35972 39.6989V63.8623H1.93612C0.848422 63.8623 0.448366 63.9264 0.255885 64.1181C0.0294383 64.3265 0 64.9024 0 67.8621C0 71.1743 0.0158514 71.3826 0.30193 71.5426C0.733689 71.769 79.2656 71.769 79.6981 71.5426C79.9864 71.3826 80 71.1743 80 67.8621C80 64.9017 79.9683 64.3257 79.7441 64.1181C79.5524 63.9264 79.1523 63.8623 78.0639 63.8623H76.6395V39.7011C76.6395 15.7483 76.6395 15.54 76.3195 15.2199C75.9994 14.8999 75.7911 14.8999 66.1588 14.8999H56.3227V7.85433H57.187C58.5789 7.85433 58.563 7.9185 58.563 3.85378C58.563 0.541609 58.5472 0.333272 58.2611 0.17325C57.7787 -0.0788613 21.8899 -0.0464007 21.6333 0.209485ZM56.8028 3.93756V6.09786H23.201V1.77801H56.8028V3.93756ZM54.5624 35.8583V63.8623H49.2787V52.3738C49.2787 42.2456 49.247 40.853 49.0228 40.5329L48.7828 40.1812H31.2172L30.9772 40.5329C30.7508 40.853 30.7213 42.2449 30.7213 52.3738V63.8623H25.4376V7.85433H54.5587L54.5624 35.8583ZM23.6486 40.2906L23.6003 63.78H5.19998L5.15167 40.2906L5.11997 16.8156H23.6811L23.6486 40.2906ZM74.8513 40.2906L74.803 63.78H56.4027L56.3544 40.2906L56.3227 16.8156H74.8838L74.8513 40.2906ZM47.3622 52.8962V63.8623H32.6431V41.9414H47.3622V52.8962ZM78.2435 67.7926V69.9371H1.76025V65.6489H78.2435V67.7926Z" fill="#484A53"/>
<path d="M31.1425 13.9541L30.7266 14.2741V17.7946C30.7266 21.0909 30.7424 21.3151 31.0466 21.6185C31.3666 21.9386 31.575 21.9386 40.0071 21.9386C48.4393 21.9386 48.6476 21.9386 48.9676 21.6185C49.2696 21.3166 49.2877 21.0902 49.2877 17.7946V14.2741L48.8718 13.9541C48.4559 13.6182 48.2958 13.6182 40.0071 13.6182C31.7184 13.6182 31.5569 13.6182 31.1425 13.9541ZM47.3674 17.858V20.1783H32.6483V15.5384H47.3674V17.858Z" fill="#8D2813"/>
<path d="M30.9825 26.4504C30.7741 26.7523 30.7266 27.3947 30.7266 30.1785C30.7266 32.9622 30.7749 33.6023 30.9825 33.9065L31.2225 34.2583H48.791L49.031 33.9065C49.2394 33.6046 49.2869 32.9622 49.2869 30.1785C49.2869 27.3947 49.2386 26.7546 49.031 26.4504L48.791 26.0986H31.2225L30.9825 26.4504ZM47.3674 30.1785V32.4988H32.6483V27.8589H47.3674V30.1785Z" fill="#8D2813"/>
<path d="M10.1579 21.2186L9.75781 21.6028V30.0833L10.1896 30.4192C10.6055 30.7392 10.7496 30.7551 14.606 30.7075C18.3341 30.6592 18.6066 30.6434 18.8142 30.3558C18.9901 30.0999 19.0406 29.2039 19.0406 25.7959C19.0729 24.3172 19.0301 22.8379 18.9123 21.3635C18.5923 20.8835 18.0322 20.8193 14.32 20.8193H10.5458L10.1579 21.2186ZM17.1181 25.7785V28.819H11.6781V22.7389H17.1181V25.7785Z" fill="#8D2813"/>
<path d="M10.0779 35.699C9.77593 36.0009 9.75781 36.2273 9.75781 40.2279C9.75781 43.7642 9.78951 44.4843 10.0137 44.7878C10.2537 45.1395 10.302 45.1395 14.3819 45.1395C18.1741 45.1395 18.5258 45.1237 18.7659 44.8512C19.0059 44.5953 19.0376 44.0352 19.0376 40.2913C19.0376 36.2273 19.0218 36.0032 18.7176 35.699C18.4134 35.3948 18.1892 35.3789 14.3977 35.3789C10.6062 35.3789 10.3821 35.3948 10.0779 35.699ZM17.1181 40.3389V43.3793H11.6781V37.2992H17.1181V40.3389Z" fill="#8D2813"/>
<path d="M10.0137 50.2915C9.78725 50.5934 9.75781 51.3158 9.75781 54.8514C9.75781 58.8519 9.77367 59.0784 10.0779 59.3803C10.3821 59.6822 10.6062 59.7004 14.4619 59.7004C18.4941 59.7004 18.5425 59.7003 18.7817 59.3486C19.0082 59.0467 19.0376 58.3409 19.0376 54.8197C19.0376 51.2984 19.0059 50.5926 18.7817 50.2907C18.5417 49.939 18.4934 49.939 14.3977 49.939C10.302 49.939 10.2537 49.9397 10.0137 50.2915ZM17.1181 54.8204V57.9409H11.6781V51.7007H17.1181V54.8204Z" fill="#8D2813"/>
<path d="M61.5236 21.0101C61.3584 21.0985 61.2118 21.218 61.0919 21.3619C60.9741 22.8362 60.9312 24.3156 60.9635 25.7942C60.9635 29.2023 61.0118 30.0967 61.19 30.3541C61.3983 30.6424 61.6701 30.656 65.3981 30.7059C69.2545 30.7542 69.3987 30.7376 69.8146 30.4175L70.2464 30.0816V21.6012L69.8463 21.217L69.4621 20.8169H65.654C63.1238 20.8343 61.732 20.8826 61.5236 21.0101ZM68.3238 25.7784V28.8188H62.8838V22.7387H68.3238V25.7784Z" fill="#8D2813"/>
<path d="M61.281 35.6992C60.9791 36.0012 60.9609 36.2276 60.9609 40.3074C60.9609 44.2755 60.9768 44.6273 61.2493 44.8673C61.5052 45.1074 62.0494 45.139 65.6491 45.139C69.6973 45.139 69.7456 45.1391 69.9856 44.7873C70.2121 44.4854 70.2415 43.763 70.2415 40.2274C70.2415 36.2268 70.2256 36.0004 69.9215 35.6985C69.6173 35.3965 69.3931 35.3784 65.6016 35.3784C61.8101 35.3784 61.5852 35.395 61.281 35.6992ZM68.3212 40.3391V43.3796H62.8812V37.2995H68.3212V40.3391Z" fill="#8D2813"/>
<path d="M61.2168 50.2914C60.9904 50.5933 60.9609 51.2991 60.9609 54.8204C60.9609 58.3416 60.9926 59.0474 61.2168 59.3493C61.4568 59.7011 61.5052 59.7011 65.5367 59.7011C69.3931 59.7011 69.6165 59.6852 69.9207 59.381C70.2249 59.0768 70.2407 58.8526 70.2407 54.8521C70.2407 51.3157 70.209 50.5956 69.9848 50.2922C69.7448 49.9404 69.6965 49.9404 65.6008 49.9404C61.5052 49.9404 61.4568 49.9397 61.2168 50.2914ZM68.3212 54.8204V57.9408H62.8812V51.7007H68.3212V54.8204Z" fill="#8D2813"/>
</svg>
