<svg width="80" height="72" viewBox="0 0 80 72" fill="none" xmlns="http://www.w3.org/2000/svg">
<path d="M27.0363 4.29994C19.5504 6.79728 14.0494 8.70738 13.8928 8.86328C13.3623 9.44145 0 31.0706 0 31.3522C0 31.9144 0.454061 32.3057 2.65701 33.6807L4.84332 35.0406V69.5493H3.96925C2.95367 69.5493 2.54728 69.737 2.32858 70.2841C2.2752 70.4224 2.25032 70.57 2.25543 70.7182C2.26053 70.8663 2.29551 71.0119 2.35827 71.1462C2.42103 71.2805 2.51028 71.4007 2.62066 71.4997C2.73103 71.5986 2.86026 71.6742 3.00059 71.722C3.6726 71.9566 76.3428 71.9566 77.0126 71.722C77.1529 71.6742 77.2821 71.5986 77.3925 71.4997C77.5029 71.4007 77.5921 71.2805 77.6549 71.1462C77.7176 71.0119 77.7526 70.8663 77.7577 70.7182C77.7628 70.57 77.7379 70.4224 77.6846 70.2841C77.4659 69.737 77.0595 69.5493 76.0439 69.5493H75.1713V35.0406L77.375 33.6785C79.6408 32.2565 80.0941 31.8191 79.9851 31.2091C79.9223 30.8656 66.6698 9.48986 66.1363 8.87688C66.0114 8.72023 60.5725 6.82983 52.9927 4.29768C45.8791 1.93807 40.0368 0 40.0058 0C39.9574 0.00227031 34.1303 1.94034 27.0363 4.29994ZM52.3071 6.58161L64.5123 10.6447L70.8691 20.8187C74.354 26.3976 77.1987 30.9927 77.1669 31.0237C77.1359 31.0396 76.6047 31.3832 75.9637 31.7737C74.9042 32.4298 74.7763 32.4767 74.6197 32.2277C74.5099 32.087 72.1223 28.2736 69.3064 23.7572C66.4776 19.2408 63.8054 14.9742 63.3521 14.2863L62.5394 13.0051L51.4603 9.31658C45.3811 7.28466 40.2238 5.62807 40.0051 5.62807C39.4269 5.62807 25.1724 10.4101 24.8303 10.7226C24.6926 10.8792 24.599 11.0696 24.5588 11.2742C24.5187 11.4788 24.5335 11.6904 24.6018 11.8874C24.6701 12.0844 24.7895 12.2598 24.9477 12.3957C25.1059 12.5315 25.2973 12.623 25.5023 12.6607C25.7052 12.6607 29.0652 11.6013 32.9724 10.3011L40.086 7.94152L50.5567 11.4423L61.0273 14.9583L66.9347 24.3823L72.8261 33.8215V69.5493H56.8863V45.6354H57.808C58.2569 45.694 58.7118 45.5887 59.0892 45.3388C59.4487 45.0421 59.4676 44.9483 59.5115 42.4161C59.5743 39.4647 59.4956 38.8684 59.0575 38.431C58.7608 38.1343 58.3696 38.1343 40.0066 38.1343C21.6436 38.1343 21.2531 38.1343 20.9557 38.431C20.5183 38.8684 20.4403 39.4624 20.5016 42.4161C20.5485 44.9475 20.5644 45.0413 20.9239 45.3388C21.3013 45.5887 21.7562 45.694 22.2051 45.6354H23.1268V69.5493H7.1893V33.8238L13.0966 24.3846L18.9881 14.9605L20.1913 14.5542C20.7114 14.4037 21.2063 14.1772 21.6602 13.8822C21.8324 13.6632 21.9247 13.392 21.9218 13.1135C21.9189 12.835 21.821 12.5658 21.6443 12.3504C21.2538 11.913 20.6439 11.96 18.9404 12.5222L17.4715 13.0066L16.6587 14.2878C16.2047 14.9757 13.5333 19.2416 10.7045 23.7587C7.89158 28.2751 5.50019 32.0885 5.39122 32.2292C5.23457 32.479 5.1097 32.4321 4.0472 31.7752C3.40622 31.3847 2.87496 31.0404 2.84394 31.0252C2.81291 30.9942 5.65685 26.3991 9.14176 20.8202L15.4986 10.6462L27.6258 6.58313C34.3149 4.3484 39.831 2.52003 39.9248 2.52003C40.0081 2.4996 45.587 4.33098 52.3071 6.58161ZM57.1988 41.8856V43.2925H22.8173V40.4795H57.1988V41.8856ZM52.3555 45.699C52.3555 45.73 51.6835 46.34 50.8707 47.0271C49.5267 48.1835 49.386 48.3552 49.386 48.8434C49.3758 48.9934 49.3966 49.1438 49.4469 49.2855C49.4973 49.4271 49.5763 49.5569 49.6788 49.6668C49.7814 49.7767 49.9055 49.8644 50.0433 49.9244C50.1812 49.9844 50.3299 50.0154 50.4802 50.0156C50.8238 50.0156 51.3551 49.672 52.6991 48.5467L54.4654 47.093L54.5123 52.2972C54.5282 55.1571 54.5282 59.8922 54.5123 62.8163L54.4654 68.1296L48.4483 63.1289C45.1352 60.378 42.3064 58.0025 42.1505 57.8466C41.8849 57.5969 41.9938 57.4682 44.5419 55.3493C45.5527 54.5674 46.4938 53.6994 47.3548 52.7551C47.4207 52.5887 47.4445 52.4086 47.424 52.2308C47.4034 52.0531 47.3393 51.8831 47.2372 51.7361C47.1351 51.5892 46.9982 51.4697 46.8388 51.3884C46.6793 51.3072 46.5022 51.2666 46.3233 51.2703C45.8693 51.2703 45.3698 51.6298 42.9792 53.6163C42.0328 54.4519 41.0415 55.2351 40.0096 55.9623C39.8378 55.9623 27.6637 45.8662 27.6637 45.7262C27.6637 45.6793 33.2274 45.6506 40.0096 45.6506C46.8061 45.6354 52.354 45.6672 52.354 45.699H52.3555ZM31.8827 52.3585C35.024 54.9527 37.7098 57.2019 37.8679 57.3593C38.1495 57.609 37.8838 57.8436 32.0855 62.6725C28.7557 65.4544 25.8966 67.8299 25.7559 67.9548C25.4902 68.1735 25.4743 67.6733 25.4743 57.5931V46.9984L25.8338 47.3109C26.0207 47.4804 28.7398 49.7462 31.8811 52.3563L31.8827 52.3585ZM46.3543 64.4237L52.4183 69.4714L46.2128 69.5183C42.8074 69.5342 37.2073 69.5342 33.8018 69.5183L27.5963 69.4714L33.7541 64.345C37.1452 61.5162 39.9899 59.2504 40.0989 59.2974C40.2079 59.3443 43.0238 61.6396 46.3528 64.4214L46.3543 64.4237Z" fill="#8D2813"/>
<path d="M40.0074 71.895C33.9964 71.895 28.0556 71.889 22.8286 71.8769L22.6978 69.5475H23.129V45.6335H22.2067C21.7578 45.6908 21.3034 45.5852 20.9256 45.3361C20.5662 45.0402 20.5472 44.9306 20.5033 42.4135C20.442 39.5053 20.5139 38.8718 20.9574 38.4283C21.2533 38.1309 21.6051 38.1309 40.0082 38.1309C58.4113 38.1309 58.7616 38.1309 59.0574 38.4283C59.5002 38.8695 59.5721 39.503 59.5116 42.4135C59.4647 44.9306 59.4487 45.0394 59.0892 45.3361C58.7115 45.5852 58.257 45.6908 57.8081 45.6335H56.8854V69.5475H57.1618L56.7206 71.8784C51.4838 71.889 45.7066 71.895 40.0074 71.895ZM40.0968 59.2949C39.9364 59.2949 37.1512 61.5121 33.7563 64.3432L27.5987 69.4688L33.804 69.5157C35.4462 69.524 37.65 69.5286 40.0096 69.5286C42.3692 69.5286 44.5716 69.524 46.2153 69.5157L52.4206 69.4688L46.3576 64.4227C43.0278 61.6408 40.2162 59.3433 40.1057 59.2964L40.0968 59.2949ZM46.3225 51.2631C46.5026 51.2603 46.6808 51.3022 46.8409 51.3847C47.001 51.4672 47.1384 51.5878 47.2407 51.7361C47.3411 51.8824 47.4039 52.0512 47.4236 52.2275C47.4433 52.4039 47.4191 52.5822 47.3534 52.7471C46.4916 53.6903 45.5503 54.5582 44.5403 55.3407C42.5288 57.0192 42.0573 57.4352 42.0497 57.6668C42.0523 57.7014 42.0629 57.7352 42.08 57.7655C42.0972 57.7957 42.1207 57.8216 42.1491 57.8416C42.3005 57.9929 45.086 60.3329 48.4461 63.1231L54.464 68.1241L54.5117 62.8108C54.5268 59.8799 54.5268 55.1619 54.5117 52.2914L54.4647 47.0872L52.6984 48.5409C51.3703 49.6526 50.8314 50.0093 50.4802 50.0093C50.3299 50.0091 50.1813 49.978 50.0435 49.918C49.9056 49.8581 49.7814 49.7704 49.6788 49.6605C49.5762 49.5506 49.4975 49.4208 49.4471 49.2792C49.3967 49.1375 49.376 48.9868 49.3861 48.8368C49.3861 48.3525 49.5245 48.1831 50.8708 47.0207C51.6707 46.3434 52.3555 45.7244 52.3555 45.6926C52.3245 45.6601 46.5557 45.6306 40.0104 45.6306C33.8881 45.6306 27.6812 45.6571 27.6637 45.7063C27.6637 45.782 30.8299 48.4375 33.7722 50.8773C36.7145 53.3171 39.9218 55.943 40.0111 55.943C41.0426 55.2151 42.0341 54.4319 42.9809 53.5969C45.4041 51.5915 45.8729 51.2623 46.3217 51.2623L46.3225 51.2631ZM25.4744 46.9955V57.5903C25.4744 66.6806 25.4875 67.987 25.6857 67.987C25.7123 67.9834 25.7367 67.971 25.7552 67.9515C25.8203 67.894 26.4787 67.3458 27.4738 66.5134L27.6183 66.3933L28.2993 65.825C29.3588 64.9396 30.6831 63.8382 32.0832 62.6675C37.0059 58.5673 37.9332 57.7858 37.9385 57.4846C37.9366 57.4584 37.9287 57.4328 37.9156 57.41C37.9025 57.3872 37.8845 57.3676 37.8628 57.3527C37.7114 57.2014 35.0626 54.9796 31.8766 52.352C28.257 49.3454 25.9967 47.4581 25.8295 47.3045L25.4744 46.9955ZM22.8175 40.4799V43.293H57.1988V40.4799H22.8175Z" fill="#484A53"/>
<path d="M30.0311 16.3023L29.6875 16.6618V33.1495L30.078 33.5279L30.4564 33.9184H49.5542L49.9326 33.5279L50.3231 33.1495V16.6149L49.9636 16.2865L49.6041 15.9429H30.3595L30.0311 16.3023ZM47.9718 24.9295V31.5717H41.2661L41.2191 26.7117L41.1722 21.8517L40.7348 21.4733C40.5285 21.2832 40.2746 21.1525 40 21.095C39.7254 21.1524 39.4715 21.2832 39.2652 21.4733L38.8278 21.8517L38.7808 26.7117L38.7339 31.5717H32.0335V18.2889H47.9741L47.9718 24.9295Z" fill="#484A53"/>
</svg>
