<svg width="80" height="80" viewBox="0 0 80 80" fill="none" xmlns="http://www.w3.org/2000/svg">
<path d="M26.9846 0.18395C26.4377 0.603356 26.4066 1.15278 26.4066 10.0903V18.9029H10.7972L10.3593 19.2778L9.92147 19.6528L9.87449 34.5123L9.84346 49.3719H0.640852L0.327975 49.7779C0 50.1989 0 50.261 0 64.5586V78.9182L0.390886 79.2931L0.765835 79.6832H79.2342L79.6091 79.2923L80 78.9173V60.9173L79.6091 60.5423L79.2342 60.1514H70.9375V55.1362C71.0083 53.3637 70.9522 51.5885 70.7697 49.824C70.6547 49.6599 70.4998 49.5277 70.3195 49.4401C70.1393 49.3524 69.9397 49.3121 69.7396 49.323C69.5394 49.334 69.3454 49.3957 69.1757 49.5024C69.0061 49.6091 68.8665 49.7573 68.77 49.933C68.645 50.214 68.6022 54.0734 68.6022 63.8238V77.3395H48.2812V42.0256H68.562L68.6249 43.7602C68.6718 45.354 68.7029 45.51 69.0443 45.7918C69.2479 45.9793 69.5161 46.0808 69.7929 46.075C70.0696 46.0692 70.3334 45.9566 70.529 45.7608L70.935 45.4479V42.9013C70.935 40.4486 70.919 40.3546 70.5759 40.0267L70.2169 39.6828H53.5934L53.5623 20.1384L53.5154 0.59414L53.1404 0.297198C52.7965 0.0161957 52.3435 0.000254983 40.0155 0.000254983C30.0471 -0.00393908 27.1876 0.0430295 26.9846 0.18395ZM51.2514 21.0116V39.6836H48.9531C46.4685 39.6995 46.2345 39.7616 45.9333 40.5275C45.8243 40.8085 45.7773 46.9334 45.7773 59.1491V77.3362H37.031V48.6648C37.031 27.9931 36.9841 19.8994 36.8633 19.6335C36.6292 19.1176 36.0974 18.8995 35.0816 18.8995H34.2185V17.5868C34.2185 16.4124 34.1715 16.212 33.8595 15.837C33.7609 15.7079 33.6352 15.6019 33.4913 15.5265C33.3473 15.4512 33.1886 15.4083 33.0263 15.4008C32.864 15.3934 32.702 15.4216 32.5518 15.4835C32.4015 15.5454 32.2667 15.6394 32.1567 15.759C31.9378 16.0559 31.8757 16.3999 31.8757 17.5088V18.8995H28.9063V2.33717H51.2514V21.0116ZM34.6094 24.84V28.3554L23.4867 28.4024L12.3465 28.4335V21.2457L23.4867 21.2776L34.6119 21.3245L34.6094 24.84ZM34.6874 33.5896V36.4022H12.344V30.7805H34.6874V33.5896ZM34.6874 41.5584V44.3709H12.344V38.7492H34.6874V41.5584ZM34.6564 49.5581L34.6874 52.3396H12.344V46.7179L23.4867 46.7456L34.6119 46.7925L34.6564 49.5581ZM9.8443 64.5267V77.3395H2.34364V51.7147H9.84346L9.8443 64.5267ZM34.6564 57.6048L34.6094 60.3905L28.9373 60.4685C23.5471 60.5465 23.2502 60.5625 23.0313 60.8435C22.871 61.0839 22.7949 61.3706 22.8146 61.6589C22.8343 61.9472 22.9488 62.2208 23.1403 62.4372C23.4532 62.7182 23.8114 62.7342 29.0774 62.7811L34.6865 62.8281L34.6555 65.5962L34.6085 68.3643L23.4867 68.402L12.3465 68.433V62.8231L15.643 62.7761C18.8934 62.7291 18.9395 62.7291 19.2365 62.3567C19.4232 62.1414 19.5246 61.8652 19.5217 61.5803C19.5187 61.2953 19.4116 61.0213 19.2205 60.8099C18.9077 60.4819 18.7827 60.466 15.6271 60.466H12.344V54.8409H34.6874L34.6564 57.6048ZM77.6564 69.9169V77.3387H70.9375V62.4917H77.6564V69.9169ZM34.6882 74.0573V77.3387H12.344V70.7758H34.6874L34.6882 74.0573Z" fill="#484A53"/>
<path d="M32.281 5.32427C31.875 5.63715 31.875 5.65224 31.875 7.94891C31.875 10.1516 31.8909 10.2615 32.234 10.5895C32.4349 10.7914 32.7054 10.9087 32.9901 10.9175C33.2748 10.9262 33.552 10.8257 33.7648 10.6365C34.1239 10.3555 34.1398 10.217 34.1843 8.27688C34.2472 6.01209 34.1213 5.46434 33.4964 5.1674C33.3102 5.03898 33.083 4.98396 32.8586 5.01291C32.6343 5.04187 32.4285 5.15277 32.281 5.32427Z" fill="#8D2813"/>
<path d="M32.2821 15.6406C31.8762 15.9535 31.8829 16.586 31.8829 18.8826C31.8694 18.8826 34.1896 18.896 34.203 18.8826C34.2659 16.6178 34.1259 15.779 33.5009 15.4846C33.3145 15.3551 33.0867 15.2994 32.8615 15.3282C32.6364 15.357 32.4299 15.4684 32.2821 15.6406Z" fill="#8D2813"/>
<path d="M39.3122 5.32419L38.9062 5.63708V7.96478C38.9062 10.1675 38.9222 10.3084 39.2502 10.6213C39.3748 10.7463 39.528 10.839 39.6966 10.8914C39.8651 10.9438 40.0439 10.9543 40.2174 10.9219C40.391 10.8896 40.554 10.8155 40.6924 10.706C40.8308 10.5964 40.9404 10.4548 41.0117 10.2933C41.305 8.82056 41.3314 7.30708 41.0897 5.82498C40.9908 5.59474 40.8308 5.39593 40.6271 5.25001C40.4233 5.10409 40.1836 5.01662 39.9338 4.99707C39.7036 5.05517 39.4905 5.1673 39.3122 5.32419Z" fill="#8D2813"/>
<path d="M46.2938 5.3709C45.8744 5.74585 45.856 5.77688 45.8098 7.6986C45.7003 8.53589 45.7642 9.38678 45.9977 10.1983C46.0456 10.3385 46.1213 10.4676 46.2203 10.5778C46.3193 10.6881 46.4395 10.7772 46.5738 10.8399C46.708 10.9025 46.8535 10.9374 47.0016 10.9425C47.1497 10.9476 47.2972 10.9227 47.4354 10.8693C48.1065 10.7016 48.3103 9.93154 48.2483 7.69778C48.2013 5.77606 48.1862 5.74503 47.7643 5.37008C47.5578 5.1813 47.3042 5.05174 47.0303 4.99512C46.7554 5.05155 46.5009 5.18141 46.2938 5.3709Z" fill="#8D2813"/>
<path d="M39.6872 15.4173C38.9532 15.6832 38.9062 15.8703 38.9062 18.3079C38.9062 20.4175 38.9373 20.6515 39.2191 20.9325C39.4364 21.1241 39.7154 21.2311 40.0051 21.234C40.2947 21.2369 40.5758 21.1356 40.7969 20.9485C41.1559 20.6515 41.1719 20.5735 41.1719 18.3699C41.1719 16.3073 41.1408 16.0733 40.859 15.7914C40.7146 15.6305 40.5298 15.5111 40.3239 15.4453C40.1179 15.3796 39.8981 15.3699 39.6872 15.4173Z" fill="#8D2813"/>
<path d="M46.5563 15.5118C45.8684 15.8557 45.7594 16.3087 45.8064 18.5584C45.8533 20.543 45.8684 20.6679 46.2258 20.9489C46.4454 21.1311 46.7218 21.2308 47.0071 21.2308C47.2925 21.2308 47.5689 21.1311 47.7885 20.9489C48.2079 20.5295 48.3043 19.8585 48.2414 17.8244C48.1944 16.3397 48.1475 16.0629 47.8824 15.7928C47.7279 15.5999 47.5113 15.4665 47.2695 15.4153C47.0278 15.3641 46.7757 15.3982 46.5563 15.5118Z" fill="#8D2813"/>
<path d="M39.2191 26.0897C38.9381 26.3707 38.9062 26.6055 38.9062 28.6363C38.9062 31.2458 39.0153 31.5579 39.9841 31.5579C41.0469 31.5579 41.1719 31.2609 41.1719 28.6673C41.1719 26.6986 41.1408 26.4025 40.8749 26.1048C40.6492 25.8989 40.3554 25.7836 40.0499 25.7808C39.7444 25.778 39.4486 25.888 39.2191 26.0897Z" fill="#8D2813"/>
<path d="M46.2343 26.0738C45.8753 26.3708 45.8594 26.4488 45.8594 28.6364C45.8594 30.6361 45.8904 30.9331 46.1563 31.23C46.3952 31.4486 46.7073 31.5699 47.0312 31.5699C47.355 31.5699 47.6672 31.4486 47.9061 31.23C48.172 30.9331 48.203 30.6361 48.203 28.6364C48.203 26.4488 48.1871 26.3716 47.8281 26.0738C47.6024 25.8918 47.3212 25.7925 47.0312 25.7925C46.7412 25.7925 46.46 25.8918 46.2343 26.0738Z" fill="#8D2813"/>
<path d="M39.3122 36.4173C38.9062 36.7302 38.9062 36.7453 38.9062 39.042C38.9062 41.2447 38.9222 41.3546 39.2653 41.6826C39.383 41.8155 39.5327 41.9163 39.7002 41.9754C39.8677 42.0344 40.0475 42.0498 40.2226 42.0201C40.3977 41.9904 40.5624 41.9165 40.701 41.8055C40.8397 41.6945 40.9477 41.55 41.015 41.3856C41.3084 39.9128 41.3348 38.3994 41.093 36.9173C40.9941 36.687 40.8341 36.4882 40.6304 36.3423C40.4267 36.1964 40.187 36.1089 39.9372 36.0894C39.7056 36.1472 39.4913 36.2596 39.3122 36.4173Z" fill="#8D2813"/>
<path d="M46.3792 36.4024C46.2637 36.4676 46.1628 36.5556 46.0825 36.6611C46.0022 36.7666 45.9442 36.8873 45.912 37.0159C45.8798 37.1445 45.8742 37.2783 45.8954 37.4092C45.9166 37.5401 45.9641 37.6653 46.0352 37.7772C46.15 38.0365 46.3593 38.2423 46.6205 38.3527C46.8817 38.463 47.1752 38.4696 47.4411 38.3711C47.693 38.2499 47.8991 38.0506 48.0286 37.8029C48.1581 37.5552 48.2042 37.2723 48.1599 36.9962C48.0539 36.7695 47.8975 36.5699 47.7025 36.4129C47.5076 36.2559 47.2793 36.1456 47.0351 36.0903C46.7914 36.1305 46.5641 36.2386 46.3792 36.4024Z" fill="#8D2813"/>
<path d="M39.2191 46.8708C38.9381 47.1518 38.9062 47.3867 38.9062 49.4955C38.9062 51.5925 38.9373 51.8551 39.2032 52.0891C39.434 52.2789 39.7257 52.3787 40.0244 52.3701C40.3231 52.3615 40.6085 52.245 40.828 52.0421C41.1559 51.7292 41.1719 51.5581 41.1719 49.4636C41.1719 47.479 41.1408 47.182 40.8749 46.8851C40.6491 46.6794 40.3553 46.5642 40.0498 46.5616C39.7443 46.5589 39.4485 46.669 39.2191 46.8708Z" fill="#8D2813"/>
<path d="M39.3122 57.1987L38.9062 57.5116V59.8393C38.9062 62.042 38.9222 62.1829 39.2502 62.4958C39.3748 62.6208 39.528 62.7135 39.6966 62.7659C39.8651 62.8183 40.0439 62.8288 40.2174 62.7965C40.391 62.7642 40.554 62.69 40.6924 62.5805C40.8308 62.4709 40.9404 62.3293 41.0117 62.1678C41.305 60.6951 41.3314 59.1816 41.0897 57.6995C40.9908 57.4693 40.8308 57.2704 40.6271 57.1245C40.4233 56.9786 40.1836 56.8911 39.9338 56.8716C39.7035 56.9296 39.4905 57.0418 39.3122 57.1987Z" fill="#8D2813"/>
<path d="M39.2191 67.6524C38.9381 67.9334 38.9062 68.1683 38.9062 70.2771C38.9062 72.4177 38.9373 72.6207 39.2191 72.8866C39.4489 73.0742 39.7394 73.1714 40.0359 73.1598C40.3323 73.1482 40.6143 73.0287 40.8288 72.8237C41.1568 72.5108 41.1727 72.3397 41.1727 70.2142C41.1727 68.0114 41.1568 67.9326 40.7978 67.6356C40.5765 67.4484 40.2952 67.3471 40.0053 67.3502C39.7155 67.3532 39.4364 67.4605 39.2191 67.6524Z" fill="#8D2813"/>
<path d="M5.40599 53.9175C5 54.2304 5 54.2614 5 56.324C5 58.3867 5 58.4211 5.40599 58.7306C5.50853 58.8339 5.63145 58.9148 5.76695 58.9681C5.90245 59.0214 6.04755 59.0459 6.19303 59.0401C6.33852 59.0342 6.48119 58.9982 6.61198 58.9342C6.74278 58.8702 6.85883 58.7797 6.95275 58.6685C7.3277 58.3095 7.34364 58.1996 7.34364 56.3249C7.34364 54.4501 7.3277 54.3402 6.95275 53.9812C6.85895 53.8699 6.74299 53.7792 6.61226 53.7151C6.48153 53.651 6.33889 53.6148 6.19341 53.6088C6.04792 53.6028 5.90278 53.6272 5.76722 53.6803C5.63166 53.7334 5.50864 53.8142 5.40599 53.9175Z" fill="#8D2813"/>
<path d="M5.31288 62.1827C5.03188 62.4637 5 62.6986 5 64.5263C5 66.3541 5.03104 66.589 5.31288 66.87C5.42843 66.9804 5.56541 67.066 5.71536 67.1214C5.86531 67.1768 6.02502 67.2008 6.18463 67.192C6.34424 67.1832 6.50034 67.1418 6.64328 67.0702C6.78623 66.9986 6.91297 66.8985 7.01566 66.776C7.3126 66.4011 7.34364 66.1511 7.34364 64.5263C7.34364 62.9016 7.3126 62.6516 7.01566 62.2766C6.91297 62.1542 6.78623 62.054 6.64328 61.9825C6.50034 61.9109 6.34424 61.8695 6.18463 61.8607C6.02502 61.8519 5.86531 61.8759 5.71536 61.9313C5.56541 61.9867 5.42843 62.0722 5.31288 62.1827Z" fill="#8D2813"/>
<path d="M5.40599 70.3235C5 70.6364 5 70.6691 5 72.6672C5 74.6358 5.01594 74.7139 5.40599 75.1047C5.50509 75.2408 5.64419 75.3425 5.80388 75.3958C5.96356 75.449 6.13588 75.4511 6.2968 75.4017C7.2195 75.2339 7.34364 74.8858 7.34364 72.6982C7.34364 70.8528 7.3277 70.7454 6.95275 70.3856C6.85883 70.2743 6.74278 70.1838 6.61198 70.1199C6.48119 70.0559 6.33852 70.0199 6.19303 70.014C6.04755 70.0082 5.90245 70.0327 5.76695 70.086C5.63145 70.1392 5.50853 70.2201 5.40599 70.3235Z" fill="#8D2813"/>
<path d="M73.4379 65.8085C73.1569 66.1214 73.125 66.3554 73.125 68.2151C73.125 70.0605 73.156 70.3121 73.453 70.6837C73.5518 70.8088 73.677 70.9107 73.8195 70.9822C73.962 71.0537 74.1185 71.0931 74.2779 71.0976C74.4373 71.1021 74.5957 71.0715 74.742 71.0081C74.8883 70.9447 75.019 70.85 75.1247 70.7307C75.4376 70.3868 75.4686 70.2148 75.4686 68.262C75.4686 66.3554 75.4376 66.1214 75.1558 65.8085C75.0431 65.6971 74.9093 65.6092 74.7622 65.5502C74.6152 65.4911 74.4578 65.462 74.2993 65.4646C74.14 65.4614 73.9817 65.4901 73.8337 65.5492C73.6857 65.6083 73.5511 65.6965 73.4379 65.8085Z" fill="#8D2813"/>
<path d="M10.16 9.21521C9.95849 9.44481 9.84868 9.74066 9.85162 10.0462C9.85456 10.3517 9.97005 10.6453 10.176 10.871C10.4889 11.152 10.8168 11.168 16.176 11.168C21.5352 11.168 21.8632 11.152 22.176 10.871C22.382 10.6453 22.4974 10.3517 22.5004 10.0462C22.5033 9.74066 22.3935 9.44481 22.192 9.21521C21.895 8.91827 21.6761 8.90234 16.176 8.90234C10.6759 8.90234 10.457 8.91827 10.16 9.21521Z" fill="#484A53"/>
<path d="M4.34581 13.028C4.20153 13.1415 4.08489 13.2863 4.00469 13.4514C3.92448 13.6166 3.88281 13.7977 3.88281 13.9813C3.88281 14.1649 3.92448 14.3461 4.00469 14.5112C4.08489 14.6764 4.20153 14.8211 4.34581 14.9346C4.54881 15.0906 5.84561 15.1376 10.2519 15.1536C15.7042 15.1536 15.8929 15.1376 16.2209 14.8407C16.4461 14.6114 16.5723 14.3028 16.5723 13.9813C16.5723 13.6599 16.4461 13.3513 16.2209 13.1219C15.8929 12.825 15.705 12.8091 10.2519 12.8091C5.87748 12.825 4.54881 12.872 4.34581 13.028Z" fill="#484A53"/>
<path d="M55.8635 22.9804C54.6757 23.6364 55.0356 25.0271 56.4414 25.2301C56.8164 25.2771 60.3 25.3081 64.1912 25.2771L71.2851 25.2301L71.66 24.7923C71.7698 24.7039 71.8583 24.5921 71.9191 24.465C71.98 24.3379 72.0115 24.1988 72.0115 24.0579C72.0115 23.917 71.98 23.7779 71.9191 23.6508C71.8583 23.5237 71.7698 23.4118 71.66 23.3235L71.2851 22.8856L63.7223 22.8546C58.4261 22.8236 56.0824 22.8705 55.8635 22.9804Z" fill="#484A53"/>
<path d="M64.528 27.9176C64.3434 27.9836 64.178 28.0944 64.0467 28.2401C63.9155 28.3857 63.8224 28.5617 63.7759 28.7522C63.7295 28.9427 63.731 29.1418 63.7804 29.3315C63.8298 29.5212 63.9256 29.6957 64.0591 29.8393C64.3561 30.1363 64.575 30.1522 70.1212 30.1522C75.6993 30.1522 75.8872 30.1363 76.1682 29.8393C76.2718 29.7217 76.3505 29.5844 76.3996 29.4356C76.4487 29.2868 76.4673 29.1296 76.4541 28.9735C76.441 28.8173 76.3963 28.6654 76.323 28.5269C76.2497 28.3885 76.1491 28.2662 76.0273 28.1676L75.6079 27.8086L70.1858 27.8245C67.1996 27.8245 64.653 27.8715 64.528 27.9176Z" fill="#484A53"/>
<path d="M51.0653 44.7931C50.9242 44.9251 50.8181 45.09 50.7564 45.2732C50.6947 45.4563 50.6794 45.6518 50.712 45.8423C50.7445 46.0327 50.8237 46.2121 50.9426 46.3644C51.0615 46.5167 51.2164 46.6371 51.3933 46.7148C53.8006 46.8933 56.216 46.935 58.628 46.8398C65.0651 46.7928 65.456 46.7769 65.7688 46.4959C65.975 46.2702 66.0906 45.9763 66.0936 45.6706C66.0965 45.3649 65.9865 45.0689 65.7848 44.8392C65.4878 44.5423 65.2689 44.5264 58.394 44.5264C51.8311 44.5272 51.2842 44.5432 51.0653 44.7931Z" fill="#8D2813"/>
<path d="M50.9483 50.5577C50.7752 50.709 50.6648 50.9194 50.6388 51.1478C50.6127 51.3762 50.6728 51.6061 50.8073 51.7924C50.8827 51.933 50.9871 52.0559 51.1137 52.1529C51.2402 52.25 51.386 52.3189 51.5413 52.3553C51.9003 52.4492 54.4478 52.4962 58.7601 52.4643C65.0571 52.4174 65.448 52.4014 65.76 52.1204C65.9662 51.8947 66.0818 51.6008 66.0848 51.2951C66.0877 50.9894 65.9777 50.6934 65.7759 50.4638C65.479 50.1668 65.2601 50.1509 58.3701 50.1509H51.2611L50.9483 50.5577Z" fill="#8D2813"/>
<path d="M51.6098 55.7308C51.3597 55.8219 51.1375 55.9763 50.9649 56.1788C50.7923 56.3814 50.6752 56.6253 50.625 56.8867C50.6824 57.1559 50.812 57.4044 50.9999 57.6055L51.3749 58.0434H58.4058C65.0937 58.0434 65.4518 58.0275 65.7647 57.7465C65.9413 57.5429 66.0519 57.2905 66.0818 57.0226C66.1118 56.7548 66.0597 56.4842 65.9325 56.2467C65.6196 55.6687 64.9947 55.6218 58.3698 55.6377C54.8434 55.652 51.7993 55.6989 51.6098 55.7308Z" fill="#8D2813"/>
<path d="M51.4102 61.4481C51.1576 61.6068 50.944 61.8204 50.7853 62.073C50.6867 62.1915 50.6328 62.3408 50.6328 62.4949C50.6328 62.649 50.6867 62.7983 50.7853 62.9168C51.2541 63.7447 51.2541 63.7447 58.613 63.7137C65.082 63.6667 65.4569 63.6508 65.769 63.3698C65.9876 63.1309 66.1088 62.8188 66.1088 62.4949C66.1088 62.1711 65.9876 61.8589 65.769 61.62C65.4561 61.339 65.0811 61.3231 58.613 61.2761C53.3478 61.2451 51.7071 61.2921 51.4102 61.4481Z" fill="#8D2813"/>
<path d="M51.4102 67.0743C51.1576 67.233 50.944 67.4466 50.7853 67.6992C50.6867 67.8177 50.6328 67.967 50.6328 68.1211C50.6328 68.2753 50.6867 68.4245 50.7853 68.5431C51.2541 69.371 51.2541 69.371 58.613 69.3399C65.082 69.293 65.4569 69.277 65.769 68.996C65.9876 68.7571 66.1088 68.445 66.1088 68.1211C66.1088 67.7973 65.9876 67.4852 65.769 67.2463C65.4561 66.9653 65.0811 66.9493 58.613 66.9023C53.3629 66.8872 51.7071 66.9183 51.4102 67.0743Z" fill="#8D2813"/>
<path d="M51.4689 72.6522C51.2484 72.7584 51.0567 72.916 50.9099 73.1118C50.763 73.3075 50.6653 73.5357 50.625 73.777C50.6866 74.04 50.8158 74.2823 50.9999 74.48L51.3749 74.9178L57.7658 74.9648C61.2662 74.9958 64.4377 74.9648 64.8118 74.9178C65.1692 74.8681 65.508 74.7284 65.7966 74.5118C65.9924 74.2816 66.0974 73.9878 66.0917 73.6856C66.086 73.3834 65.97 73.0937 65.7655 72.8711C65.4527 72.5901 65.0777 72.5742 58.6097 72.5431C54.8593 72.5272 51.6408 72.5742 51.4689 72.6522Z" fill="#8D2813"/>
</svg>
