<svg width="80" height="80" viewBox="0 0 80 80" fill="none" xmlns="http://www.w3.org/2000/svg">
<path d="M38.5205 0.106554C37.3633 0.46328 36.3076 1.09028 35.4407 1.93573C34.9932 2.46365 34.615 3.04667 34.3155 3.67059C33.8939 4.44955 33.7194 5.33843 33.8153 6.21898C33.7121 7.14921 33.9152 8.08774 34.3939 8.89202C35.0142 10.2294 36.1047 11.292 37.4577 11.8775C38.2314 12.2976 39.1147 12.472 39.9901 12.3777C40.8654 12.472 41.7487 12.2976 42.5224 11.8775C43.8754 11.2919 44.9659 10.2294 45.5862 8.89202C46.0667 8.08255 46.2698 7.13842 46.1648 6.20299C46.2698 5.26757 46.0667 4.32343 45.5862 3.51397C45.1184 2.50298 44.3803 1.64093 43.4534 1.02299C42.5265 0.405059 41.4468 0.0552617 40.3337 0.0122317C39.7276 -0.0200346 39.1199 0.01158 38.5205 0.106554ZM41.3181 2.56062C42.0578 2.8481 42.6966 3.34663 43.1552 3.99421C43.6138 4.64179 43.872 5.40988 43.8977 6.20299C43.8654 7.22913 43.4434 8.20442 42.7174 8.93036C41.9915 9.65631 41.0162 10.0784 39.9901 10.1106C38.9643 10.073 37.9893 9.65516 37.2547 8.93833C36.8905 8.58161 36.6011 8.15579 36.4035 7.6858C36.206 7.21581 36.1042 6.71112 36.1042 6.2013C36.1042 5.69148 36.206 5.18681 36.4035 4.71682C36.6011 4.24683 36.8905 3.82098 37.2547 3.46426C37.77 2.93336 38.4294 2.56489 39.1516 2.40431C39.8739 2.24373 40.6273 2.29807 41.319 2.56062H41.3181Z" fill="#8D2813"/>
<path d="M22.3983 5.67142C21.7118 5.96756 21.1214 6.44918 20.6934 7.06222C20.2654 7.67527 20.0168 8.39547 19.9754 9.14199C19.9754 10.5804 20.0537 10.6739 25.5244 16.2077C29.9171 20.6628 31.6992 22.6326 31.6992 23.0697C31.4389 23.2906 31.1496 23.4748 30.8393 23.6171C27.7911 25.3495 25.2769 27.8853 23.5706 30.9482L23.1638 31.6825L22.3823 31.1823C21.9612 30.901 19.2562 28.3526 16.3793 25.5078C10.8455 20.0337 10.752 19.9587 9.31359 19.9587C8.32582 20.0036 7.39203 20.4222 6.70135 21.1298C6.01067 21.8373 5.61474 22.781 5.59375 23.7695C5.60975 25.0673 6.01483 25.5987 10.3612 29.9594C11.9382 31.4202 13.4022 32.9985 14.7405 34.6806C15.0841 35.5405 15.0841 44.3883 14.7405 45.2321C13.356 46.971 11.8462 48.6064 10.2231 50.1251C5.71839 54.677 5.59375 54.8336 5.59375 56.256C5.63844 57.2445 6.05743 58.179 6.76574 58.8699C7.47404 59.5609 8.41862 59.9566 9.40791 59.9767C10.7208 59.9607 11.1899 59.5859 16.536 54.287C19.3345 51.5205 21.9604 49.0345 22.3823 48.7532L23.1638 48.2529L23.5706 48.9873C25.0567 51.6195 27.1321 53.8719 29.6342 55.568C30.1944 55.9549 30.7793 56.3049 31.385 56.6156C31.5535 56.678 31.6975 56.7723 31.6975 56.8346C31.0754 57.9677 30.2798 58.9964 29.3394 59.8832C27.7915 61.5086 27.6551 61.8842 28.3549 62.5874C29.0287 63.2443 29.5121 63.0253 31.1686 61.3368C31.9288 60.5517 32.6289 59.7105 33.2631 58.8204C33.4792 58.457 33.7249 58.112 33.9974 57.7888C34.0286 57.7888 34.5912 57.9294 35.2607 58.1012C38.3533 58.9297 41.6095 58.9297 44.7022 58.1012C45.3759 57.9328 45.9368 57.7888 45.9654 57.7888C46.2403 58.1159 46.486 58.4665 46.6998 58.8364C47.1689 59.5708 49.0132 61.5406 52.5107 65.0735C57.1376 69.7315 57.6378 70.2949 57.6378 70.748C57.6101 71.116 57.4513 71.4619 57.1903 71.7229C56.9293 71.9839 56.5834 72.1426 56.2154 72.1704C55.7463 72.1704 55.2772 71.7493 51.4791 67.9655C48.3218 64.8394 47.024 63.6511 46.3831 63.3226L45.5233 62.8695H34.4345L33.653 63.2443C33.0744 63.5256 31.7463 64.745 28.557 67.9023C24.6957 71.7325 24.1955 72.1696 23.7424 72.1696C23.3753 72.1393 23.0308 71.9797 22.7703 71.7192C22.5098 71.4588 22.3502 71.1143 22.32 70.7472C22.32 70.3261 22.6013 69.9656 24.3521 68.1836C26.1653 66.3393 26.3843 66.058 26.3843 65.5729C26.3943 65.4245 26.3725 65.2757 26.3203 65.1365C26.2681 64.9972 26.1867 64.8708 26.0815 64.7656C25.9764 64.6605 25.8499 64.5791 25.7107 64.5269C25.5715 64.4746 25.4227 64.4528 25.2743 64.4629C24.8675 64.4629 24.4768 64.7754 22.6947 66.5574C21.8322 67.3666 21.0431 68.2506 20.3367 69.1992C18.9143 72.2007 22.1187 75.5458 25.137 74.1857C25.6533 73.9668 26.9814 72.7321 29.9828 69.7466C31.4436 68.1697 33.0219 66.7057 34.704 65.3674C35.5639 65.0238 44.4116 65.0238 45.2715 65.3674C46.9536 66.7057 48.5319 68.1697 49.9927 69.7466C54.3542 74.0922 54.8856 74.499 56.1826 74.5141C56.7669 74.5149 57.3435 74.3806 57.8673 74.1216C58.3911 73.8626 58.8479 73.486 59.202 73.0212C59.5562 72.5564 59.798 72.016 59.9087 71.4423C60.0194 70.8685 59.9959 70.277 59.8401 69.7138C59.6523 69.0258 59.152 68.4792 54.4502 63.7269C49.964 59.1792 48.2755 57.302 48.2755 56.8329C48.2755 56.7706 48.4161 56.6763 48.5879 56.6139C50.287 55.7015 51.8454 54.5485 53.2148 53.1905C54.5727 51.8211 55.7258 50.2628 56.6382 48.5637C56.7005 48.3953 56.7948 48.2513 56.8571 48.2513C57.3262 48.2513 59.2017 49.9356 63.7511 54.426C68.5034 59.1312 69.05 59.6314 69.738 59.8158C70.3012 59.9717 70.8928 59.9952 71.4665 59.8845C72.0403 59.7738 72.5807 59.5319 73.0454 59.1778C73.5102 58.8236 73.8868 58.3669 74.1458 57.8431C74.4048 57.3193 74.5392 56.7427 74.5384 56.1583C74.5224 54.8606 74.1173 54.3292 69.7709 49.9684C68.1939 48.5076 66.73 46.9294 65.3916 45.2473C65.2038 44.763 65.1575 43.856 65.1575 39.9635C65.1575 36.071 65.2047 35.1632 65.3916 34.6798C66.73 32.9976 68.1939 31.4194 69.7709 29.9586C74.1165 25.597 74.5232 25.0656 74.5384 23.7687C74.5382 23.139 74.3808 22.5194 74.0803 21.966C73.7798 21.4126 73.3459 20.9431 72.8178 20.6001C72.2898 20.2571 71.6845 20.0514 71.0567 20.0017C70.429 19.9521 69.7989 20.0601 69.2235 20.3158C68.3863 20.9263 67.6066 21.6118 66.8941 22.364C65.3622 23.9118 65.112 24.2243 65.112 24.6622C65.1153 24.811 65.1485 24.9575 65.2098 25.0931C65.271 25.2287 65.359 25.3505 65.4685 25.4512C65.578 25.552 65.7066 25.6296 65.8468 25.6794C65.987 25.7292 66.1358 25.7501 66.2843 25.741C66.6751 25.741 67.0659 25.4438 68.5194 24.0213C70.0202 22.5518 70.3486 22.3017 70.7857 22.3017C71.1502 22.335 71.4913 22.4959 71.7488 22.7562C72.0062 23.0164 72.1635 23.3592 72.193 23.7241C72.193 24.1771 71.755 24.6774 67.9257 28.5387C64.7684 31.728 63.5465 33.0561 63.2677 33.6347L62.8929 34.4162V45.5151L63.346 46.3749C63.6745 47.0158 64.8619 48.3119 67.9889 51.4708C71.7719 55.269 72.1938 55.7381 72.1938 56.2072C72.166 56.5752 72.0073 56.9211 71.7463 57.1821C71.4853 57.4431 71.1394 57.6018 70.7714 57.6296C70.3183 57.6296 69.7557 57.1294 65.0969 52.5025C63.1406 50.4435 61.0632 48.5031 58.8758 46.6916C58.4977 46.4796 58.1402 46.2329 57.8079 45.9547C57.8079 45.9235 57.9486 45.361 58.1204 44.6914C58.5312 43.1512 58.7413 41.5643 58.7453 39.9702C58.7413 38.3762 58.5312 36.7893 58.1204 35.2491C57.952 34.5753 57.8079 34.0145 57.8079 33.9858C58.1406 33.7064 58.4961 33.4554 58.8708 33.2355C59.8762 32.4975 60.827 31.6877 61.7156 30.8126C63.373 29.2023 63.4976 29.0305 63.4976 28.4831C63.5179 28.3187 63.4955 28.1518 63.4325 27.9985C63.3695 27.8452 63.2681 27.7108 63.138 27.6081C62.4348 27.0456 62.1063 27.2013 60.2308 28.9994C58.6501 30.5068 57.1788 31.6859 56.8504 31.6859C56.7881 31.6859 56.682 31.5452 56.6314 31.3574C56.3167 30.7507 55.9617 30.1658 55.5686 29.6066C53.8249 27.0739 51.5261 24.9727 48.8473 23.463C48.632 23.3767 48.4355 23.2494 48.2687 23.0882C48.2687 22.6351 50.0036 20.7125 54.3812 16.2886C59.9614 10.6461 60.1028 10.4423 59.9614 8.91039C59.9194 8.34549 59.75 7.79742 59.466 7.30731C59.182 6.81719 58.7907 6.39774 58.3215 6.08043C57.8522 5.76311 57.3172 5.55617 56.7566 5.47512C56.196 5.39408 55.6243 5.44104 55.0844 5.61247C54.553 5.76911 53.7091 6.51947 50.1451 10.0515C48.6264 11.6745 46.991 13.1844 45.2521 14.5689C44.4394 14.9125 35.5605 14.9125 34.7478 14.5849C34.1558 14.2376 33.6098 13.8175 33.1224 13.3343C32.7323 12.9273 32.2845 12.5797 31.7935 12.3026C31.601 12.3032 31.4112 12.3477 31.2386 12.4328C31.0659 12.518 30.915 12.6414 30.7974 12.7937C30.6797 12.9461 30.5984 13.1233 30.5597 13.3119C30.521 13.5004 30.5259 13.6953 30.574 13.8817C31.3803 14.9861 32.4012 15.9165 33.5755 16.617L34.4354 17.0701H45.5334L46.3932 16.617C47.0341 16.2886 48.3302 15.1011 51.4892 11.9742C55.2873 8.19119 55.7564 7.76925 56.2255 7.76925C56.5936 7.79702 56.9394 7.9558 57.2004 8.21678C57.4614 8.47776 57.6202 8.82363 57.6479 9.19166C57.6479 9.64475 57.1477 10.2073 52.5208 14.8662C48.988 18.4302 47.1748 20.3689 46.7099 21.1032C46.1473 21.9943 45.9755 22.1509 45.7094 22.0726C43.8597 21.4933 41.9247 21.2341 39.9877 21.3062C38.0508 21.2341 36.1158 21.4933 34.2661 22.0726C34 22.1509 33.8282 21.9943 33.2656 21.1032C32.7965 20.3689 30.9833 18.4302 27.4547 14.8662C22.8278 10.2082 22.3276 9.64475 22.3276 9.19166C22.3574 8.82557 22.5158 8.48185 22.7747 8.22136C23.0337 7.96086 23.3765 7.8004 23.7424 7.76841C24.1635 7.76841 24.4768 8.00252 25.7434 9.23798C27.5119 10.9728 27.885 11.1295 28.573 10.4574C28.8088 10.2344 28.9723 9.94572 29.0421 9.62876C29.0421 9.11251 26.1973 6.26768 25.212 5.79859C24.7758 5.58882 24.3017 5.46942 23.8181 5.44757C23.3346 5.42572 22.8516 5.50186 22.3983 5.67142ZM15.1102 27.4936C17.0479 29.531 19.1044 31.452 21.269 33.2464C21.9722 33.6675 22.16 33.8561 22.0976 34.1063C22.0665 34.2747 21.8787 35.0907 21.6766 35.9043C21.1607 38.5892 21.1607 41.3479 21.6766 44.0328C21.8795 44.8455 22.0673 45.6582 22.0976 45.8309C22.16 46.0835 21.973 46.2688 21.269 46.6907C19.1068 48.4822 17.0504 50.3977 15.1102 52.4275C10.389 57.1167 9.81131 57.633 9.35738 57.633C8.98935 57.6052 8.64346 57.4464 8.38248 57.1854C8.12151 56.9245 7.96273 56.5786 7.93497 56.2105C7.93497 55.7415 8.35605 55.2724 12.1399 51.4742C15.266 48.3169 16.4543 47.0192 16.7827 46.3783L17.2358 45.5184V34.4195L16.7827 33.5597C16.4543 32.9188 15.2668 31.6227 12.1399 28.4638C8.35689 24.6656 7.93497 24.1965 7.93497 23.7274C7.96273 23.3594 8.12151 23.0135 8.38248 22.7525C8.64346 22.4915 8.98935 22.3328 9.35738 22.305C9.81468 22.3042 10.3941 22.8196 15.1102 27.4936ZM39.533 23.8049C39.928 24.0267 40.2955 24.2944 40.6278 24.6024C42.4721 26.259 42.238 28.308 40.0341 30.042C39.0496 30.8083 38.7995 31.3709 39.1271 32.0118C39.2615 32.2523 39.4755 32.4385 39.7323 32.5384C39.9891 32.6383 40.2727 32.6457 40.5343 32.5592C41.1752 32.4026 43.0195 30.5431 43.5981 29.4642C44.0514 28.7544 44.2396 27.9074 44.1295 27.0725C44.2115 26.2922 44.0652 25.505 43.7084 24.8062C43.5461 24.5264 43.4201 24.227 43.3337 23.9152C44.5315 24.1942 45.7031 24.576 46.8354 25.0564C48.6279 25.9277 50.2608 27.095 51.6652 28.5092L52.9781 29.8222L52.2749 30.6037C50.071 33.0578 50.3683 37.6535 52.9158 40.436C53.5143 41.0326 54.1805 41.5572 54.9008 41.999C56.276 42.8117 56.276 42.8117 55.6983 44.6409C54.9141 47.2483 53.4964 49.6208 51.5717 51.5466C50.5241 52.5783 47.7104 54.6576 47.5858 54.4858C47.5697 54.4546 47.4611 54.1262 47.3668 53.7666C47.0478 52.844 46.446 52.0454 45.6471 51.4843C45.224 51.2292 44.7511 51.0679 44.2603 51.0113C43.7696 50.9546 43.2723 51.0039 42.8023 51.1559C41.3487 51.4683 40.4105 51.3748 39.8791 50.8897C39.4589 50.4267 39.0773 49.9302 38.738 49.405C38.1292 48.3454 37.1985 47.5076 36.0809 47.0133C35.3285 46.6497 34.4879 46.5086 33.658 46.6065C32.7549 46.4918 31.8389 46.673 31.0473 47.1228C29.8308 47.7203 28.8615 48.7242 28.3069 49.9608C28.1685 50.2822 28.0119 50.5955 27.8378 50.899C27.6694 51.1517 25.5244 47.8672 24.8987 46.3968C24.3284 45.0299 23.9344 43.596 23.7264 42.1295C23.7264 41.7228 23.7576 41.7085 24.2426 41.8171C24.8225 41.8993 25.4079 41.9359 25.9935 41.9266C26.5739 41.9789 27.1582 41.888 27.6952 41.6617C28.2322 41.4354 28.7054 41.0807 29.0733 40.6288C29.8077 39.8161 30.0889 38.9091 30.3551 36.4399C30.7147 33.0788 31.1054 32.7041 33.5755 33.2355C35.0139 33.5479 35.4198 33.5016 35.8266 32.907C36.4515 32.032 35.8889 31.344 34.2476 30.97C31.8718 30.4386 30.6835 30.6576 29.4641 31.8122C28.6514 32.5937 28.2918 33.6877 28.0105 36.1915C27.7578 38.4577 27.5262 39.1146 26.8382 39.4582C26.0337 39.7255 25.1618 39.7089 24.3681 39.411L23.5554 39.1769L23.6489 38.2859C24.0855 34.4656 25.8314 30.9144 28.5899 28.2357C31.3485 25.5569 34.9495 23.916 38.7809 23.5918C39.0451 23.6013 39.3031 23.6743 39.533 23.8049ZM54.8183 32.9651C55.0524 33.5125 55.3968 34.4035 55.5846 34.9661C56.1784 36.7481 56.6323 40.1244 56.2878 40.1244C55.98 39.9775 55.6913 39.7937 55.428 39.577C53.2384 37.9668 52.4425 34.465 53.8026 32.3865C53.9433 32.1676 54.1311 31.9958 54.2237 31.9958C54.484 32.2764 54.6861 32.6059 54.8183 32.9651ZM35.3727 49.2871C36.0479 49.7433 36.6094 50.3483 37.0141 51.0556C38.7649 53.5257 40.2808 54.1506 43.017 53.5097C44.2205 53.2284 44.5961 53.3691 45.002 54.2752C45.4551 55.2917 45.3616 55.4636 44.3139 55.7912C42.0939 56.3835 39.7751 56.5088 37.5041 56.159C35.2332 55.8092 33.0595 54.992 31.1206 53.759C29.886 52.9463 29.8388 52.8992 29.9323 52.4301C30.0296 51.7724 30.2688 51.1437 30.6332 50.5877C30.9976 50.0316 31.4786 49.5614 32.0428 49.2096C32.5736 48.9942 33.143 48.8899 33.7158 48.9032C34.2885 48.9165 34.8524 49.0472 35.3727 49.2871Z" fill="#8D2813"/>
<path d="M43.6604 36.5293C43.2761 36.8192 42.9343 37.1614 42.6447 37.5458C42.0306 38.3926 41.1213 38.9783 40.0963 39.1872C39.3655 39.3752 38.7267 39.8196 38.2963 40.4394C37.8658 41.0592 37.6726 41.813 37.7517 42.5634C37.7357 45.2205 40.0812 46.3616 43.6764 45.4394C46.2247 44.7826 48.4127 43.3601 49.0662 41.9226C49.2546 41.4629 49.349 40.9701 49.3436 40.4734C49.3383 39.9767 49.2334 39.486 49.0351 39.0306C48.5097 37.9999 47.6886 37.1495 46.677 36.5883C46.2123 36.3481 45.6986 36.2179 45.1755 36.2077C44.6525 36.1975 44.1341 36.3075 43.6604 36.5293ZM46.3334 39.2495C47.1932 40.0917 47.2404 40.6408 46.5523 41.4223C45.6773 42.4388 43.0995 43.4073 41.3309 43.4073C40.5806 43.4073 40.4239 43.3601 40.2058 43.0165C40.1072 42.8887 40.0474 42.7353 40.0335 42.5745C40.0196 42.4137 40.0522 42.2523 40.1275 42.1095C40.2841 41.6253 40.4248 41.5309 41.3309 41.2345C42.4852 40.8943 43.5097 40.2133 44.2701 39.2807C45.0356 38.3425 45.4264 38.3265 46.3334 39.2495Z" fill="#484A53"/>
<path d="M68.4845 34.0283C67.5312 34.6068 67.5 34.7626 67.5 40.0001C67.5 44.4239 67.516 44.7675 67.8124 45.2366C68.391 46.19 68.5468 46.2211 73.7522 46.2211C78.9577 46.2211 79.1143 46.19 79.692 45.2366C79.9893 44.7675 80.0045 44.4239 80.0045 40.0001C80.0045 34.7635 79.9733 34.6102 79.02 34.0283C78.5509 33.731 78.2073 33.7158 73.7522 33.7158C69.2972 33.7158 68.9536 33.7318 68.4845 34.0283ZM77.6641 39.9681V43.8757H69.8479V36.0596H77.6641V39.9681Z" fill="#8D2813"/>
<path d="M6.53128 35.7478C0.200725 38.655 0.513169 38.4832 0.200726 39.124C0.0236204 39.4661 -0.0385972 39.856 0.0232919 40.2361C0.085181 40.6163 0.267884 40.9663 0.544329 41.2345C2.14035 42.1652 3.79566 42.9904 5.49962 43.7046C10.6267 46.034 10.8617 46.0803 11.8159 45.2205L12.3944 44.6891V35.2476L11.8159 34.7162C10.8768 33.8715 10.4701 33.9498 6.53128 35.7478ZM10.1265 39.9527V43.2195L6.6096 41.6269C4.67262 40.7671 3.09272 40.0167 3.09272 39.9704C3.09272 39.9241 9.25147 37.0473 10.0962 36.7036C10.1113 36.6851 10.1265 38.1547 10.1265 39.9527Z" fill="#8D2813"/>
<path d="M36.4388 67.7135C35.0911 69.6053 33.924 71.6197 32.9531 73.7299C33.9239 75.8407 35.091 77.8556 36.4388 79.748C36.9231 80.0916 43.0515 80.0916 43.5358 79.748C44.8836 77.8556 46.0507 75.8407 47.0215 73.7299C46.0507 71.6191 44.8836 69.6042 43.5358 67.7118C43.0515 67.3699 36.9239 67.3699 36.4388 67.7135ZM43.3791 71.7778L44.5043 73.7316L43.3791 75.6854L42.254 77.6392H37.7206L36.5955 75.6854L35.4704 73.7316L36.5955 71.7778L37.7206 69.8239H42.254L43.3791 71.7778Z" fill="#8D2813"/>
<path d="M23.5259 30.8995C22.0172 33.6664 21.2266 36.7675 21.2266 39.919C21.2266 43.0706 22.0172 46.1717 23.5259 48.9386C25.0121 51.5708 27.0875 53.8232 29.5895 55.5193C30.1497 55.9062 30.7346 56.2562 31.3404 56.5669C31.5088 56.6293 31.6528 56.7236 31.6528 56.7859C31.6528 57.0832 33.9191 57.7392 33.9511 57.7392C33.9831 57.7392 34.5448 57.8799 35.2143 58.0517C38.307 58.8801 41.5632 58.8801 44.6558 58.0517C45.3296 57.8832 45.8904 57.7392 45.9191 57.7392C45.9477 57.7392 48.1407 56.7994 48.2173 56.7859C48.2173 56.7236 48.358 56.6293 48.5298 56.5669C50.2288 55.6545 51.7872 54.5015 53.1566 53.1435C54.5146 51.7741 55.6676 50.2158 56.58 48.5167C56.6423 48.3483 56.7367 48.2043 56.799 48.2043C57.2681 48.2043 57.7523 45.938 57.7523 45.906C57.7523 45.874 57.893 45.3123 58.0648 44.6427C58.4756 43.1025 58.6857 41.5157 58.6897 39.9216C58.6856 38.3275 58.4756 36.7406 58.0648 35.2004C57.8963 34.5267 57.7523 33.9658 57.7523 33.9371C57.7523 33.9085 57.1274 31.6389 56.799 31.6389C56.7367 31.6389 56.6306 31.4982 56.58 31.3104C56.2653 30.7037 55.9103 30.1188 55.5172 29.5596C53.7735 27.0269 51.4746 24.9257 48.7959 23.416C48.4835 23.2593 45.9199 22.1031 45.6538 22.0247C43.8044 21.4455 41.8696 21.1863 39.933 21.2584C37.996 21.1863 36.061 21.4454 34.2113 22.0247C33.9519 22.0972 26.8095 24.5352 23.5259 30.8995ZM39.4841 23.7562C39.8792 23.978 40.2466 24.2457 40.5789 24.5538C42.4232 26.2111 42.1891 28.2593 39.9852 29.9933C39.0007 30.7597 38.7506 31.3222 39.0782 31.9631C39.2126 32.2037 39.4266 32.3899 39.6834 32.4898C39.9402 32.5897 40.2238 32.597 40.4854 32.5105C41.1263 32.3539 42.9706 30.4944 43.5492 29.4156C44.0025 28.7058 44.1907 27.8588 44.0806 27.0238C44.1626 26.2436 44.0164 25.4563 43.6595 24.7576C43.4972 24.4777 43.3712 24.1783 43.2848 23.8665C44.4827 24.1455 45.6542 24.5273 46.7865 25.0077C48.5791 25.879 50.2119 27.0463 51.6163 28.4606L52.9292 29.7735L52.226 30.555C50.0221 33.0091 50.3185 37.6048 52.8669 40.3873C53.4654 40.9839 54.1316 41.5085 54.8519 41.9504C56.2272 42.763 56.2272 42.763 55.6494 44.5922C54.8653 47.1996 53.4475 49.5721 51.5228 51.4979C50.4752 52.5296 47.6615 54.6089 47.5369 54.4371C47.5209 54.406 47.4122 54.0775 47.3179 53.7179C46.9989 52.7953 46.3971 51.9967 45.5982 51.4356C45.1751 51.1806 44.7022 51.0192 44.2114 50.9626C43.7207 50.9059 43.2235 50.9552 42.7534 51.1072C41.2998 51.4196 40.3616 51.3261 39.8302 50.8411C39.41 50.3781 39.0284 49.8815 38.6891 49.3563C38.0803 48.2968 37.1496 47.4589 36.0321 46.9646C35.2797 46.601 34.439 46.4599 33.6092 46.5578C32.706 46.4431 31.79 46.6243 30.9984 47.0741C29.7853 47.6704 28.818 48.6711 28.2631 49.9038C28.1247 50.2251 27.9681 50.5384 27.794 50.8419C27.6256 51.0946 25.4806 47.8101 24.8548 46.3397C24.2845 44.9728 23.8906 43.5389 23.6826 42.0725C23.6826 41.6657 23.7137 41.6514 24.1988 41.76C24.7787 41.8422 25.3641 41.8788 25.9497 41.8695C26.53 41.9218 27.1144 41.8309 27.6514 41.6046C28.1884 41.3783 28.6616 41.0236 29.0295 40.5717C29.7638 39.759 30.0451 38.852 30.3112 36.3828C30.6708 33.0217 31.0616 32.6469 33.5317 33.1784C34.9701 33.4908 35.376 33.4445 35.7828 32.8499C36.4077 31.9749 35.8451 31.2869 34.2037 30.9129C31.828 30.3815 30.6397 30.6005 29.4202 31.7551C28.6075 32.5366 28.2479 33.6306 27.9667 36.1344C27.714 38.4006 27.4824 39.0575 26.7944 39.4011C25.9899 39.6684 25.118 39.6518 24.3243 39.354L23.5116 39.1198L23.6051 38.2288C24.0416 34.4085 25.7875 30.8573 28.5461 28.1785C31.3046 25.4998 34.9056 23.8589 38.7371 23.5347C39.0003 23.5475 39.2565 23.6235 39.4841 23.7562ZM54.7719 32.9164C55.006 33.4638 55.3505 34.3549 55.5383 34.9174C56.132 36.6994 56.5859 40.0757 56.2415 40.0757C55.9337 39.9289 55.6449 39.745 55.3816 39.5283C53.192 37.9181 52.3962 34.4163 53.7563 32.3379C53.8969 32.1189 54.0847 31.9471 54.1773 31.9471C54.4383 32.2276 54.6409 32.5571 54.7736 32.9164H54.7719ZM35.3263 49.2359C36.0015 49.6921 36.5631 50.2971 36.9677 51.0044C38.7186 53.4745 40.2345 54.0994 42.9706 53.4585C44.1741 53.1772 44.5497 53.3179 44.9556 54.2249C45.4087 55.2405 45.3152 55.4132 44.2676 55.7408C42.0475 56.3332 39.7287 56.4584 37.4577 56.1086C35.1868 55.7589 33.0131 54.9416 31.0742 53.7086C29.8396 52.8959 29.7925 52.8488 29.8859 52.3797C29.9833 51.722 30.2224 51.0934 30.5869 50.5373C30.9513 49.9812 31.4322 49.511 31.9964 49.1593C32.5274 48.9434 33.0971 48.8388 33.6702 48.852C34.2432 48.8652 34.8075 48.9959 35.328 49.2359H35.3263Z" fill="#484A53"/>
</svg>
