<svg width="80" height="91" viewBox="0 0 80 91" fill="none" xmlns="http://www.w3.org/2000/svg">
<path d="M78.5757 88.3368H77.6806V79.5672C77.6806 79.2136 77.5401 78.8745 77.2901 78.6246C77.0401 78.3746 76.7011 78.2341 76.3475 78.2341C75.994 78.2341 75.6549 78.3746 75.4049 78.6246C75.1549 78.8745 75.0145 79.2136 75.0145 79.5672V88.3368H48.9092V57.2994L75.0145 65.7785V73.3474C75.0145 73.7009 75.1549 74.04 75.4049 74.29C75.6549 74.54 75.994 74.6804 76.3475 74.6804C76.7011 74.6804 77.0401 74.54 77.2901 74.29C77.5401 74.04 77.6806 73.7009 77.6806 73.3474V64.8101C77.6806 64.5285 77.5915 64.2541 77.426 64.0263C77.2605 63.7985 77.0271 63.6289 76.7593 63.5419L49.7083 54.7562C49.4523 54.6601 49.1825 54.6058 48.9092 54.5954V22.1642C48.9085 21.4984 48.6437 20.8601 48.1729 20.3893C47.7022 19.9185 47.0638 19.6537 46.398 19.6531H43.4465V14.0438C43.4458 13.4361 43.2041 12.8534 42.7743 12.4237C42.3446 11.994 41.762 11.7522 41.1542 11.7516H34.5235V1.33305C34.5235 1.15799 34.489 0.984649 34.422 0.822916C34.355 0.661182 34.2568 0.514227 34.1331 0.390442C34.0093 0.266657 33.8623 0.168465 33.7006 0.101473C33.5389 0.0344804 33.3655 0 33.1905 0C33.0154 0 32.8421 0.0344804 32.6803 0.101473C32.5186 0.168465 32.3716 0.266657 32.2478 0.390442C32.1241 0.514227 32.0259 0.661182 31.9589 0.822916C31.8919 0.984649 31.8574 1.15799 31.8574 1.33305V11.7516H25.3378C24.7006 11.7522 24.0897 12.0057 23.6391 12.4562C23.1885 12.9068 22.9351 13.5177 22.9345 14.1549V19.6539H20.0267C19.3493 19.6548 18.7 19.9243 18.221 20.4032C17.7421 20.8822 17.4726 21.5315 17.4717 22.2088V34.6467H5.55256C4.8986 34.6474 4.27162 34.9075 3.8092 35.3699C3.34678 35.8323 3.0867 36.4593 3.08603 37.1133V88.3368H1.37993C1.02638 88.3368 0.687313 88.4773 0.437317 88.7273C0.187321 88.9773 0.046875 89.3163 0.046875 89.6699C0.046875 90.0234 0.187321 90.3625 0.437317 90.6125C0.687313 90.8625 1.02638 91.0029 1.37993 91.0029H78.5757C78.9293 91.0029 79.2683 90.8625 79.5183 90.6125C79.7683 90.3625 79.9088 90.0234 79.9088 89.6699C79.9088 89.3163 79.7683 88.9773 79.5183 88.7273C79.2683 88.4773 78.9293 88.3368 78.5757 88.3368ZM17.4717 88.3368H5.75214V37.3137H17.4717V88.3368ZM40.7795 14.4177V19.6531H25.6014V14.4177H40.7795ZM46.2431 57.1461V88.3368H20.1378V22.3158H46.2431V57.1461Z" fill="#484A53"/>
<path d="M1.29642 90.9835C0.952589 90.9835 0.622839 90.8469 0.379713 90.6037C0.136587 90.3606 0 90.0309 0 89.687C0 89.3432 0.136587 89.0134 0.379713 88.7703C0.622839 88.5272 0.952589 88.3906 1.29642 88.3906L78.7036 88.3232C79.0474 88.3232 79.3772 88.4598 79.6203 88.703C79.8634 88.9461 80 89.2758 80 89.6197C80 89.9635 79.8634 90.2932 79.6203 90.5364C79.3772 90.7795 79.0474 90.9161 78.7036 90.9161L1.29642 90.9835Z" fill="#8D2813"/>
<path d="M13.9134 43.1084H9.59087C9.23732 43.1084 8.89825 43.2488 8.64826 43.4988C8.39826 43.7488 8.25781 44.0879 8.25781 44.4415C8.25781 44.795 8.39826 45.1341 8.64826 45.3841C8.89825 45.6341 9.23732 45.7745 9.59087 45.7745H13.9134C14.2669 45.7745 14.606 45.6341 14.856 45.3841C15.106 45.1341 15.2464 44.795 15.2464 44.4415C15.2464 44.0879 15.106 43.7488 14.856 43.4988C14.606 43.2488 14.2669 43.1084 13.9134 43.1084Z" fill="#484A53"/>
<path d="M13.9134 49.5112H9.59087C9.23732 49.5112 8.89825 49.6517 8.64826 49.9017C8.39826 50.1517 8.25781 50.4907 8.25781 50.8443C8.25781 51.1978 8.39826 51.5369 8.64826 51.7869C8.89825 52.0369 9.23732 52.1773 9.59087 52.1773H13.9134C14.2669 52.1773 14.606 52.0369 14.856 51.7869C15.106 51.5369 15.2464 51.1978 15.2464 50.8443C15.2464 50.4907 15.106 50.1517 14.856 49.9017C14.606 49.6517 14.2669 49.5112 13.9134 49.5112Z" fill="#484A53"/>
<path d="M13.9134 55.9141H9.59087C9.23732 55.9141 8.89825 56.0545 8.64826 56.3045C8.39826 56.5545 8.25781 56.8936 8.25781 57.2471C8.25781 57.6007 8.39826 57.9397 8.64826 58.1897C8.89825 58.4397 9.23732 58.5802 9.59087 58.5802H13.9134C14.2669 58.5802 14.606 58.4397 14.856 58.1897C15.106 57.9397 15.2464 57.6007 15.2464 57.2471C15.2464 56.8936 15.106 56.5545 14.856 56.3045C14.606 56.0545 14.2669 55.9141 13.9134 55.9141Z" fill="#484A53"/>
<path d="M13.9134 62.3208H9.59087C9.23732 62.3208 8.89825 62.4613 8.64826 62.7112C8.39826 62.9612 8.25781 63.3003 8.25781 63.6539C8.25781 64.0074 8.39826 64.3465 8.64826 64.5964C8.89825 64.8464 9.23732 64.9869 9.59087 64.9869H13.9134C14.2669 64.9869 14.606 64.8464 14.856 64.5964C15.106 64.3465 15.2464 64.0074 15.2464 63.6539C15.2464 63.3003 15.106 62.9612 14.856 62.7112C14.606 62.4613 14.2669 62.3208 13.9134 62.3208Z" fill="#484A53"/>
<path d="M13.9134 68.7197H9.59087C9.23732 68.7197 8.89825 68.8602 8.64826 69.1102C8.39826 69.3602 8.25781 69.6992 8.25781 70.0528C8.25781 70.4063 8.39826 70.7454 8.64826 70.9954C8.89825 71.2454 9.23732 71.3858 9.59087 71.3858H13.9134C14.2669 71.3858 14.606 71.2454 14.856 70.9954C15.106 70.7454 15.2464 70.4063 15.2464 70.0528C15.2464 69.6992 15.106 69.3602 14.856 69.1102C14.606 68.8602 14.2669 68.7197 13.9134 68.7197Z" fill="#484A53"/>
<path d="M13.9134 75.123H9.59087C9.23732 75.123 8.89825 75.2635 8.64826 75.5135C8.39826 75.7635 8.25781 76.1026 8.25781 76.4561C8.25781 76.8097 8.39826 77.1487 8.64826 77.3987C8.89825 77.6487 9.23732 77.7891 9.59087 77.7891H13.9134C14.2669 77.7891 14.606 77.6487 14.856 77.3987C15.106 77.1487 15.2464 76.8097 15.2464 76.4561C15.2464 76.1026 15.106 75.7635 14.856 75.5135C14.606 75.2635 14.2669 75.123 13.9134 75.123Z" fill="#484A53"/>
<path d="M13.9134 81.5264H9.59087C9.23732 81.5264 8.89825 81.6668 8.64826 81.9168C8.39826 82.1668 8.25781 82.5059 8.25781 82.8594C8.25781 83.213 8.39826 83.552 8.64826 83.802C8.89825 84.052 9.23732 84.1925 9.59087 84.1925H13.9134C14.2669 84.1925 14.606 84.052 14.856 83.802C15.106 83.552 15.2464 83.213 15.2464 82.8594C15.2464 82.5059 15.106 82.1668 14.856 81.9168C14.606 81.6668 14.2669 81.5264 13.9134 81.5264Z" fill="#484A53"/>
<path d="M69.8065 68.7197H53.7627C53.4092 68.7197 53.0701 68.8602 52.8201 69.1102C52.5701 69.3602 52.4297 69.6992 52.4297 70.0528C52.4297 70.4063 52.5701 70.7454 52.8201 70.9954C53.0701 71.2454 53.4092 71.3858 53.7627 71.3858H69.8065C70.1601 71.3858 70.4992 71.2454 70.7492 70.9954C70.9991 70.7454 71.1396 70.4063 71.1396 70.0528C71.1396 69.6992 70.9991 69.3602 70.7492 69.1102C70.4992 68.8602 70.1601 68.7197 69.8065 68.7197Z" fill="#484A53"/>
<path d="M69.8065 75.123H53.7627C53.4092 75.123 53.0701 75.2635 52.8201 75.5135C52.5701 75.7635 52.4297 76.1026 52.4297 76.4561C52.4297 76.8097 52.5701 77.1487 52.8201 77.3987C53.0701 77.6487 53.4092 77.7891 53.7627 77.7891H69.8065C70.1601 77.7891 70.4992 77.6487 70.7492 77.3987C70.9991 77.1487 71.1396 76.8097 71.1396 76.4561C71.1396 76.1026 70.9991 75.7635 70.7492 75.5135C70.4992 75.2635 70.1601 75.123 69.8065 75.123Z" fill="#484A53"/>
<path d="M69.8065 81.5264H53.7627C53.4092 81.5264 53.0701 81.6668 52.8201 81.9168C52.5701 82.1668 52.4297 82.5059 52.4297 82.8594C52.4297 83.213 52.5701 83.552 52.8201 83.802C53.0701 84.052 53.4092 84.1925 53.7627 84.1925H69.8065C70.1601 84.1925 70.4992 84.052 70.7492 83.802C70.9991 83.552 71.1396 83.213 71.1396 82.8594C71.1396 82.5059 70.9991 82.1668 70.7492 81.9168C70.4992 81.6668 70.1601 81.5264 69.8065 81.5264Z" fill="#484A53"/>
<path d="M42.1034 35.5469H24.2862C23.9326 35.5469 23.5936 35.6873 23.3436 35.9373C23.0936 36.1873 22.9531 36.5264 22.9531 36.8799V41.7919C22.9531 42.1455 23.0936 42.4845 23.3436 42.7345C23.5936 42.9845 23.9326 43.125 24.2862 43.125H42.1034C42.457 43.125 42.796 42.9845 43.046 42.7345C43.296 42.4845 43.4365 42.1455 43.4365 41.7919V36.8783C43.436 36.525 43.2954 36.1864 43.0454 35.9367C42.7955 35.6871 42.4567 35.5469 42.1034 35.5469ZM40.7704 40.4606H25.6192V38.213H40.7695L40.7704 40.4606Z" fill="#484A53"/>
<path d="M42.1034 45.7837H24.2862C23.9326 45.7837 23.5936 45.9241 23.3436 46.1741C23.0936 46.4241 22.9531 46.7632 22.9531 47.1167V52.0304C22.9531 52.384 23.0936 52.723 23.3436 52.973C23.5936 53.223 23.9326 53.3635 24.2862 53.3635H42.1034C42.457 53.3635 42.796 53.223 43.046 52.973C43.296 52.723 43.4365 52.384 43.4365 52.0304V47.1167C43.4365 46.7632 43.296 46.4241 43.046 46.1741C42.796 45.9241 42.457 45.7837 42.1034 45.7837ZM40.7704 50.6965H25.6192V48.4498H40.7695L40.7704 50.6965Z" fill="#484A53"/>
<path d="M42.1034 56.019H24.2862C23.9326 56.019 23.5936 56.1595 23.3436 56.4095C23.0936 56.6595 22.9531 56.9986 22.9531 57.3521V62.2658C22.9531 62.6193 23.0936 62.9584 23.3436 63.2084C23.5936 63.4584 23.9326 63.5988 24.2862 63.5988H42.1034C42.457 63.5988 42.796 63.4584 43.046 63.2084C43.296 62.9584 43.4365 62.6193 43.4365 62.2658V57.3521C43.4365 56.9986 43.296 56.6595 43.046 56.4095C42.796 56.1595 42.457 56.019 42.1034 56.019ZM40.7695 60.9336H25.6192V58.6868H40.7695V60.9336Z" fill="#484A53"/>
<path d="M42.1034 66.2559H24.2862C23.9326 66.2559 23.5936 66.3963 23.3436 66.6463C23.0936 66.8963 22.9531 67.2354 22.9531 67.5889V72.5026C22.9531 72.8561 23.0936 73.1952 23.3436 73.4452C23.5936 73.6952 23.9326 73.8357 24.2862 73.8357H42.1034C42.457 73.8357 42.796 73.6952 43.046 73.4452C43.296 73.1952 43.4365 72.8561 43.4365 72.5026V67.5889C43.4365 67.2354 43.296 66.8963 43.046 66.6463C42.796 66.3963 42.457 66.2559 42.1034 66.2559ZM40.7704 71.1687H25.6192V68.922H40.7695L40.7704 71.1687Z" fill="#484A53"/>
<path d="M42.1034 76.4927H24.2862C23.9326 76.4927 23.5936 76.6331 23.3436 76.8831C23.0936 77.1331 22.9531 77.4722 22.9531 77.8257V82.7386C22.9531 82.9136 22.9876 83.087 23.0546 83.2487C23.1216 83.4104 23.2198 83.5574 23.3436 83.6812C23.4673 83.805 23.6143 83.9031 23.776 83.9701C23.9378 84.0371 24.1111 84.0716 24.2862 84.0716H42.1034C42.2785 84.0716 42.4518 84.0371 42.6136 83.9701C42.7753 83.9031 42.9223 83.805 43.046 83.6812C43.1698 83.5574 43.268 83.4104 43.335 83.2487C43.402 83.087 43.4365 82.9136 43.4365 82.7386V77.8257C43.4365 77.4722 43.296 77.1331 43.046 76.8831C42.796 76.6331 42.457 76.4927 42.1034 76.4927ZM40.7704 81.4064H25.6192V79.1596H40.7695L40.7704 81.4064Z" fill="#484A53"/>
<path d="M42.1051 25.3101H36.3072C35.9537 25.3101 35.6146 25.4505 35.3646 25.7005C35.1146 25.9505 34.9742 26.2896 34.9742 26.6431C34.9742 26.9967 35.1146 27.3357 35.3646 27.5857C35.6146 27.8357 35.9537 27.9762 36.3072 27.9762H40.7704V30.2229H25.6209V27.9762H30.0841C30.4376 27.9762 30.7767 27.8357 31.0267 27.5857C31.2767 27.3357 31.4171 26.9967 31.4171 26.6431C31.4171 26.2896 31.2767 25.9505 31.0267 25.7005C30.7767 25.4505 30.4376 25.3101 30.0841 25.3101H24.2862C23.9326 25.3101 23.5936 25.4505 23.3436 25.7005C23.0936 25.9505 22.9531 26.2896 22.9531 26.6431V31.5568C22.9531 31.9103 23.0936 32.2494 23.3436 32.4994C23.5936 32.7494 23.9326 32.8899 24.2862 32.8899H42.1034C42.457 32.8899 42.7961 32.7494 43.0461 32.4994C43.2961 32.2494 43.4365 31.9103 43.4365 31.5568V26.6431C43.4365 26.2899 43.2963 25.951 43.0466 25.7011C42.797 25.4511 42.4584 25.3105 42.1051 25.3101Z" fill="#484A53"/>
</svg>
