<svg width="80" height="80" viewBox="0 0 80 80" fill="none" xmlns="http://www.w3.org/2000/svg">
<path d="M20.0748 10.795C9.34267 16.7165 0.421654 21.7112 0.281103 21.8871C0.0159977 22.1991 0 23.8092 0 50.6488V79.0824L0.457078 79.5395L0.914155 79.9966H4.67133C8.40566 79.9966 8.42051 79.9966 8.85816 79.6218L9.29581 79.247L9.34266 60.9524L9.37352 42.6579H70.6185L70.6493 60.9524L70.6962 79.247L71.1338 79.6218C71.5715 79.9966 71.5909 79.9966 75.3207 79.9966H79.0858L79.5429 79.5395L80 79.0824V23.5909L79.5783 23.1338C78.9601 22.5111 40.4514 0 39.9783 0C39.776 0.0159977 30.8242 4.85872 20.0748 10.795ZM58.8042 13.9043L77.333 24.7599V77.3307H73.2707V30.1374L72.8799 29.7626L72.5051 29.3718H7.4835L7.1087 29.7626L6.7179 30.1374V77.3307H2.65562L2.68647 50.3631L2.73332 23.4138L21.245 13.181C31.4309 7.55664 39.8834 2.97901 40.024 3.01101C40.1645 3.043 48.6182 7.93601 58.8042 13.9043ZM70.6185 33.3541V34.6819H9.37009V32.0263H70.6185V33.3541ZM70.6185 38.6653V39.9943H9.37009V37.3387H70.6185V38.6653Z" fill="#484A53"/>
<path d="M33.0073 18.7013C32.7395 18.7827 32.5044 18.9467 32.3354 19.1698C32.0383 19.5446 32.0234 19.7948 32.0234 22.6698C32.0234 25.7163 32.0234 25.7631 32.3982 26.2008L32.7731 26.6384H47.2087L47.5835 26.2008C47.9583 25.7631 47.9583 25.7163 47.9583 22.6584C47.9583 19.6006 47.9583 19.5492 47.5835 19.1161L47.2087 18.6784L40.2725 18.6624C36.4799 18.6384 33.1947 18.6544 33.0073 18.7013ZM45.3027 22.7316V24.0594H34.6756V21.4037H45.3027V22.7316Z" fill="#484A53"/>
<path d="M50.068 45.4943C49.8844 45.601 49.7249 45.7445 49.5995 45.916C49.5058 46.0725 49.4121 49.1029 49.3653 53.7434L49.2876 61.3206L41.6944 61.3675L34.1012 61.3983L33.7264 61.804L33.3516 62.2096V79.2358L33.7892 79.6106L34.2269 79.9854H50.5525C67.3935 79.9854 67.285 79.9854 67.7535 79.3763C67.9101 79.1889 67.9409 75.346 67.9569 62.629V46.1319L67.5512 45.7571L67.1456 45.3823L58.7719 45.3515C52.6928 45.3217 50.2863 45.3537 50.068 45.4943ZM54.6765 50.2285C54.6765 52.4465 54.6925 52.5253 55.0673 52.8841C55.4421 53.2749 55.4581 53.2749 58.6611 53.2749H61.8789L62.2537 52.8692C62.6285 52.4636 62.6445 52.3699 62.6445 50.2136V47.9637H65.3001V61.2429H52.0209V47.9637H54.6765V50.2285ZM59.9878 49.2915V50.6193H57.3321V47.9637H59.9878V49.2915ZM38.5851 65.8777C38.5851 68.2362 38.7416 68.8487 39.4444 69.1424C41.5629 69.4548 43.7158 69.4548 45.8343 69.1424C46.5531 68.8453 46.7097 68.283 46.7097 65.9862V64.0436H49.3653L49.3344 70.637L49.2876 77.2452L42.6165 77.292L35.9295 77.3229V64.0494H38.5851V65.8777ZM44.022 65.3303L43.9752 66.6273L42.6942 66.6741L41.3973 66.721V64.0494H44.0689L44.022 65.3303ZM54.6765 66.2205C54.6765 68.2979 54.6925 68.4236 55.0513 68.8487L55.4261 69.2863H61.8938L62.2686 68.8487C62.6274 68.427 62.6434 68.3013 62.6434 66.2205V64.0494H65.299V77.3286H52.0209V64.0494H54.6765V66.2205ZM59.9878 65.3772V66.705H57.3321V64.0494H59.9878V65.3772Z" fill="#8D2813"/>
</svg>
