<svg width="80" height="86" viewBox="0 0 80 86" fill="none" xmlns="http://www.w3.org/2000/svg">
<path d="M60.7849 0.161365C60.5107 0.321034 60.2984 0.568599 60.1824 0.863974C60.0147 1.28248 59.8144 7.19025 59.3292 24.5969C58.8944 40.4297 58.6428 47.8437 58.5093 47.9772C58.3415 48.145 54.4253 50.3709 54.2918 50.3709C54.2584 50.3709 54.2251 47.5749 54.2251 44.1782V37.9683L53.8066 37.5669C53.5748 37.32 53.2579 37.1704 52.9199 37.1484C52.6019 37.1484 48.4848 39.3465 40.5687 43.7425L28.7027 50.3367L28.6188 44.1439L28.5349 37.952L28.0659 37.5498C27.8107 37.331 27.4972 37.1915 27.1639 37.1484C26.6282 37.1484 0.904653 51.3911 0.385131 51.9764L0 52.3949V84.7135L0.485248 85.1987L0.970495 85.6849H79.0295L79.5147 85.1987L80 84.7135V38.1189L79.5147 37.6327C79.2668 37.369 78.9361 37.1978 78.5776 37.1475C77.6915 37.4269 76.8433 37.8147 76.0522 38.302C74.9139 38.9379 73.9777 39.4565 73.9597 39.4403C73.9597 39.4231 73.7089 30.7707 73.3905 20.2288C72.972 5.601 72.788 0.964995 72.6203 0.697116C72.4605 0.481387 72.2547 0.303934 72.0178 0.177605C68.2772 -0.0536519 64.5261 -0.0590783 60.7849 0.161365ZM70.0236 3.10712C70.1017 3.57702 70.1353 4.05326 70.1237 4.52948V5.68397H62.7557V2.83924H66.3373C69.4508 2.83924 69.9361 2.87261 70.019 3.10712H70.0236ZM70.1913 9.06539C70.342 10.1026 71.1284 41.0845 70.995 41.1323C70.9282 41.1494 68.8023 42.3211 66.2751 43.7479C62.1577 46.0407 61.6751 46.2734 61.6219 45.9568C61.6048 45.7557 61.8023 37.7392 62.0909 28.1154C62.3615 18.4916 62.5933 10.1567 62.5933 9.57136V8.53413H70.1083L70.1913 9.06539ZM26.253 53.903C26.5074 54.0886 26.8091 54.1987 27.1233 54.2205C27.4417 54.2205 31.6087 51.9944 39.4412 47.6434L51.291 41.0493L51.3749 47.2087L51.4588 53.351L51.8601 53.7857C51.9751 53.9182 52.1163 54.0252 52.2748 54.1C52.4334 54.1749 52.6058 54.2159 52.781 54.2205C53.149 54.2205 56.4294 52.4797 64.0112 48.2622C69.9027 44.9989 75.2747 42.0198 75.9439 41.6509L77.1489 40.9817V82.8401H52.8983L52.8478 78.2402C52.7973 73.7214 52.7973 73.6403 52.413 73.2696L52.0279 72.8844H27.9604L27.5752 73.2696C27.1901 73.6376 27.1901 73.7205 27.1405 78.2402L27.09 82.8401H2.83933L2.8727 68.2457L2.92321 53.6522L14.304 47.3251L25.6847 40.9988L25.7686 47.2917L25.8525 53.5846L26.253 53.903ZM38.487 79.2414V82.8401H29.9519V75.6399H38.4879L38.487 79.2414ZM50.0319 79.2414V82.8401H41.5004V75.6399H50.0364L50.0319 79.2414Z" fill="#484A53"/>
<path d="M52.6979 82.8402C52.6474 78.3215 52.7881 73.635 52.4012 73.267L52.0161 72.8818H27.9485L27.5634 73.267C27.1782 73.635 27.1782 73.7179 27.1286 78.2376L27.0781 82.8375L52.6979 82.8402ZM38.476 79.2415V82.8402H29.94V75.64H38.476V79.2415ZM50.0209 79.2415V82.8402H41.4885V75.64H50.0246L50.0209 79.2415Z" fill="#8D2813"/>
<path d="M8.19227 57.1819C7.96597 57.2968 7.7573 57.4435 7.57263 57.6176C7.20464 57.9522 7.1875 58.0523 7.1875 61.3498C7.1875 64.697 7.1875 64.7475 7.58887 65.2156L7.99023 65.6846L13.7474 65.7351C16.8943 65.7685 19.739 65.7351 20.061 65.6846C20.4146 65.5958 20.7419 65.4235 21.0153 65.1822C21.4166 64.7809 21.4166 64.7312 21.4166 61.4328C21.4166 58.1344 21.4166 58.0857 21.0153 57.6167L20.6139 57.1477L14.5221 57.1143C11.1885 57.0981 8.32666 57.1341 8.19227 57.1819ZM18.5647 61.3309V62.7533H10.034V59.9076H18.5701L18.5647 61.3309Z" fill="#8D2813"/>
<path d="M33.6988 57.2993C32.9286 57.6339 32.7969 58.2364 32.7969 61.4167C32.7969 64.4626 32.9141 65.0984 33.5834 65.4502C34.2192 65.802 45.7678 65.802 46.4036 65.4502C47.0729 65.0984 47.1901 64.4626 47.1901 61.4167C47.1901 58.1868 47.0729 57.6339 46.253 57.2993C45.4494 56.9647 34.4709 56.9647 33.6988 57.2993ZM44.3102 61.3662L44.3607 62.7552H35.6407V61.4492C35.6121 60.965 35.6516 60.4792 35.758 60.0061C35.8247 59.9555 37.7495 59.9222 40.0594 59.9393L44.2606 59.9898L44.3102 61.3662Z" fill="#8D2813"/>
<path d="M59.6265 57.1825C59.339 57.2697 59.0865 57.4455 58.9049 57.6849C58.5865 58.0863 58.5703 58.3542 58.5703 61.4505C58.5703 64.7309 58.5703 64.7814 58.9717 65.1828C59.2451 65.4241 59.5723 65.5964 59.926 65.6852C60.2443 65.7357 63.0891 65.7691 66.2396 65.7357L71.9976 65.6852L72.399 65.2162C72.8012 64.7472 72.8012 64.6976 72.8012 61.3504V57.9528L72.3656 57.5514L71.9309 57.1501L65.9726 57.1329C62.6895 57.1158 59.8276 57.1329 59.6265 57.1825ZM69.9529 61.3315V62.7539H61.4169V59.9082H69.9529V61.3315Z" fill="#8D2813"/>
</svg>
