<svg width="71" height="71" viewBox="0 0 71 71" fill="none" xmlns="http://www.w3.org/2000/svg">
<path d="M35.0246 70.0215C27.6866 70.0215 20.8576 64.2315 16.7576 54.5335C15.422 55.3724 14.1469 56.3041 12.9416 57.3215C12.7526 56.5461 12.2644 55.877 11.5836 55.4605C12.9466 54.3221 14.3919 53.2859 15.9076 52.3605C14.2658 47.6977 13.3187 42.8189 13.0966 37.8805C13.3964 37.9774 13.7096 38.0267 14.0246 38.0265C14.4993 38.0282 14.9675 37.9157 15.3896 37.6985C15.5543 41.1982 16.0863 44.6709 16.9766 48.0595C17.2616 49.1335 17.5856 50.1935 17.9396 51.2095C18.9486 50.6815 19.9866 50.1975 21.0226 49.7725C25.1071 48.0956 29.4612 47.1711 33.8746 47.0435V36.1715H16.7956C16.9472 35.8071 17.0251 35.4162 17.0246 35.0215C17.026 34.6267 16.9481 34.2356 16.7956 33.8715H33.8746V24.7935C34.611 25.0982 35.4382 25.0982 36.1746 24.7935V33.8715H54.7126C54.6402 29.8594 54.0896 25.8702 53.0726 21.9885C52.7966 20.9455 52.4726 19.8885 52.1116 18.8415C51.1936 19.3245 50.2286 19.7775 49.2466 20.1885C45.6314 21.7019 41.7966 22.6247 37.8886 22.9215C38.1253 22.1601 38.0505 21.3359 37.6806 20.6295C41.2834 20.3614 44.8212 19.5251 48.1626 18.1515C49.2283 17.7132 50.2713 17.2216 51.2876 16.6785C50.5497 14.8811 49.6619 13.149 48.6336 11.5005C47.0214 8.81036 44.8646 6.487 42.3016 4.67948C40.423 3.36919 38.2363 2.5694 35.9556 2.35848C36.0972 2.55353 36.1732 2.78848 36.1726 3.02948V19.2495C35.4362 18.9448 34.609 18.9448 33.8726 19.2495V3.03048C33.872 2.78947 33.948 2.5545 34.0896 2.35948C31.8085 2.56965 29.6212 3.36949 27.7426 4.68048C25.1808 6.48705 23.0247 8.80901 21.4126 11.4975C20.3846 13.1462 19.4968 14.8783 18.7586 16.6755C19.7753 17.2186 20.8186 17.7102 21.8846 18.1485C25.2266 19.5208 28.7647 20.3555 32.3676 20.6215C32.1405 21.0531 32.0224 21.5338 32.0236 22.0215C32.0235 22.3266 32.0693 22.63 32.1596 22.9215C28.3316 22.6315 24.573 21.7413 21.0216 20.2835C19.9776 19.8545 18.9396 19.3705 17.9366 18.8455C17.5836 19.8665 17.2596 20.9255 16.9756 21.9925C16.0842 25.3808 15.5523 28.8537 15.3886 32.3535C14.6784 31.9922 13.854 31.9267 13.0956 32.1715C13.3151 27.2332 14.2606 22.3542 15.9016 17.6915C13.6191 16.2977 11.4987 14.6542 9.57963 12.7915C9.97262 12.3445 10.4666 11.7915 11.1466 11.1065L11.1556 11.1145L11.1676 11.1265C12.8689 12.7818 14.7406 14.2524 16.7516 15.5135C20.8566 5.81248 27.6866 0.0214844 35.0246 0.0214844C42.3626 0.0214844 49.1916 5.81248 53.2916 15.5125C54.6271 14.6744 55.9022 13.7438 57.1076 12.7275C57.2977 13.5032 57.7875 14.1721 58.4696 14.5875C57.1059 15.7264 55.6596 16.7626 54.1426 17.6875C55.9574 22.8929 56.9264 28.3555 57.0126 33.8675H60.9956C61.3006 33.8675 61.5931 33.9886 61.8088 34.2043C62.0245 34.42 62.1456 34.7125 62.1456 35.0175C62.1456 35.3225 62.0245 35.615 61.8088 35.8307C61.5931 36.0463 61.3006 36.1675 60.9956 36.1675H57.0126C56.9265 41.3149 56.0803 46.4214 54.5016 51.3215C54.2703 50.9856 53.9731 50.7002 53.6281 50.4828C53.2831 50.2653 52.8974 50.1203 52.4946 50.0565C52.6946 49.4115 52.8946 48.7375 53.0766 48.0565C54.0945 44.1749 54.6451 40.1857 54.7166 36.1735H36.1746V47.0385C40.6682 47.1672 45.0996 48.1232 49.2466 49.8585C49.6696 50.0355 50.0996 50.2245 50.5256 50.4225C50.1751 50.6253 49.8691 50.8966 49.6258 51.2203C49.3826 51.544 49.207 51.9134 49.1096 52.3065C48.8096 52.1725 48.4916 52.0355 48.1626 51.8995C44.3527 50.3337 40.2918 49.4669 36.1746 49.3405V67.6655C38.3775 67.4223 40.4846 66.6316 42.3036 65.3655C44.8658 63.5593 47.0219 61.2372 48.6336 58.5485C49.2531 57.5625 49.8206 56.5448 50.3336 55.4995C50.6703 55.7301 51.0506 55.8895 51.451 55.9681C51.8515 56.0467 52.2637 56.0427 52.6626 55.9565C50.8904 59.9472 48.237 63.4844 44.9016 66.3025C43.4679 67.4662 41.8612 68.3988 40.1396 69.0665C38.5069 69.6933 36.7735 70.0169 35.0246 70.0215ZM33.8746 49.3405C28.5937 49.5023 23.4216 50.8818 18.7616 53.3715C19.499 55.1676 20.3864 56.8984 21.4146 58.5455C23.0263 61.2342 25.1825 63.5563 27.7446 65.3625C29.5639 66.6289 31.6713 67.4196 33.8746 67.6625V49.3405ZM58.9836 59.0215L58.9306 58.9715L58.8786 58.9205C57.4289 57.512 55.856 56.2363 54.1786 55.1085C54.7225 54.5501 55.0261 53.801 55.0246 53.0215C55.0246 52.9845 55.0246 52.9465 55.0246 52.9095C57.1044 54.2639 59.0386 55.8295 60.7966 57.5815C60.0096 58.1545 59.3786 58.6815 58.9866 59.0235L58.9836 59.0215ZM11.2526 36.1715H1.54062C1.23563 36.1715 0.943119 36.0503 0.727452 35.8347C0.511785 35.619 0.390625 35.3265 0.390625 35.0215C0.390625 34.7165 0.511785 34.424 0.727452 34.2083C0.943119 33.9926 1.23563 33.8715 1.54062 33.8715H11.2526C10.9481 34.6079 10.9481 35.4351 11.2526 36.1715Z" fill="#484A53"/>
<path d="M68.6345 36.1719H64.6345C64.3296 36.1716 64.0371 36.0496 63.8215 35.834C63.6059 35.6184 63.4846 35.3264 63.4844 35.0215C63.4846 34.7166 63.6059 34.4246 63.8215 34.209C64.0371 33.9934 64.3296 33.8714 64.6345 33.8711H68.6345C68.9394 33.8714 69.2317 33.9934 69.4473 34.209C69.6629 34.4246 69.7842 34.7166 69.7844 35.0215C69.7842 35.3264 69.6629 35.6184 69.4473 35.834C69.2317 36.0496 68.9394 36.1716 68.6345 36.1719Z" fill="#484A53"/>
<path d="M35.0219 70.0215C26.2226 70.0333 17.7439 66.7192 11.2849 60.7435C12.0065 60.4059 12.5657 59.7971 12.8409 59.0495C18.8731 64.6274 26.7839 67.7302 34.9998 67.7407C43.2156 67.7512 51.1343 64.6686 57.1808 59.1062C63.2272 53.5437 66.9582 45.909 67.6316 37.7208C68.3049 29.5326 65.8714 21.391 60.8149 14.9155C61.5818 14.703 62.2338 14.1962 62.6289 13.5055C66.6631 18.6746 69.1636 24.8732 69.8454 31.3947C70.5271 37.9162 69.3626 44.498 66.4846 50.3896C63.6066 56.2813 59.131 61.2457 53.5681 64.7168C48.0052 68.1879 41.5789 70.026 35.0219 70.0215ZM7.4129 56.5395C2.00146 49.6086 -0.602894 40.8948 0.117834 32.1312C0.838562 23.3677 4.83156 15.1964 11.3026 9.24284C17.7737 3.28924 26.2487 -0.0104673 35.0418 2.49451e-05C43.835 0.0105172 52.3021 3.33044 58.7589 9.29946C58.0372 9.63695 57.478 10.2458 57.2029 10.9935C51.1707 5.41556 43.2599 2.31274 35.0441 2.30224C26.8282 2.29173 18.9095 5.37429 12.863 10.9367C6.81662 16.4992 3.08562 24.1339 2.41225 32.3221C1.73887 40.5103 4.17245 48.6519 9.2289 55.1275C8.46159 55.3402 7.80931 55.8473 7.4139 56.5385L7.4129 56.5395Z" fill="#8D2813"/>
<path d="M14.0234 40.0215C13.0345 40.0215 12.0678 39.7282 11.2456 39.1788C10.4233 38.6294 9.78248 37.8485 9.40404 36.9349C9.0256 36.0213 8.92659 35.0159 9.11951 34.046C9.31244 33.0761 9.78864 32.1852 10.4879 31.486C11.1872 30.7867 12.0781 30.3105 13.048 30.1176C14.0179 29.9246 15.0232 30.0237 15.9369 30.4021C16.8505 30.7805 17.6314 31.4214 18.1808 32.2436C18.7302 33.0659 19.0234 34.0326 19.0234 35.0215C19.0219 36.3471 18.4946 37.6179 17.5572 38.5553C16.6199 39.4926 15.349 40.0199 14.0234 40.0215ZM14.0234 32.0215C13.4301 32.0215 12.8501 32.1974 12.3567 32.5271C11.8634 32.8567 11.4789 33.3253 11.2518 33.8734C11.0247 34.4216 10.9653 35.0248 11.0811 35.6068C11.1968 36.1887 11.4826 36.7232 11.9021 37.1428C12.3217 37.5624 12.8562 37.8481 13.4382 37.9638C14.0201 38.0796 14.6233 38.0202 15.1715 37.7931C15.7197 37.5661 16.1882 37.1815 16.5178 36.6882C16.8475 36.1948 17.0234 35.6148 17.0234 35.0215C17.0234 34.2258 16.7074 33.4628 16.1448 32.9002C15.5822 32.3376 14.8191 32.0215 14.0234 32.0215Z" fill="#484A53"/>
<path d="M10.0234 63.0215C9.03453 63.0215 8.06783 62.7282 7.24559 62.1788C6.42334 61.6294 5.78248 60.8485 5.40404 59.9349C5.0256 59.0213 4.92659 58.0159 5.11951 57.046C5.31244 56.0761 5.78864 55.1852 6.48791 54.486C7.18717 53.7867 8.07808 53.3105 9.04799 53.1176C10.0179 52.9246 11.0232 53.0237 11.9369 53.4021C12.8505 53.7805 13.6314 54.4214 14.1808 55.2436C14.7302 56.0659 15.0234 57.0326 15.0234 58.0215C15.0219 59.3471 14.4946 60.6179 13.5572 61.5553C12.6199 62.4926 11.349 63.0199 10.0234 63.0215ZM10.0234 55.0215C9.4301 55.0215 8.85008 55.1974 8.35673 55.5271C7.86338 55.8567 7.47886 56.3253 7.2518 56.8734C7.02474 57.4216 6.96533 58.0248 7.08108 58.6068C7.19684 59.1887 7.48256 59.7232 7.90212 60.1428C8.32168 60.5624 8.85623 60.8481 9.43817 60.9638C10.0201 61.0796 10.6233 61.0202 11.1715 60.7931C11.7197 60.5661 12.1882 60.1815 12.5178 59.6882C12.8475 59.1948 13.0234 58.6148 13.0234 58.0215C13.0234 57.2258 12.7074 56.4628 12.1448 55.9002C11.5822 55.3376 10.8191 55.0215 10.0234 55.0215Z" fill="#484A53"/>
<path d="M52.0234 58.0215C51.0345 58.0215 50.0678 57.7282 49.2456 57.1788C48.4233 56.6294 47.7825 55.8485 47.404 54.9349C47.0256 54.0213 46.9266 53.0159 47.1195 52.046C47.3124 51.0761 47.7886 50.1852 48.4879 49.486C49.1872 48.7867 50.0781 48.3105 51.048 48.1176C52.0179 47.9246 53.0232 48.0237 53.9369 48.4021C54.8505 48.7805 55.6314 49.4214 56.1808 50.2436C56.7302 51.0659 57.0234 52.0326 57.0234 53.0215C57.0219 54.3471 56.4946 55.6179 55.5572 56.5553C54.6199 57.4926 53.349 58.0199 52.0234 58.0215ZM52.0234 50.0215C51.4301 50.0215 50.8501 50.1974 50.3567 50.5271C49.8634 50.8567 49.4789 51.3253 49.2518 51.8734C49.0247 52.4216 48.9653 53.0248 49.0811 53.6068C49.1968 54.1887 49.4826 54.7232 49.9021 55.1428C50.3217 55.5624 50.8562 55.8481 51.4382 55.9638C52.0201 56.0796 52.6233 56.0202 53.1715 55.7931C53.7197 55.5661 54.1882 55.1815 54.5178 54.6882C54.8475 54.1948 55.0234 53.6148 55.0234 53.0215C55.0234 52.2258 54.7074 51.4628 54.1448 50.9002C53.5822 50.3376 52.8191 50.0215 52.0234 50.0215Z" fill="#484A53"/>
<path d="M35.0234 27.0215C34.0345 27.0215 33.0678 26.7282 32.2456 26.1788C31.4233 25.6294 30.7825 24.8485 30.404 23.9349C30.0256 23.0213 29.9266 22.0159 30.1195 21.046C30.3124 20.0761 30.7886 19.1852 31.4879 18.486C32.1872 17.7867 33.0781 17.3105 34.048 17.1176C35.0179 16.9246 36.0232 17.0237 36.9369 17.4021C37.8505 17.7805 38.6314 18.4214 39.1808 19.2436C39.7302 20.0659 40.0234 21.0326 40.0234 22.0215C40.0219 23.3471 39.4946 24.6179 38.5572 25.5553C37.6199 26.4926 36.349 27.0199 35.0234 27.0215ZM35.0234 19.0215C34.4301 19.0215 33.8501 19.1974 33.3567 19.5271C32.8634 19.8567 32.4789 20.3253 32.2518 20.8734C32.0247 21.4216 31.9653 22.0248 32.0811 22.6068C32.1968 23.1887 32.4826 23.7232 32.9021 24.1428C33.3217 24.5624 33.8562 24.8481 34.4382 24.9638C35.0201 25.0796 35.6233 25.0202 36.1715 24.7931C36.7197 24.5661 37.1882 24.1815 37.5178 23.6882C37.8475 23.1948 38.0234 22.6148 38.0234 22.0215C38.0234 21.2258 37.7074 20.4628 37.1448 19.9002C36.5822 19.3376 35.8191 19.0215 35.0234 19.0215Z" fill="#484A53"/>
<path d="M60.0234 17.0215C59.0345 17.0215 58.0678 16.7282 57.2456 16.1788C56.4233 15.6294 55.7825 14.8485 55.404 13.9349C55.0256 13.0213 54.9266 12.0159 55.1195 11.046C55.3124 10.0761 55.7886 9.18522 56.4879 8.48595C57.1872 7.78669 58.0781 7.31049 59.048 7.11756C60.0179 6.92463 61.0232 7.02365 61.9369 7.40209C62.8505 7.78053 63.6314 8.42139 64.1808 9.24364C64.7302 10.0659 65.0234 11.0326 65.0234 12.0215C65.0219 13.3471 64.4946 14.6179 63.5572 15.5553C62.6199 16.4926 61.349 17.0199 60.0234 17.0215ZM60.0234 9.02149C59.4301 9.02149 58.8501 9.19743 58.3567 9.52708C57.8634 9.85672 57.4789 10.3253 57.2518 10.8734C57.0247 11.4216 56.9653 12.0248 57.0811 12.6068C57.1968 13.1887 57.4826 13.7232 57.9021 14.1428C58.3217 14.5624 58.8562 14.8481 59.4382 14.9638C60.0201 15.0796 60.6233 15.0202 61.1715 14.7931C61.7197 14.5661 62.1882 14.1815 62.5178 13.6882C62.8475 13.1948 63.0234 12.6148 63.0234 12.0215C63.0234 11.2258 62.7074 10.4628 62.1448 9.90017C61.5822 9.33756 60.8191 9.02149 60.0234 9.02149Z" fill="#484A53"/>
</svg>
