<svg width="70" height="70" viewBox="0 0 70 70" fill="none" xmlns="http://www.w3.org/2000/svg">
<path d="M9.68821 0.221925C7.49501 0.570741 5.44972 1.54712 3.7994 3.03313C2.14907 4.51913 0.964306 6.45119 0.38821 8.59593C0.0415539 10.4283 0.0415539 12.3095 0.38821 14.1419C0.883963 15.9452 1.79571 17.607 3.05021 18.9939L3.61821 19.6179L2.96621 21.1429C1.00695 25.5217 0.0405345 30.2797 0.13621 35.0759C0.0447874 38.4661 0.51307 41.8481 1.52221 45.0859C3.6067 51.9776 7.75365 58.0647 13.4042 62.5269C13.8839 62.8754 14.2813 63.325 14.5682 63.8439C15.2853 65.2247 16.2719 66.4477 17.4698 67.4407C18.6676 68.4336 20.0524 69.1763 21.5422 69.6249C23.4802 70.0595 25.4884 70.0783 27.4342 69.6799C28.2922 69.4234 29.2051 69.414 30.0682 69.6529C33.3682 70.1239 37.9292 70.1109 38.3862 69.6389C38.5144 69.4745 38.584 69.2719 38.584 69.0634C38.584 68.8549 38.5144 68.6524 38.3862 68.4879C37.2117 68.2713 36.0143 68.2061 34.8232 68.2939C33.6388 68.3119 32.4543 68.2698 31.2742 68.1679C31.1632 68.0849 31.4402 67.7379 32.2032 67.0169C33.6803 65.6708 34.7674 63.9515 35.3502 62.0399L35.6552 61.0699L37.1662 61.1119C40.2754 61.228 43.3603 61.7073 46.3582 62.5399C48.1192 63.0399 50.8222 64.1619 50.7112 64.3399C50.4872 64.5345 50.2346 64.6934 49.9622 64.8109C49.1162 65.2409 48.9082 65.5739 49.1622 66.0999C49.4392 66.6819 49.9522 66.6549 51.2552 65.9749C54.8868 64.0543 58.1566 61.5164 60.9182 58.4749C65.7207 53.1539 68.7742 46.487 69.6662 39.3749C69.916 36.5137 69.916 33.6362 69.6662 30.7749C69.0801 26.0526 67.5342 21.5001 65.1234 17.3973C62.7127 13.2946 59.4882 9.72832 55.6482 6.91792C50.8545 3.40463 45.2513 1.15855 39.3582 0.387925C36.3124 0.134203 33.2498 0.157298 30.2082 0.456925C26.783 0.943013 23.4476 1.92849 20.3082 3.38193L19.5452 3.72893L18.9212 3.14693C17.5506 1.90058 15.9065 0.993552 14.1212 0.498925C12.66 0.228946 11.1716 0.135942 9.68821 0.221925ZM13.1982 2.00993C15.5243 2.50295 17.5842 3.84299 18.9776 5.76975C20.371 7.6965 20.9985 10.0724 20.7382 12.4359C20.5861 13.7403 20.1812 15.0025 19.5462 16.1519L19.1582 16.8039L18.7702 16.1389C18.0394 14.9807 17.0223 14.0305 15.8172 13.3799C15.4495 13.1828 15.0641 13.0205 14.6662 12.8949C14.5412 12.8949 14.5972 12.7289 14.8322 12.3819C15.1668 11.8705 15.3897 11.2942 15.4863 10.6908C15.5828 10.0873 15.5508 9.47022 15.3924 8.87995C15.234 8.28968 14.9528 7.73951 14.5671 7.26544C14.1814 6.79137 13.6999 6.40408 13.1542 6.12892C12.5804 5.82397 11.9282 5.69855 11.2822 5.76892C10.6362 5.69855 9.98401 5.82397 9.41021 6.12892C8.54792 6.59832 7.84372 7.31227 7.38621 8.18092C6.92943 9.33745 6.92943 10.6244 7.38621 11.7809C7.53507 12.0862 7.71646 12.3746 7.92721 12.6409C8.08021 12.8349 8.09321 12.8909 7.95521 12.8909C7.55184 13.0078 7.16147 13.1656 6.79021 13.3619C5.56642 13.9903 4.53613 14.939 3.80921 16.1069L3.40921 16.7999L3.19821 16.4839C2.60593 15.4932 2.17964 14.4123 1.93621 13.2839C1.48273 11.1765 1.78282 8.97684 2.78421 7.06792C3.20482 6.14657 3.80328 5.31737 4.54521 4.62792C5.23475 3.88635 6.06394 3.28825 6.98521 2.86793C8.89379 1.86929 11.0904 1.56594 13.1982 2.00993ZM37.9732 1.94093C40.6656 2.18892 43.3182 2.76141 45.8732 3.64593C47.507 4.2163 49.0964 4.90685 50.6282 5.71192L51.2282 6.05892L50.1192 6.64093C43.1452 10.2599 31.6942 10.8559 23.1122 8.01392C22.656 7.89806 22.2209 7.71074 21.8232 7.45892C21.6733 7.0327 21.4876 6.6199 21.2682 6.22492C20.9632 5.61492 20.7132 5.10192 20.7132 5.05992C22.3958 4.21131 24.161 3.53778 25.9812 3.04993C29.8792 1.96489 33.9404 1.58925 37.9712 1.94093H37.9732ZM53.9982 7.77792C57.4576 10.1805 60.4227 13.2257 62.7322 16.7479C63.8552 18.4389 64.2022 19.0769 64.0772 19.2019C64.0352 19.2439 59.2112 20.2829 58.2682 20.4499C57.7832 20.5329 57.7682 20.5329 57.6032 19.9369C56.2886 16.1142 54.3747 12.5248 51.9332 9.30293C51.2402 8.40293 51.0732 8.12492 51.2262 8.02792C51.3372 7.97292 51.6972 7.73692 52.0442 7.50092C52.2835 7.32873 52.5444 7.18886 52.8202 7.08492C53.2402 7.26605 53.6359 7.49885 53.9982 7.77792ZM12.2262 7.55592C12.7163 7.74483 13.1376 8.07773 13.4348 8.51077C13.732 8.94382 13.8911 9.45672 13.8911 9.98193C13.8911 10.5071 13.732 11.02 13.4348 11.4531C13.1376 11.8861 12.7163 12.219 12.2262 12.4079C11.9289 12.5383 11.6078 12.6056 11.2832 12.6056C10.9586 12.6056 10.6375 12.5383 10.3402 12.4079C9.85754 12.2251 9.44057 11.9021 9.14289 11.4804C8.8452 11.0588 8.68039 10.5577 8.66964 10.0417C8.65889 9.52565 8.80269 9.01819 9.08255 8.58451C9.36242 8.15082 9.76557 7.81073 10.2402 7.60793C10.5464 7.45235 10.8835 7.36697 11.2268 7.35797C11.5702 7.34898 11.9123 7.4166 12.2262 7.55592ZM50.8092 10.5779C52.0637 12.2116 53.1505 13.9675 54.0532 15.8189C54.8517 17.3896 55.5238 19.0215 56.0632 20.6989C56.0632 20.8379 55.6332 20.9489 54.5102 21.1289C52.6942 21.4059 47.9102 22.0439 47.5922 22.0439C47.4262 22.0439 47.3012 21.5859 46.9922 19.8529C46.5088 17.1995 45.8605 14.5787 45.0512 12.0059C44.7742 11.1739 44.5662 10.4809 44.5802 10.4669C44.5942 10.4529 45.2452 10.2729 46.0082 10.0669C46.7712 9.86093 47.8382 9.51193 48.3652 9.30393C49.5332 8.84493 49.4232 8.78992 50.8092 10.5779ZM24.6472 10.2729C25.2712 10.4119 25.4232 10.4949 25.3682 10.6609C24.2746 13.9145 23.4311 17.2468 22.8452 20.6289L22.6092 22.0679L21.8332 21.9849C20.6272 21.8459 16.7592 21.3199 16.7332 21.2919C16.999 21.0669 17.2818 20.863 17.5792 20.6819C19.0625 19.6354 20.2896 18.2665 21.1682 16.6779C22.0951 15.1131 22.5387 13.3092 22.4432 11.4929V9.60793L23.1502 9.84393C23.5382 9.98193 24.2182 10.1759 24.6472 10.2729ZM29.1672 11.1459C30.0402 11.2569 31.5242 11.3959 32.4672 11.4509L34.1582 11.5509V22.7389H33.1582C32.1462 22.7389 28.4722 22.5589 25.9582 22.3789C25.4492 22.3665 24.9428 22.3015 24.4472 22.1849C24.3082 22.1019 24.3082 21.8659 24.4472 21.0619C25.0043 17.8471 25.7968 14.6776 26.8182 11.5789C27.0402 10.9789 27.1652 10.8159 27.3312 10.8719C27.4762 10.9109 28.2982 11.0349 29.1672 11.1459ZM43.2252 11.7839C44.2559 14.9651 45.049 18.2184 45.5982 21.5169C45.6982 22.1269 45.6812 22.1689 45.3762 22.2379C44.8762 22.3489 41.1762 22.5849 38.3612 22.6819L35.8242 22.7819V11.5069H36.5312C38.2215 11.4425 39.9066 11.2806 41.5782 11.0219C42.1192 10.9219 42.6182 10.8419 42.7012 10.8279C42.7842 10.8139 43.0172 11.2439 43.2252 11.7839ZM14.8872 14.7789C15.4266 15.04 15.926 15.3768 16.3702 15.7789C17.0359 16.4136 17.5235 17.2119 17.7842 18.0939C17.7842 18.7039 15.4272 20.1319 13.6392 20.6029C12.0841 20.9218 10.4804 20.9218 8.92521 20.6029C7.17821 20.1319 4.76621 18.7029 4.76621 18.1349C4.76621 17.2619 6.19421 15.5149 7.42821 14.8909C8.46821 14.3639 8.96721 14.2909 11.5592 14.3229C13.9582 14.3489 13.9982 14.3489 14.8872 14.7789ZM65.3982 21.5449C66.255 23.5339 66.9369 25.5937 67.4362 27.7009C67.4362 27.8259 67.0762 27.5759 66.5762 27.0909C64.7325 25.2653 62.3111 24.1379 59.7272 23.9019L58.7572 23.8019L58.5352 22.9839C58.3822 22.4019 58.3692 22.1379 58.4802 22.1109C58.5632 22.0829 59.7282 21.8339 61.0592 21.5699C62.3902 21.3059 63.8042 20.9879 64.1782 20.8769C64.4338 20.7961 64.7001 20.754 64.9682 20.7519C65.1451 20.9966 65.2897 21.2632 65.3982 21.5449ZM5.79821 21.1979C7.19365 21.9439 8.72314 22.4058 10.2982 22.5569L11.5182 22.6399L11.1982 23.9569C10.5291 26.822 10.1115 29.7401 9.95021 32.6779L9.85021 34.2449H1.71621V33.8449C1.8661 31.1919 2.29343 28.5619 2.99121 25.9979C3.55921 23.9739 4.77921 20.7979 5.00121 20.7979C5.27486 20.9105 5.53933 21.0443 5.79221 21.1979H5.79821ZM17.4102 23.0679C19.2542 23.3309 21.1392 23.5809 21.5832 23.6359C21.857 23.6328 22.1277 23.6945 22.3732 23.8159C22.3732 23.8709 22.2732 24.6889 22.1652 25.6459C22.0572 26.6029 21.8882 28.9179 21.7912 30.8029L21.6252 34.2409H11.5182L11.6182 32.6739C11.7551 30.639 11.9957 28.6123 12.3392 26.6019C12.5924 25.2355 12.9209 23.8841 13.3232 22.5539C13.3652 22.4849 13.5312 22.4709 13.7112 22.5119C13.8912 22.5529 15.5532 22.8059 17.4102 23.0679ZM56.7982 22.8619C56.8402 23.0839 56.9232 23.4169 56.9642 23.5969C57.0472 23.9159 57.0062 23.9439 56.2432 24.1099C54.6345 24.4839 53.1264 25.2033 51.8236 26.2183C50.5207 27.2333 49.4543 28.5196 48.6982 29.9879L48.1982 30.9309L48.0982 29.2259C48.0432 28.2829 47.9182 26.6889 47.8072 25.6629C47.6962 24.6369 47.6132 23.7909 47.6272 23.7629C47.6412 23.7349 48.9442 23.5689 50.5112 23.3629C52.0782 23.1569 54.0052 22.8779 54.8112 22.7529C56.7982 22.4039 56.7152 22.4039 56.7982 22.8619ZM27.0182 24.1229C28.1692 24.1919 30.2342 24.2889 31.6352 24.3449L34.1582 24.4449V34.2449H23.2982L23.3982 31.9159C23.4982 29.5729 23.8422 25.1229 23.9802 24.2909C24.0632 23.8749 24.1052 23.8469 24.5072 23.9169C24.7442 23.9429 25.8812 24.0399 27.0182 24.1229ZM45.9982 24.2889C46.1372 25.1209 46.4832 29.5709 46.5802 31.9139L46.6802 34.2429H35.8222V24.4429L38.5672 24.3319C40.7852 24.2489 45.4572 23.9579 45.8182 23.8609C45.8732 23.8599 45.9432 24.0529 45.9982 24.2889ZM60.6112 25.7179C61.4369 25.9109 62.2373 26.1995 62.9962 26.5779C63.923 26.9954 64.7537 27.5997 65.4362 28.3529C66.1939 29.0283 66.7949 29.8611 67.1972 30.7929C68.1939 32.6915 68.4933 34.8794 68.0432 36.9759C67.7881 38.1032 67.3687 39.1868 66.7982 40.1919L66.5762 40.5109L66.1882 39.8459C65.4574 38.6877 64.4403 37.7375 63.2352 37.0869C62.8675 36.8898 62.4821 36.7275 62.0842 36.6019C61.9592 36.6019 62.0152 36.4359 62.2502 36.0889C62.5848 35.5775 62.8077 35.0012 62.9043 34.3978C63.0008 33.7943 62.9688 33.1772 62.8104 32.5869C62.652 31.9967 62.3708 31.4465 61.9851 30.9724C61.5994 30.4984 61.1179 30.1111 60.5722 29.8359C59.9984 29.531 59.3462 29.4056 58.7002 29.4759C58.0542 29.4056 57.402 29.531 56.8282 29.8359C55.9638 30.3041 55.2575 31.0178 54.7982 31.8869C54.3414 33.0435 54.3414 34.3304 54.7982 35.4869C54.9471 35.7922 55.1285 36.0806 55.3392 36.3469C55.4922 36.5409 55.5052 36.5969 55.3672 36.5969C54.9638 36.7138 54.5735 36.8716 54.2022 37.0679C52.9784 37.6963 51.9481 38.645 51.2212 39.8129L50.8212 40.5059L50.6132 40.1869C50.0209 39.1962 49.5946 38.1152 49.3512 36.9869C48.8991 34.8819 49.1988 32.685 50.1982 30.7779C50.6188 29.8566 51.2173 29.0274 51.9592 28.3379C52.6487 27.596 53.4779 26.9975 54.3992 26.5769C56.3074 25.5782 58.5036 25.2745 60.6112 25.7179ZM59.6412 31.2639C60.1313 31.4528 60.5526 31.7857 60.8498 32.2188C61.147 32.6518 61.306 33.1647 61.306 33.6899C61.306 34.2151 61.147 34.728 60.8498 35.1611C60.5526 35.5941 60.1313 35.927 59.6412 36.1159C59.3439 36.2463 59.0228 36.3136 58.6982 36.3136C58.3736 36.3136 58.0525 36.2463 57.7552 36.1159C57.2725 35.9331 56.8556 35.6101 56.5579 35.1884C56.2602 34.7668 56.0954 34.2657 56.0846 33.7497C56.0739 33.2337 56.2177 32.7262 56.4976 32.2925C56.7774 31.8588 57.1806 31.5187 57.6552 31.3159C57.9617 31.161 58.2989 31.0763 58.6423 31.068C58.9857 31.0597 59.3265 31.128 59.6402 31.2679L59.6412 31.2639ZM9.95221 37.5299C10.1585 40.827 10.6643 44.0985 11.4632 47.3039C11.6852 48.0109 11.6572 48.1039 11.2552 48.1039C11.1022 48.1039 9.70221 48.3949 8.12221 48.7419C6.54221 49.0889 5.19721 49.3799 5.12721 49.3939C4.83621 49.4489 3.65721 46.5239 2.99221 44.1529C2.29443 41.5889 1.8671 38.9589 1.71721 36.3059V35.9059H9.85521L9.95221 37.5299ZM21.7922 39.2629C21.8922 41.1209 22.0552 43.4629 22.1662 44.4899C22.2772 45.5169 22.3602 46.3619 22.3322 46.3899C22.3042 46.4179 21.4862 46.5289 20.5022 46.6529C19.5182 46.7769 17.4932 47.0529 16.0102 47.2769C14.5272 47.5009 13.3102 47.6769 13.2932 47.6509C13.2762 47.6249 13.0712 46.8049 12.8352 45.8209C12.172 43.0778 11.7636 40.2792 11.6152 37.4609L11.5152 35.9079H21.6252L21.7922 39.2629ZM34.1582 35.9079V45.7079L31.6352 45.8079C28.8352 45.9079 25.1742 46.1269 24.5092 46.2379C24.0932 46.3069 24.0652 46.2929 23.9822 45.7379C23.8162 44.6679 23.4982 40.6909 23.3982 38.2919L23.2982 35.9069L34.1582 35.9079ZM46.5802 38.2229C46.4802 40.5799 46.1642 44.6979 45.9982 45.7369C45.9152 46.2369 45.8732 46.2919 45.5402 46.2369C44.9582 46.1369 41.0902 45.9039 38.3582 45.8069L35.8212 45.7069V35.9069H46.6772L46.5802 38.2229ZM62.3022 38.4859C63.3492 38.975 64.217 39.7792 64.7842 40.7859C65.3842 41.8259 65.3522 41.9919 64.4242 42.6989C62.7833 43.9533 60.7631 44.6095 58.6982 44.5589C57.2846 44.6005 55.8817 44.301 54.6082 43.6859C53.4852 43.1589 52.1822 42.1609 52.1822 41.8419C52.1822 40.9689 53.6102 39.2219 54.8442 38.5979C55.8842 38.0709 56.3832 37.9979 58.9752 38.0299C61.3732 38.0569 61.4152 38.0569 62.2982 38.4869L62.3022 38.4859ZM49.7282 41.8419C50.1916 42.42 50.6966 42.9634 51.2392 43.4679C52.6216 44.6464 54.2463 45.5064 55.9982 45.9869C56.5392 46.1259 56.9822 46.2369 57.0102 46.2499C56.9429 46.7292 56.8362 47.2021 56.6912 47.6639C56.6772 47.6779 55.7072 47.5389 54.5282 47.3589C53.3492 47.1789 51.3392 46.8739 50.0362 46.7069C48.7332 46.5399 47.6652 46.4019 47.6362 46.3879C47.6072 46.3739 47.6912 45.5149 47.8162 44.4879C47.9412 43.4609 48.0522 41.8679 48.1072 40.9249L48.2072 39.2199L48.7072 40.1629C49.0144 40.7421 49.3553 41.3027 49.7282 41.8419ZM67.0172 44.0599C66.5834 45.6417 66.0222 47.1857 65.3392 48.6769L64.9512 49.4529L63.5922 49.1339C62.8432 48.9539 61.3602 48.6209 60.2922 48.3989C59.6389 48.3066 58.9976 48.144 58.3792 47.9139C58.3932 47.8719 58.4792 47.4979 58.5732 47.0819L58.7392 46.3469L59.8622 46.2469C62.304 45.9907 64.5938 44.9383 66.3782 43.2519C66.9192 42.7249 67.3902 42.3649 67.4042 42.4339C67.3286 42.9874 67.1996 43.532 67.0172 44.0599ZM34.1582 50.0769L34.1442 52.7529L33.8532 52.3369C32.8417 51.0959 31.6557 50.0079 30.3322 49.1069C29.6189 48.7187 28.8775 48.3844 28.1142 48.1069C27.1992 47.8019 26.9912 47.6909 27.2962 47.6769C27.5322 47.6629 28.5302 47.6079 29.5142 47.5659C30.4982 47.5239 31.9542 47.4549 32.7442 47.4409L34.1582 47.4129V50.0769ZM43.0982 47.7059C43.9308 47.7343 44.7602 47.8222 45.5802 47.9689C45.9802 48.3569 43.3202 59.1019 42.6552 59.7689C42.078 59.8475 41.4914 59.8241 40.9222 59.6999C40.0352 59.5749 38.5372 59.4369 37.5672 59.3949L35.8202 59.2949V47.3729L38.2882 47.4729C39.6352 47.5119 41.8112 47.6229 43.0982 47.7059ZM49.9612 48.3849C54.2452 48.9399 56.0612 49.2579 56.0612 49.4659C55.5194 51.1425 54.8473 52.7741 54.0512 54.3459C52.822 56.8099 51.2898 59.1107 49.4902 61.1949L49.1432 61.6109L47.5072 61.0979C46.6072 60.8209 45.5242 60.5159 45.0952 60.4329L44.3192 60.2799L44.9292 58.4499C45.8092 55.7705 46.5006 53.0329 46.9982 50.2569C47.3032 48.5659 47.4282 48.1079 47.5982 48.1079C47.7172 48.1079 48.7852 48.2329 49.9632 48.3849H49.9612ZM19.1132 48.9849C18.2574 49.4454 17.4809 50.0399 16.8132 50.7459C16.2996 51.2413 15.8135 51.7644 15.3572 52.3129L15.0942 52.7009L14.5672 51.3559C14.3343 50.8091 14.1487 50.2434 14.0122 49.6649C13.9842 49.2489 13.9432 49.2489 17.3122 48.7499C20.3772 48.2879 20.4192 48.2879 19.1162 48.9819L19.1132 48.9849ZM26.2532 49.4149C27.5795 49.6318 28.84 50.1445 29.9412 50.9149C31.3932 51.9017 32.5438 53.271 33.2657 54.8713C33.9875 56.4716 34.2525 58.2404 34.0312 59.9819C33.8531 61.2536 33.4451 62.4823 32.8272 63.6079L32.4672 64.2179L32.0792 63.5529C31.3484 62.3947 30.3313 61.4445 29.1262 60.7939C28.7585 60.5968 28.3731 60.4345 27.9752 60.3089C27.8502 60.3089 27.9062 60.1429 28.1412 59.7959C28.4758 59.2845 28.6987 58.7082 28.7953 58.1048C28.8918 57.5013 28.8598 56.8842 28.7014 56.2939C28.543 55.7037 28.2618 55.1535 27.8761 54.6794C27.4904 54.2054 27.0089 53.8181 26.4632 53.5429C25.8894 53.238 25.2372 53.1125 24.5912 53.1829C23.9452 53.1125 23.293 53.238 22.7192 53.5429C21.858 54.0128 21.1549 54.7267 20.6982 55.5949C20.2414 56.7515 20.2414 58.0384 20.6982 59.1949C20.8471 59.5002 21.0285 59.7886 21.2392 60.0549C21.3922 60.2489 21.4052 60.3049 21.2672 60.3049C20.8638 60.4218 20.4735 60.5796 20.1022 60.7759C18.8784 61.4043 17.8481 62.353 17.1212 63.5209L16.7212 64.2139L16.5132 63.8949C16.01 63.0281 15.6186 62.1011 15.3482 61.1359C15.0293 59.5808 15.0293 57.9771 15.3482 56.4219C15.8082 54.6628 16.7589 53.0708 18.0893 51.8314C19.4197 50.592 21.075 49.7564 22.8622 49.4219C23.9813 49.1899 25.1357 49.1862 26.2562 49.4109L26.2532 49.4149ZM12.4472 50.4229C12.5862 50.8669 13.0292 51.9759 13.4172 52.8909L14.1382 54.5679L13.8052 55.5939C13.5291 56.5259 13.3844 57.4919 13.3752 58.4639L13.2922 60.3079L12.1922 59.2959C10.6837 57.86 9.30164 56.2969 8.06121 54.6239C7.24065 53.504 6.50813 52.3221 5.87021 51.0889C6.63499 50.7556 7.44294 50.5317 8.27021 50.4239C9.57021 50.1329 10.9042 49.8559 11.2092 49.7859C12.1702 49.5679 12.1842 49.5779 12.4472 50.4229ZM61.3982 50.3539C62.8542 50.6589 64.0602 50.9359 64.0742 50.9539C64.1992 51.0649 63.8802 51.6609 62.8682 53.1859C60.514 56.8262 57.466 59.9673 53.8982 62.4299L52.5982 63.3299L51.6982 62.8449C51.3843 62.6943 51.0832 62.518 50.7982 62.3179C51.0839 61.898 51.3941 61.4953 51.7272 61.1119C54.2638 57.8208 56.2489 54.1395 57.6052 50.2119C57.8102 49.5079 57.3672 49.4949 61.3982 50.3539ZM25.5352 54.9679C26.0253 55.1568 26.4466 55.4897 26.7438 55.9228C27.041 56.3558 27.2001 56.8687 27.2001 57.3939C27.2001 57.9191 27.041 58.432 26.7438 58.8651C26.4466 59.2981 26.0253 59.631 25.5352 59.8199C25.2379 59.9503 24.9168 60.0176 24.5922 60.0176C24.2676 60.0176 23.9465 59.9503 23.6492 59.8199C23.1665 59.6371 22.7496 59.3141 22.4519 58.8924C22.1542 58.4708 21.9894 57.9697 21.9786 57.4537C21.9679 56.9377 22.1117 56.4302 22.3916 55.9965C22.6714 55.5628 23.0746 55.2227 23.5492 55.0199C23.8556 54.8642 24.1928 54.7787 24.5363 54.7697C24.8799 54.7607 25.2211 54.8284 25.5352 54.9679ZM28.1982 62.1939C28.7376 62.455 29.237 62.7918 29.6812 63.1939C30.3479 63.828 30.8365 64.6259 31.0982 65.5079C31.0982 66.1179 28.7412 67.5459 26.9532 68.0309C25.3981 68.3498 23.7944 68.3498 22.2392 68.0309C20.4782 67.5599 18.0802 66.1309 18.0802 65.5489C18.0802 64.6759 19.5082 62.9289 20.7422 62.3049C21.7822 61.7779 22.2812 61.7049 24.8732 61.7369C27.2682 61.7679 27.3092 61.7679 28.1982 62.1939Z" fill="#484A53"/>
<path d="M43.7182 67.199C43.5898 67.2445 43.4751 67.3217 43.3845 67.4234C43.294 67.5251 43.2305 67.648 43.2001 67.7807C43.1697 67.9134 43.1733 68.0517 43.2105 68.1827C43.2478 68.3136 43.3175 68.4331 43.4132 68.53C44.1482 69.195 45.2572 68.267 44.6612 67.49C44.5459 67.3595 44.3969 67.2634 44.2305 67.2121C44.0642 67.1607 43.8869 67.1562 43.7182 67.199Z" fill="#484A53"/>
<path fill-rule="evenodd" clip-rule="evenodd" d="M58.6989 23.8462C61.671 23.8828 64.5089 25.0897 66.597 27.2051C68.6851 29.3205 69.8549 32.1738 69.8529 35.1462C69.8563 38.1007 68.6867 40.9356 66.6011 43.0282C64.5154 45.1208 61.6843 46.2998 58.7299 46.3062C57.2551 46.3082 55.7944 46.0198 54.4312 45.4573C53.0679 44.8948 51.8288 44.0693 50.7845 43.028C49.7403 41.9866 48.9114 40.7498 48.3451 39.388C47.7789 38.0263 47.4864 36.5664 47.4844 35.0917C47.4824 33.6169 47.7708 32.1562 48.3333 30.793C48.8958 29.4297 49.7213 28.1906 50.7626 27.1463C51.804 26.1021 53.0408 25.2732 54.4025 24.707C55.7642 24.1407 57.2241 23.8482 58.6989 23.8462ZM58.6989 25.5152C59.9726 25.4822 61.2399 25.7057 62.4255 26.1725C63.611 26.6393 64.6905 27.3398 65.5998 28.2323C66.5091 29.1249 67.2295 30.1912 67.7183 31.3678C68.207 32.5445 68.4541 33.8074 68.4448 35.0815C68.4355 36.3556 68.1699 37.6148 67.664 38.7842C67.1581 39.9536 66.4221 41.0092 65.4998 41.8884C64.5776 42.7675 63.4879 43.4521 62.2957 43.9015C61.1034 44.3509 59.833 44.5558 58.5599 44.5042C57.32 44.5223 56.089 44.292 54.9395 43.827C53.7899 43.362 52.7451 42.6716 51.8665 41.7966C50.9879 40.9215 50.2933 39.8795 49.8237 38.7318C49.354 37.5842 49.1188 36.3541 49.1319 35.1142C49.1287 32.5729 50.1346 30.1344 51.9285 28.3345C53.7225 26.5345 56.1576 25.5205 58.6989 25.5152Z" fill="#8D2813"/>
<path fill-rule="evenodd" clip-rule="evenodd" d="M58.7005 29.4263C59.5436 29.4263 60.3679 29.6763 61.0689 30.1447C61.7699 30.6131 62.3163 31.2789 62.639 32.0579C62.9617 32.8369 63.0461 33.694 62.8816 34.5209C62.7171 35.3479 62.3111 36.1075 61.7149 36.7037C61.1187 37.2999 60.3591 37.7059 59.5322 37.8704C58.7052 38.0348 57.8481 37.9504 57.0691 37.6278C56.2902 37.3051 55.6244 36.7587 55.1559 36.0577C54.6875 35.3566 54.4375 34.5324 54.4375 33.6893C54.438 32.5588 54.8873 31.4748 55.6867 30.6755C56.486 29.8761 57.57 29.4268 58.7005 29.4263ZM58.7005 31.0553C59.2215 31.0553 59.7307 31.2098 60.1639 31.4992C60.597 31.7886 60.9346 32.2 61.134 32.6813C61.3334 33.1626 61.3855 33.6922 61.2839 34.2031C61.1823 34.7141 60.9314 35.1834 60.563 35.5518C60.1946 35.9202 59.7253 36.171 59.2144 36.2727C58.7034 36.3743 58.1738 36.3221 57.6925 36.1228C57.2112 35.9234 56.7998 35.5858 56.5104 35.1526C56.221 34.7195 56.0665 34.2102 56.0665 33.6893C56.0668 32.9908 56.3444 32.321 56.8383 31.827C57.3322 31.3331 58.002 31.0555 58.7005 31.0553Z" fill="#8D2813"/>
<path fill-rule="evenodd" clip-rule="evenodd" d="M50.6172 41.5303C50.8801 40.0917 51.639 38.7908 52.762 37.8539C53.8849 36.9169 55.3007 36.4033 56.7632 36.4023H60.6302C62.0602 36.4031 63.4468 36.894 64.5587 37.7934C65.6706 38.6927 66.4405 39.946 66.7402 41.3443C66.3402 41.7533 65.8502 42.2213 65.2482 42.7493C65.1943 41.459 64.6441 40.2393 63.7124 39.3449C62.7808 38.4505 61.5397 37.9505 60.2482 37.9493H57.1482C55.8208 37.9501 54.5479 38.4778 53.6093 39.4164C52.6707 40.3551 52.143 41.6279 52.1422 42.9553V43.0113C51.5827 42.5732 51.0715 42.0767 50.6172 41.5303Z" fill="#8D2813"/>
<path fill-rule="evenodd" clip-rule="evenodd" d="M11.2145 0C14.1867 0.0365848 17.0245 1.24347 19.1126 3.35888C21.2007 5.47429 22.3706 8.32763 22.3685 11.3C22.372 14.2545 21.2024 17.0895 19.1167 19.182C17.0311 21.2746 14.2 22.4536 11.2455 22.46C9.77076 22.462 8.31006 22.1736 6.9468 21.6111C5.58353 21.0486 4.3444 20.2231 3.30016 19.1818C2.25592 18.1404 1.42702 16.9036 0.860774 15.5419C0.294533 14.1801 0.00204619 12.7202 1.06978e-05 11.2455C-0.00202479 9.77076 0.286431 8.31005 0.848911 6.94678C1.41139 5.58352 2.23688 4.34439 3.27824 3.30015C4.3196 2.25591 5.55645 1.42701 6.91815 0.860765C8.27986 0.294525 9.73977 0.00203547 11.2145 0ZM11.2145 1.669C12.4882 1.63599 13.7555 1.85953 14.9411 2.32632C16.1266 2.79311 17.2062 3.49361 18.1154 4.38614C19.0247 5.27867 19.7452 6.34499 20.2339 7.52164C20.7227 8.6983 20.9697 9.96126 20.9604 11.2353C20.9511 12.5094 20.6856 13.7686 20.1796 14.938C19.6737 16.1074 18.9377 17.1631 18.0155 18.0422C17.0932 18.9213 16.0035 19.6059 14.8113 20.0553C13.6191 20.5047 12.3486 20.7097 11.0755 20.658C9.83562 20.6761 8.60464 20.4458 7.45511 19.9808C6.30557 19.5158 5.26073 18.8254 4.38213 17.9504C3.50353 17.0753 2.80895 16.0333 2.3393 14.8856C1.86965 13.738 1.63443 12.508 1.64751 11.268C1.64432 8.72675 2.65023 6.28821 4.44416 4.48828C6.23809 2.68834 8.67327 1.6743 11.2145 1.669Z" fill="#8D2813"/>
<path fill-rule="evenodd" clip-rule="evenodd" d="M11.2161 5.58008C12.0593 5.58008 12.8835 5.8301 13.5845 6.29852C14.2856 6.76695 14.832 7.43274 15.1546 8.2117C15.4773 8.99066 15.5617 9.84781 15.3972 10.6747C15.2327 11.5017 14.8267 12.2613 14.2305 12.8575C13.6343 13.4537 12.8747 13.8597 12.0478 14.0242C11.2209 14.1887 10.3637 14.1042 9.58474 13.7816C8.80578 13.4589 8.13999 12.9125 7.67157 12.2115C7.20315 11.5104 6.95312 10.6862 6.95312 9.84308C6.95365 8.71262 7.40296 7.62862 8.20231 6.82927C9.00167 6.02991 10.0857 5.58061 11.2161 5.58008ZM11.2161 7.20908C11.7371 7.20908 12.2463 7.36356 12.6795 7.65299C13.1127 7.94242 13.4503 8.35379 13.6496 8.83509C13.849 9.31639 13.9011 9.846 13.7995 10.3569C13.6979 10.8679 13.447 11.3372 13.0786 11.7056C12.7103 12.074 12.2409 12.3248 11.73 12.4265C11.219 12.5281 10.6894 12.4759 10.2081 12.2766C9.72684 12.0772 9.31546 11.7396 9.02604 11.3064C8.73661 10.8733 8.58213 10.364 8.58213 9.84308C8.58239 9.14458 8.85998 8.47477 9.3539 7.98085C9.84781 7.48694 10.5176 7.20934 11.2161 7.20908Z" fill="#8D2813"/>
<path fill-rule="evenodd" clip-rule="evenodd" d="M3.13281 17.6842C3.39574 16.2455 4.15467 14.9446 5.2776 14.0077C6.40052 13.0707 7.81636 12.5571 9.27881 12.5562H13.1458C14.5759 12.5569 15.9625 13.0479 17.0743 13.9472C18.1862 14.8465 18.9562 16.0998 19.2558 17.4981C18.8558 17.9071 18.3658 18.3752 17.7638 18.9032C17.7099 17.6128 17.1597 16.3931 16.2281 15.4987C15.2964 14.6043 14.0553 14.1043 12.7638 14.1032H9.66381C8.33638 14.1039 7.06355 14.6316 6.12492 15.5703C5.18628 16.5089 4.65861 17.7817 4.65781 19.1091V19.1651C4.09836 18.727 3.58715 18.2305 3.13281 17.6842Z" fill="#8D2813"/>
<path fill-rule="evenodd" clip-rule="evenodd" d="M24.6676 47.54C27.6398 47.5766 30.4777 48.7835 32.5658 50.8989C34.6538 53.0143 35.8237 55.8677 35.8216 58.84C35.8251 61.7945 34.6555 64.6295 32.5698 66.7221C30.4842 68.8147 27.6531 69.9937 24.6986 70C23.2239 70.0021 21.7632 69.7136 20.3999 69.1511C19.0367 68.5887 17.7975 67.7632 16.7533 66.7218C15.709 65.6804 14.8801 64.4436 14.3139 63.0819C13.7477 61.7202 13.4552 60.2603 13.4531 58.7855C13.4511 57.3108 13.7396 55.8501 14.302 54.4868C14.8645 53.1236 15.69 51.8844 16.7314 50.8402C17.7727 49.7959 19.0096 48.967 20.3713 48.4008C21.733 47.8346 23.1929 47.5421 24.6676 47.54ZM24.6676 49.209C25.9413 49.176 27.2087 49.3996 28.3942 49.8664C29.5797 50.3331 30.6593 51.0336 31.5686 51.9262C32.4778 52.8187 33.1983 53.885 33.687 55.0617C34.1758 56.2383 34.4229 57.5013 34.4135 58.7754C34.4042 60.0495 34.1387 61.3087 33.6328 62.4781C33.1268 63.6474 32.3908 64.7031 31.4686 65.5822C30.5463 66.4613 29.4567 67.146 28.2644 67.5954C27.0722 68.0447 25.8017 68.2497 24.5286 68.198C23.2887 68.2161 22.0578 67.9859 20.9082 67.5209C19.7587 67.0559 18.7139 66.3655 17.8353 65.4904C16.9567 64.6154 16.2621 63.5733 15.7924 62.4257C15.3228 61.278 15.0876 60.048 15.1006 58.808C15.0974 56.2668 16.1034 53.8282 17.8973 52.0283C19.6912 50.2284 22.1264 49.2143 24.6676 49.209Z" fill="#8D2813"/>
<path fill-rule="evenodd" clip-rule="evenodd" d="M24.6693 53.1201C25.5124 53.1201 26.3366 53.3701 27.0376 53.8386C27.7387 54.307 28.2851 54.9728 28.6077 55.7517C28.9304 56.5307 29.0148 57.3878 28.8503 58.2148C28.6858 59.0417 28.2798 59.8013 27.6836 60.3975C27.0875 60.9937 26.3279 61.3997 25.5009 61.5642C24.674 61.7287 23.8168 61.6443 23.0379 61.3216C22.2589 60.999 21.5931 60.4526 21.1247 59.7515C20.6563 59.0505 20.4062 58.2263 20.4062 57.3831C20.4068 56.2527 20.8561 55.1687 21.6554 54.3693C22.4548 53.57 23.5388 53.1206 24.6693 53.1201ZM24.6693 54.7491C25.1902 54.7491 25.6995 54.9036 26.1326 55.193C26.5658 55.4825 26.9034 55.8938 27.1027 56.3751C27.3021 56.8564 27.3543 57.386 27.2526 57.897C27.151 58.4079 26.9001 58.8773 26.5318 59.2456C26.1634 59.614 25.6941 59.8649 25.1831 59.9665C24.6722 60.0681 24.1426 60.016 23.6613 59.8166C23.18 59.6173 22.7686 59.2796 22.4792 58.8465C22.1897 58.4133 22.0353 57.9041 22.0353 57.3831C22.0355 56.6846 22.3131 56.0148 22.807 55.5209C23.3009 55.027 23.9708 54.7494 24.6693 54.7491Z" fill="#8D2813"/>
<path fill-rule="evenodd" clip-rule="evenodd" d="M16.5859 65.2242C16.8489 63.7856 17.6078 62.4846 18.7307 61.5477C19.8536 60.6108 21.2695 60.0972 22.7319 60.0962H26.5989C28.029 60.0969 29.4156 60.5879 30.5275 61.4872C31.6393 62.3866 32.4093 63.6399 32.7089 65.0382C32.3089 65.4472 31.8189 65.9152 31.2169 66.4432C31.1631 65.1528 30.6129 63.9332 29.6812 63.0388C28.7495 62.1444 27.5084 61.6444 26.2169 61.6432H23.1169C21.7895 61.644 20.5167 62.1717 19.578 63.1103C18.6394 64.0489 18.1117 65.3218 18.1109 66.6492V66.7052C17.5515 66.267 17.0403 65.7706 16.5859 65.2242Z" fill="#8D2813"/>
</svg>
