<svg width="64" height="71" viewBox="0 0 64 71" fill="none" xmlns="http://www.w3.org/2000/svg">
<path d="M46.8303 52.2612C46.746 52.2604 46.6622 52.2719 46.5812 52.2952V66.6272C46.6622 66.6505 46.746 66.6619 46.8303 66.6612H53.2032C53.2875 66.6619 53.3713 66.6505 53.4522 66.6272V52.2952C53.3713 52.2719 53.2875 52.2604 53.2032 52.2612H46.8303ZM46.8303 49.9612H53.2032C53.8048 49.8974 54.4076 50.0707 54.8835 50.4441C55.3594 50.8175 55.6711 51.3617 55.7522 51.9612V66.9612C55.6711 67.5607 55.3594 68.1049 54.8835 68.4783C54.4076 68.8517 53.8048 69.025 53.2032 68.9612H46.8303C46.2287 69.025 45.6259 68.8517 45.15 68.4783C44.6741 68.1049 44.3624 67.5607 44.2812 66.9612V51.9612C44.3624 51.3617 44.6741 50.8175 45.15 50.4441C45.6259 50.0707 46.2287 49.8974 46.8303 49.9612Z" fill="#8D2813"/>
<path d="M56.9578 70.11C52.3308 70.075 42.1658 70.11 42.0638 70.11C41.7588 70.11 41.4663 69.9889 41.2506 69.7732C41.035 69.5575 40.9138 69.265 40.9138 68.96C40.9138 68.655 41.035 68.3625 41.2506 68.1469C41.4663 67.9312 41.7588 67.81 42.0638 67.81C42.1638 67.81 52.3428 67.778 56.9808 67.81C58.259 67.9283 59.5471 67.7468 60.7428 67.28C60.8598 67.2269 60.9632 67.1478 61.045 67.0486C61.1268 66.9495 61.1849 66.833 61.2148 66.708C61.3448 65.529 61.2148 56.341 61.1268 50.228C61.0758 46.709 61.0318 43.67 61.0318 42.188C61.0318 39.761 60.4458 38.937 60.2068 38.81L59.6658 38.793C59.6001 38.8089 59.5332 38.8189 59.4658 38.823H59.3948C59.2785 38.8232 59.1628 38.8057 59.0518 38.771L51.0008 38.524C50.7031 38.5147 50.4207 38.3903 50.2129 38.1769C50.0051 37.9635 49.8882 37.6779 49.8868 37.38C49.8868 37.268 49.8288 26.072 49.8868 22.788C49.9108 22.2226 49.8702 21.6563 49.7658 21.1C47.9458 23.024 41.6068 30.308 39.0598 33.56C37.7408 35.243 36.6108 36.042 35.5348 36.042C35.4223 36.0419 35.31 36.0332 35.1988 36.016C34.8409 35.9549 34.5051 35.8013 34.2248 35.5705C33.9445 35.3396 33.7294 35.0396 33.6008 34.7C33.5588 34.5875 33.5348 34.469 33.5298 34.349C33.5128 33.964 33.1218 24.88 33.1808 21.903C33.2148 21.5434 33.1645 21.1808 33.0338 20.844C32.9695 20.8592 32.9085 20.886 32.8538 20.923C32.7658 21.023 32.5348 21.3 32.1918 21.714C32.1579 21.7618 32.1205 21.8069 32.0798 21.849C30.3328 23.967 26.1448 29.139 23.1008 33.2C22.4238 34.1716 21.5921 35.0256 20.6388 35.728C20.3173 35.9749 19.9489 36.1537 19.5561 36.2534C19.1632 36.3531 18.7541 36.3717 18.3538 36.308C17.859 36.1662 17.4115 35.8938 17.0584 35.5194C16.7052 35.1449 16.4594 34.6823 16.3468 34.18C16.3243 34.0864 16.3139 33.9903 16.3158 33.894C16.3158 33.808 16.4408 25.22 16.3158 21.974C16.3075 21.6939 16.274 21.4151 16.2158 21.141L2.3008 37.893V65.009C2.28669 65.4364 2.37715 65.8607 2.56432 66.2452C2.75149 66.6296 3.02971 66.9625 3.3748 67.215C3.71535 67.4732 4.09566 67.6741 4.5008 67.81H37.0948C37.3998 67.81 37.6923 67.9312 37.908 68.1469C38.1236 68.3625 38.2448 68.655 38.2448 68.96C38.2448 69.265 38.1236 69.5575 37.908 69.7732C37.6923 69.9889 37.3998 70.11 37.0948 70.11H4.3368C4.24654 70.1097 4.15661 70.099 4.0688 70.078C3.34443 69.8791 2.66324 69.5474 2.0598 69.1C1.41048 68.6363 0.883736 68.0216 0.525021 67.3088C0.166306 66.5961 -0.0136084 65.8068 0.00080229 65.009V37.478C0.000847922 37.2095 0.094964 36.9494 0.266802 36.743L14.6668 19.408C14.708 19.3581 14.7535 19.3119 14.8028 19.27C15.1142 18.9818 15.4993 18.7853 15.9155 18.7024C16.3317 18.6194 16.7627 18.6532 17.1608 18.8C18.5188 19.393 18.5908 21.27 18.6138 21.887C18.7328 24.962 18.6358 32.424 18.6138 33.741C18.6546 33.8607 18.7231 33.969 18.8138 34.057C18.8728 34.057 19.6348 33.98 21.2528 31.821C24.2688 27.8 28.2528 22.866 30.1228 20.599L31.7588 1.05903C31.7818 0.769206 31.9137 0.498848 32.128 0.302364C32.3423 0.105881 32.6231 -0.00214288 32.9138 3.222e-05H41.1498C41.4393 -0.000955405 41.7185 0.107185 41.9319 0.302898C42.1452 0.498611 42.2769 0.767522 42.3008 1.05603L44.1828 23.907C44.9188 23.062 45.6158 22.268 46.2288 21.58C46.1301 21.3887 46.0875 21.1735 46.1058 20.959L47.7728 1.05903C47.7956 0.771619 47.9256 0.503259 48.1369 0.307123C48.3482 0.110987 48.6255 0.00138478 48.9138 3.222e-05H57.1498C57.4431 -0.000526397 57.7256 0.110945 57.9396 0.311674C58.1535 0.512403 58.2827 0.787238 58.3008 1.08003L60.4688 36.522C61.1313 36.6172 61.7302 36.9684 62.1368 37.5C63.0457 38.886 63.4642 40.5364 63.3258 42.188C63.3258 43.653 63.3698 46.688 63.4208 50.195C63.4718 53.795 63.5308 57.884 63.5538 61.12C63.5948 66.861 63.5078 67.107 63.4078 67.389L63.4028 67.404C63.2823 67.8091 63.0815 68.1858 62.8123 68.5115C62.5431 68.8373 62.2109 69.1055 61.8358 69.3C60.3639 69.9423 58.759 70.2205 57.1568 70.111L56.9578 70.11ZM50.8648 18.734C51.8048 19.299 52.2258 20.601 52.1858 22.834C52.1388 25.478 52.1678 33.342 52.1858 36.264L58.1618 36.451L56.8618 15.157H48.8958L48.5708 19.045C48.6874 18.9215 48.8223 18.8166 48.9708 18.734C49.2628 18.5687 49.5923 18.4809 49.9278 18.479C50.2575 18.4776 50.5813 18.5657 50.8648 18.734ZM33.8938 18.69C34.6388 18.982 35.5188 19.79 35.4758 21.949C35.4278 24.406 35.7058 31.438 35.7958 33.606C36.357 33.2005 36.8481 32.706 37.2498 32.142C38.3688 30.713 40.3008 28.414 42.0748 26.342C42.0698 26.311 42.0658 26.279 42.0628 26.242L41.1488 15.148H32.8958L32.6088 18.578C32.7628 18.5489 32.9191 18.5342 33.0758 18.534C33.3559 18.5339 33.6334 18.5869 33.8938 18.69ZM56.7138 12.852L56.4748 8.94403H49.4158L49.0888 12.852H56.7138ZM40.9598 12.852L40.6378 8.94403H33.4148L33.0878 12.852H40.9598ZM56.3338 6.64403L56.0678 2.30003H49.9678L49.6038 6.64303L56.3338 6.64403ZM40.4488 6.64403L40.0908 2.30003H33.9708L33.6068 6.64303L40.4488 6.64403Z" fill="#484A53"/>
<path d="M20.0344 44.2561V58.6561H24.4344V44.2561H20.0344ZM19.7344 41.9561H24.7344C25.2648 41.9561 25.7735 42.1668 26.1486 42.5418C26.5237 42.9169 26.7344 43.4256 26.7344 43.9561V58.9561C26.7344 59.4865 26.5237 59.9952 26.1486 60.3703C25.7735 60.7453 25.2648 60.9561 24.7344 60.9561H19.7344C19.2039 60.9561 18.6952 60.7453 18.3202 60.3703C17.9451 59.9952 17.7344 59.4865 17.7344 58.9561V43.9561C17.7344 43.4256 17.9451 42.9169 18.3202 42.5418C18.6952 42.1668 19.2039 41.9561 19.7344 41.9561Z" fill="#8D2813"/>
<path d="M7.03437 44.2561V58.6561H11.4344V44.2561H7.03437ZM6.73438 41.9561H11.7344C12.2648 41.9561 12.7735 42.1668 13.1486 42.5418C13.5237 42.9169 13.7344 43.4256 13.7344 43.9561V58.9561C13.7344 59.4865 13.5237 59.9952 13.1486 60.3703C12.7735 60.7453 12.2648 60.9561 11.7344 60.9561H6.73438C6.20394 60.9561 5.69523 60.7453 5.32016 60.3703C4.94509 59.9952 4.73438 59.4865 4.73438 58.9561V43.9561C4.73438 43.4256 4.94509 42.9169 5.32016 42.5418C5.69523 42.1668 6.20394 41.9561 6.73438 41.9561Z" fill="#8D2813"/>
<path d="M32.0344 44.2561V58.6561H36.4344V44.2561H32.0344ZM31.7344 41.9561H36.7344C37.2648 41.9561 37.7735 42.1668 38.1486 42.5418C38.5237 42.9169 38.7344 43.4256 38.7344 43.9561V58.9561C38.7344 59.4865 38.5237 59.9952 38.1486 60.3703C37.7735 60.7453 37.2648 60.9561 36.7344 60.9561H31.7344C31.2039 60.9561 30.6952 60.7453 30.3202 60.3703C29.9451 59.9952 29.7344 59.4865 29.7344 58.9561V43.9561C29.7344 43.4256 29.9451 42.9169 30.3202 42.5418C30.6952 42.1668 31.2039 41.9561 31.7344 41.9561Z" fill="#8D2813"/>
<path d="M25.8174 48.9443H17.7344V46.6445H25.8174V48.9443Z" fill="#8D2813"/>
<path d="M12.8174 48.9443H4.73438V46.6445H12.8174V48.9443Z" fill="#8D2813"/>
<path d="M37.8174 48.9443H29.7344V46.6445H37.8174V48.9443Z" fill="#8D2813"/>
</svg>
