<svg width="70" height="70" viewBox="0 0 70 70" fill="none" xmlns="http://www.w3.org/2000/svg">
<path d="M31.4138 0.181825C27.2303 0.585278 23.1612 1.77801 19.4218 3.69684C12.7658 6.9818 7.33336 12.3074 3.91683 18.8968C3.01683 20.6968 2.98683 20.9888 3.67083 21.6178C3.87361 21.8267 4.14264 21.9587 4.43193 21.9911C4.72122 22.0236 5.01281 21.9546 5.25683 21.7958C5.71875 21.2134 6.12078 20.5859 6.45683 19.9228C8.73836 15.632 11.9529 11.9074 15.8638 9.02283L16.6708 8.43485L20.9098 10.0478C23.2478 10.9368 25.2438 11.7478 25.3398 11.8478C25.4574 11.9692 25.5255 12.13 25.5308 12.2988C25.5308 13.1468 26.7888 14.7188 27.9238 15.2798C29.5368 16.0868 30.8908 15.9638 33.1608 14.8008C35.0888 13.8008 35.8268 13.6108 37.2218 13.6798C38.8034 13.7819 40.2816 14.5013 41.3379 15.6829C42.3942 16.8645 42.944 18.4137 42.8688 19.9968C42.8863 20.3832 42.8081 20.768 42.6412 21.1169C42.4742 21.4658 42.2237 21.768 41.9118 21.9968C41.1943 22.2838 40.4532 22.508 39.6968 22.6668C37.0848 23.2958 36.0328 23.9928 35.2968 25.6198C34.565 28.18 34.0436 30.7957 33.7378 33.4408C33.7262 34.0557 33.8472 34.6659 34.0926 35.2299C34.338 35.7938 34.702 36.2982 35.1598 36.7088C36.1598 37.7088 36.8598 37.9808 38.7828 38.1448C39.5078 38.2128 40.4238 38.2948 40.8198 38.3498C41.4898 38.4318 41.5718 38.4178 41.9548 38.0498C42.0966 37.9368 42.2076 37.7899 42.2775 37.6226C42.3474 37.4553 42.374 37.2731 42.3548 37.0928C42.3548 36.0128 41.5478 35.5748 39.1548 35.4108C37.6778 35.3018 37.4188 35.2198 36.8988 34.6588C36.3788 34.0978 36.3788 33.3458 37.0218 30.1328C37.6368 27.0158 37.8968 26.2908 38.5118 25.9218C39.25 25.6323 40.0088 25.3983 40.7818 25.2218C42.8738 24.6888 43.5818 24.3328 44.3918 23.4218C44.8362 22.9131 45.1691 22.3169 45.3692 21.6718C45.5693 21.0266 45.6322 20.3468 45.5538 19.6758C45.6101 18.5286 45.4139 17.3831 44.9792 16.3199C44.5445 15.2568 43.8818 14.302 43.0378 13.5228C42.178 12.6338 41.1338 11.9441 39.9786 11.5024C38.8234 11.0606 37.5854 10.8774 36.3518 10.9658C34.8008 11.0521 33.2963 11.527 31.9768 12.3468C31.3787 12.6725 30.7457 12.9294 30.0898 13.1128C29.6112 13.0854 29.1553 12.9001 28.7933 12.5857C28.4314 12.2714 28.184 11.8459 28.0898 11.3758C27.8862 10.5982 27.4171 9.91624 26.7638 9.44785C26.5588 9.31085 24.8498 8.62784 22.9898 7.91684L19.5988 6.63184L21.2258 5.83884C26.2546 3.46307 31.8135 2.4315 37.3598 2.84482C39.9387 3.04709 42.4874 3.53303 44.9598 4.29382C45.7388 4.51282 45.9308 4.52585 46.2998 4.36185C46.5375 4.25168 46.7407 4.07889 46.8876 3.86203C47.0345 3.64517 47.1196 3.39239 47.1338 3.13083C47.1183 2.87843 47.0387 2.63418 46.9023 2.4212C46.766 2.20823 46.5776 2.03357 46.3548 1.91382C44.1455 1.15035 41.864 0.614265 39.5458 0.313844C36.8451 0.0181654 34.1227 -0.0260434 31.4138 0.181825Z" fill="#484A53"/>
<path d="M56.1496 0.263736C54.6644 0.62215 53.2501 1.22756 51.9656 2.05472C50.4511 3.11107 49.2207 4.52487 48.3836 6.17072C47.4511 7.9747 47.0106 9.99265 47.1067 12.0211C47.2027 14.0496 47.8318 16.0169 48.9306 17.7247C49.5046 18.5587 57.0386 28.2397 57.5036 28.7317C57.6913 28.9538 57.9464 29.1086 58.2301 29.1727C58.5138 29.2368 58.8106 29.2066 59.0756 29.0867C59.2666 28.9867 61.3756 26.4207 63.7516 23.3717C69.1796 16.4117 69.6856 15.4957 69.9186 12.0917C70.0284 10.485 69.7855 8.87374 69.2068 7.37085C68.6281 5.86796 67.7276 4.50984 66.5686 3.39173C65.2436 2.02401 63.5903 1.01845 61.7664 0.470889C59.9426 -0.0766763 58.0088 -0.147996 56.1496 0.263736ZM60.3336 2.92972C61.5966 3.21507 62.7821 3.77288 63.8071 4.56415C64.832 5.35542 65.6718 6.36108 66.2676 7.51075C66.8569 8.68002 67.1881 9.96229 67.2386 11.2707C67.2061 13.1273 66.6414 14.9356 65.6116 16.4807C64.6956 17.7527 58.5836 25.5597 58.5016 25.5597C58.4196 25.5597 54.9196 21.0887 52.2806 17.6427C50.4486 15.2367 49.8466 13.7187 49.8466 11.4757C49.8114 10.0396 50.1564 8.61967 50.8466 7.35974C51.7374 5.6958 53.143 4.36499 54.8531 3.56644C56.5632 2.76789 58.4859 2.5445 60.3336 2.92972Z" fill="#8D2813"/>
<path d="M57.0088 6.08777C55.6496 6.46781 54.477 7.33337 53.7133 8.52036C52.9497 9.70734 52.6482 11.1333 52.8658 12.5278C53.0638 13.7084 53.6243 14.7981 54.4695 15.6459C55.3147 16.4936 56.4028 17.0573 57.5828 17.2588C58.3683 17.3833 59.1711 17.3431 59.9402 17.1407C60.7092 16.9383 61.4278 16.5781 62.0502 16.0831C62.6726 15.588 63.1852 14.9689 63.5554 14.2651C63.9257 13.5613 64.1455 12.7881 64.2008 11.9948C64.2694 11.1788 64.1552 10.3579 63.8667 9.59158C63.5782 8.82528 63.1225 8.13291 62.5328 7.56479C61.8273 6.84852 60.9432 6.33388 59.9719 6.07419C59.0007 5.8145 57.9777 5.81917 57.0088 6.08777ZM59.8669 8.97278C60.3182 9.20568 60.7109 9.53763 61.0158 9.94379C61.1932 10.1798 61.321 10.4492 61.3914 10.7358C61.4619 11.0225 61.4736 11.3205 61.4258 11.6118C61.4736 11.9031 61.4619 12.201 61.3914 12.4877C61.321 12.7744 61.1932 13.0438 61.0158 13.2798C60.6103 13.8473 60.026 14.2622 59.3565 14.458C58.6871 14.6538 57.9713 14.6192 57.3239 14.3598C56.7793 14.1438 56.3162 13.7625 55.9998 13.2696C55.6833 12.7766 55.5295 12.1968 55.5598 11.6118C55.5244 11.22 55.5814 10.8253 55.7262 10.4595C55.8711 10.0938 56.0997 9.76707 56.3938 9.50577C56.8322 9.04515 57.411 8.74304 58.0395 8.64676C58.668 8.55048 59.3107 8.6655 59.8669 8.97379V8.97278Z" fill="#8D2813"/>
<path d="M66.4168 24.7109C65.9248 25.2169 65.8968 25.6679 66.2668 27.1719C67.5935 32.556 67.5229 38.1897 66.0618 43.5389C65.6788 44.9749 65.6618 45.2619 65.9388 45.7809C66.0474 45.9745 66.2044 46.1365 66.3945 46.251C66.5846 46.3656 66.8013 46.4287 67.0231 46.4343C67.245 46.4398 67.4645 46.3876 67.6601 46.2827C67.8557 46.1778 68.0207 46.0238 68.1388 45.8359C68.7707 44.1657 69.2246 42.4334 69.4928 40.6679C70.2442 35.8929 70.0303 31.0158 68.8638 26.3249C68.5088 24.8759 68.2078 24.4789 67.4148 24.3699C67.2337 24.3145 67.0398 24.3177 66.8606 24.3789C66.6814 24.4401 66.5261 24.5563 66.4168 24.7109Z" fill="#484A53"/>
<path d="M1.75693 25.3405C1.57003 25.4569 1.41125 25.6133 1.29202 25.7984C1.17279 25.9836 1.09608 26.1928 1.06739 26.4111C1.0387 26.6294 1.05876 26.8514 1.12611 27.061C1.19347 27.2707 1.30645 27.4628 1.45693 27.6235C1.60877 27.7821 1.79852 27.8994 2.00827 27.9642C2.21801 28.0291 2.44083 28.0395 2.6557 27.9944C2.87056 27.9492 3.07037 27.8501 3.23628 27.7063C3.40219 27.5625 3.52872 27.3788 3.60393 27.1725C3.73234 26.9146 3.77618 26.6228 3.72921 26.3385C3.68225 26.0543 3.54686 25.7921 3.34232 25.5892C3.13777 25.3863 2.87447 25.2531 2.58985 25.2084C2.30523 25.1638 2.01377 25.21 1.75693 25.3405Z" fill="#484A53"/>
<path d="M11.5694 27.4047C8.56595 27.9131 5.81046 29.3877 3.72139 31.6047C1.67416 33.7946 0.395196 36.5913 0.0776862 39.5723C-0.239823 42.5533 0.42137 45.5566 1.96139 48.1287C2.66139 49.2907 12.7774 62.2397 13.1324 62.4287C13.3317 62.5309 13.5515 62.587 13.7754 62.5927C13.9993 62.587 14.2191 62.5309 14.4184 62.4287C14.6784 62.2787 23.2654 51.4077 24.8514 49.2067C26.0043 47.6059 26.8185 45.7869 27.2444 43.8607C27.285 43.5899 27.3537 43.3242 27.4494 43.0677C27.5174 42.9447 28.1334 43.7237 29.3494 45.4877C30.3334 46.9097 31.2634 48.1817 31.4144 48.3177C31.633 48.4662 31.8884 48.5513 32.1524 48.5637C32.3791 48.5769 32.6054 48.5315 32.8095 48.4319C33.0136 48.3323 33.1887 48.1818 33.3178 47.9949C33.4469 47.8081 33.5257 47.5911 33.5466 47.365C33.5676 47.1388 33.53 46.9111 33.4374 46.7037C33.3284 46.4577 31.8514 44.2977 30.1834 41.8907C27.9004 38.6087 27.0834 37.3097 26.8744 36.6907C25.7426 33.2779 23.3172 30.4454 20.1194 28.8017C17.5027 27.4022 14.4955 26.9108 11.5694 27.4047ZM16.8474 30.4127C18.635 30.9299 20.263 31.8905 21.5801 33.2052C22.8972 34.5199 23.8608 36.146 24.3814 37.9327C24.6966 38.9028 24.8282 39.9233 24.7694 40.9417C24.8128 41.8603 24.73 42.7805 24.5234 43.6767C24.1766 44.9173 23.6515 46.101 22.9644 47.1907C22.0754 48.4907 13.8994 58.8537 13.7764 58.8537C13.6534 58.8537 5.47639 48.4897 4.58839 47.1907C3.90129 46.101 3.37614 44.9173 3.02939 43.6767C2.8228 42.7805 2.74003 41.8603 2.78339 40.9417C2.72345 39.9221 2.85436 38.9002 3.16939 37.9287C3.76554 35.9099 4.92007 34.1008 6.49987 32.7097C8.07967 31.3187 10.0204 30.4025 12.0984 30.0667C13.6904 29.882 15.3029 29.9994 16.8514 30.4127H16.8474Z" fill="#8D2813"/>
<path d="M11.7368 33.5719C9.67324 34.1853 7.91902 35.5582 6.82775 37.4139C6.23422 38.5965 5.89881 39.8918 5.84375 41.2139C5.89363 43.1687 6.62393 45.0448 7.90875 46.5189C8.76102 47.4509 9.8233 48.1663 11.0074 48.6056C12.1916 49.0449 13.4634 49.1955 14.7173 49.0448C15.9713 48.8941 17.1713 48.4466 18.2176 47.7393C19.264 47.032 20.1265 46.0853 20.7337 44.9779C21.3184 43.8068 21.6493 42.5256 21.7048 41.2179C21.6497 39.8958 21.3143 38.6005 20.7207 37.4179C19.6219 35.5373 17.8386 34.1542 15.7438 33.5579C14.4205 33.2957 13.0582 33.3005 11.7368 33.5719ZM15.2918 36.2779C16.6001 36.7032 17.6961 37.6131 18.3548 38.8209C18.6693 39.4392 18.8577 40.114 18.9089 40.8059C18.9601 41.4977 18.8731 42.1928 18.653 42.8507C18.4328 43.5087 18.084 44.1162 17.6268 44.638C17.1696 45.1597 16.6131 45.5853 15.9897 45.8899C15.3072 46.2399 14.5346 46.3752 13.7738 46.2779C13.0137 46.3765 12.2416 46.243 11.5588 45.8949C10.7247 45.4891 10.0143 44.8677 9.50126 44.0949C8.98823 43.3222 8.69123 42.4263 8.64104 41.5002C8.59085 40.574 8.7893 39.6512 9.21582 38.8276C9.64234 38.0039 10.2814 37.3094 11.0667 36.8159C11.4211 36.6036 11.7968 36.4293 12.1878 36.2959C13.2072 36.0506 14.2695 36.0445 15.2918 36.2779Z" fill="#8D2813"/>
<path d="M58.0074 34.8426C57.7456 34.9647 57.5249 35.1602 57.372 35.4053C57.2192 35.6505 57.1408 35.9347 57.1464 36.2236C57.0692 36.5428 57.0921 36.878 57.212 37.1837C57.3318 37.4894 57.5429 37.7509 57.8164 37.9326C58.8824 38.4936 59.8534 37.7546 59.8534 36.3736C59.8935 36.0839 59.8428 35.7889 59.708 35.5294C59.5733 35.2698 59.3614 35.0585 59.1014 34.9246C58.9422 34.8164 58.7574 34.7518 58.5654 34.7375C58.3734 34.7231 58.181 34.7593 58.0074 34.8426Z" fill="#484A53"/>
<path d="M54.6601 40.2028C53.9761 40.6128 53.7031 40.9958 53.7031 41.5978C53.7092 41.8933 53.8131 42.1785 53.9986 42.4087C54.184 42.6389 54.4406 42.801 54.7281 42.8698C55.089 42.8852 55.4489 42.8209 55.7822 42.6814C56.1154 42.5419 56.4138 42.3307 56.6561 42.0628C56.7861 41.9411 56.8812 41.787 56.9316 41.6163C56.9821 41.4456 56.986 41.2645 56.9431 41.0918C56.9076 40.8451 56.8072 40.6123 56.6523 40.4172C56.4973 40.2221 56.2933 40.0716 56.061 39.9811C55.8288 39.8907 55.5767 39.8636 55.3306 39.9025C55.0845 39.9415 54.8531 40.0451 54.6601 40.2028Z" fill="#484A53"/>
<path d="M42.2848 40.8587C42.0895 40.948 41.9179 41.0819 41.7839 41.2497C41.6499 41.4175 41.5572 41.6145 41.5133 41.8247C41.4694 42.0349 41.4756 42.2525 41.5312 42.4599C41.5869 42.6673 41.6906 42.8587 41.8338 43.0187C42.1119 43.2217 42.4305 43.3625 42.7678 43.4315C43.1051 43.5005 43.4533 43.4962 43.7888 43.4187C44.0574 43.3492 44.2982 43.1989 44.4785 42.988C44.6588 42.7771 44.7699 42.5159 44.7967 42.2397C44.8236 41.9636 44.7649 41.6859 44.6286 41.4442C44.4923 41.2025 44.285 41.0086 44.0348 40.8887C43.467 40.7074 42.8585 40.697 42.2848 40.8587Z" fill="#484A53"/>
<path d="M48.4333 40.8587C48.238 40.948 48.0664 41.0819 47.9324 41.2497C47.7983 41.4175 47.7056 41.6145 47.6617 41.8247C47.6178 42.0349 47.624 42.2525 47.6797 42.4599C47.7354 42.6673 47.839 42.8587 47.9823 43.0187C48.2604 43.2217 48.5789 43.3625 48.9162 43.4315C49.2536 43.5005 49.6018 43.4962 49.9373 43.4187C50.2059 43.3492 50.4466 43.1989 50.6269 42.988C50.8072 42.7771 50.9183 42.5159 50.9451 42.2397C50.972 41.9636 50.9133 41.6859 50.777 41.4442C50.6407 41.2025 50.4335 41.0086 50.1833 40.8887C49.6155 40.7074 49.0069 40.697 48.4333 40.8587Z" fill="#484A53"/>
<path d="M38.1366 43.4716C37.5793 43.9086 37.1846 44.5199 37.0156 45.2076C37.0253 45.5734 37.1732 45.9219 37.4294 46.1831C37.6855 46.4443 38.0311 46.5988 38.3966 46.6156C38.8514 46.5268 39.2616 46.2838 39.558 45.9276C39.8544 45.5715 40.0189 45.124 40.0236 44.6606C40.0138 44.4417 39.9511 44.2284 39.8409 44.039C39.7307 43.8496 39.5764 43.6897 39.391 43.5728C39.2056 43.456 38.9946 43.3858 38.7762 43.3682C38.5578 43.3505 38.3384 43.386 38.1366 43.4716Z" fill="#484A53"/>
<path d="M48.3939 45.4676C48.1958 45.616 48.0402 45.814 47.9429 46.0416C47.7649 46.4926 46.9999 55.6266 46.9999 57.2126C46.973 58.21 47.1481 59.2025 47.5147 60.1305C47.8813 61.0585 48.4317 61.9028 49.1329 62.6126L50.0079 63.5286L48.5309 64.2126C43.4281 66.6265 37.7713 67.6279 32.1499 67.1126C31.6367 67.0747 31.1257 67.0109 30.6189 66.9216C30.767 66.5232 30.9501 66.1387 31.1659 65.7726L31.7539 64.6646H32.4379C33.5256 64.7158 34.6042 64.4447 35.5384 63.8852C36.4726 63.3257 37.2207 62.5027 37.6889 61.5196C38.0346 60.6755 38.1843 59.764 38.1269 58.8536C38.0446 57.9555 38.1955 57.0514 38.5649 56.2286C38.9889 55.3946 39.0159 55.0796 38.7019 54.5466C38.1409 53.5896 36.9649 53.6576 36.2819 54.6836C35.7079 55.5586 35.5159 56.3926 35.4069 58.4576C35.3069 60.2896 35.2839 60.4266 34.9279 60.8916C34.3279 61.6706 33.8749 61.8346 32.0979 61.9306C31.4753 61.9306 30.8551 62.0085 30.2519 62.1626C29.6938 62.8485 29.2166 63.5964 28.8299 64.3916C27.9549 65.9636 27.6399 66.4286 27.4629 66.3916C27.3399 66.3506 26.8199 66.2006 26.2869 66.0636C24.1229 65.4475 22.0254 64.6184 20.0249 63.5886C18.7529 62.9186 18.3019 62.8886 17.7419 63.3976C17.488 63.582 17.317 63.859 17.2659 64.1686C17.2148 64.4782 17.2878 64.7954 17.4689 65.0516C17.7009 65.4206 18.1389 65.6946 19.6979 66.4466C23.5757 68.3544 27.7785 69.5139 32.0859 69.8646C40.8355 70.5502 49.5281 67.963 56.4789 62.6046C57.9141 61.4232 59.2829 60.1633 60.5789 58.8306C61.2219 58.1196 61.3579 57.8876 61.3579 57.4906C61.3676 57.2877 61.3308 57.0853 61.2502 56.8988C61.1697 56.7124 61.0475 56.5468 60.893 56.4149C60.7386 56.2829 60.556 56.1881 60.3592 56.1376C60.1625 56.0871 59.9568 56.0823 59.7579 56.1236C58.9942 56.6226 58.292 57.21 57.6659 57.8736C56.6168 58.891 55.5121 59.8495 54.3569 60.7446L52.7569 61.9446L52.3189 61.7126C51.4159 61.132 50.6693 60.3384 50.1449 59.4016C49.6529 58.3626 49.6529 57.0496 50.1309 51.3616C50.5309 46.7806 50.5409 46.3026 50.3499 45.9336C50.239 45.718 50.0799 45.5308 49.8849 45.3866C49.6462 45.2875 49.3883 45.2434 49.1302 45.2574C48.8721 45.2714 48.6205 45.3433 48.3939 45.4676Z" fill="#484A53"/>
<path d="M34.6148 48.8438C34.3355 49.0743 34.1153 49.3683 33.9727 49.7013C33.83 50.0342 33.769 50.3965 33.7948 50.7578C33.8338 51.0334 33.9692 51.2864 34.177 51.4717C34.3848 51.6569 34.6515 51.7626 34.9298 51.7698C35.1038 51.8096 35.2851 51.8029 35.4556 51.7502C35.6261 51.6975 35.7797 51.6008 35.9008 51.4698C37.1728 50.4028 36.9808 48.7628 35.5728 48.5698C35.4032 48.5265 35.2251 48.529 35.0568 48.5772C34.8884 48.6253 34.7359 48.7173 34.6148 48.8438Z" fill="#484A53"/>
<path d="M63.6016 50.5666C63.3544 50.6942 63.1441 50.8831 62.9908 51.1153C62.8376 51.3475 62.7466 51.6152 62.7266 51.8926C62.7352 52.1888 62.8413 52.4738 63.0284 52.7035C63.2155 52.9332 63.4731 53.0948 63.7614 53.1631C64.0497 53.2315 64.3524 53.2029 64.6228 53.0816C64.8931 52.9604 65.1159 52.7534 65.2566 52.4926C65.4061 52.2619 65.4714 51.9867 65.4416 51.7134C65.4117 51.4402 65.2884 51.1856 65.0926 50.9926C64.9137 50.7826 64.6767 50.6301 64.4114 50.5544C64.1462 50.4786 63.8644 50.4828 63.6016 50.5666Z" fill="#484A53"/>
<path d="M31.6576 53.7266C31.1332 53.8687 30.6684 54.1754 30.3316 54.6016C30.2007 54.7992 30.1269 55.0289 30.1181 55.2657C30.1093 55.5024 30.1659 55.737 30.2818 55.9437C30.3976 56.1504 30.5682 56.3211 30.7747 56.4372C30.9813 56.5533 31.2158 56.6102 31.4526 56.6016C31.8284 56.5847 32.1947 56.4778 32.5206 56.2898C32.8466 56.1019 33.1226 55.8385 33.3256 55.5216C33.4188 55.2833 33.443 55.0235 33.3952 54.772C33.3474 54.5206 33.2296 54.2877 33.0553 54.1002C32.8811 53.9128 32.6575 53.7782 32.4103 53.7121C32.163 53.646 31.9021 53.6511 31.6576 53.7266Z" fill="#484A53"/>
<path d="M25.5099 56.5986C25.2514 56.6983 25.0266 56.8695 24.8619 57.0923C24.6972 57.3151 24.5994 57.5802 24.5799 57.8566C24.566 58.1225 24.6329 58.3864 24.772 58.6135C24.9111 58.8406 25.1157 59.0202 25.3589 59.1286C25.7829 59.3336 25.8789 59.3336 26.4939 59.1286C27.8069 58.6906 28.2719 57.5426 27.4649 56.7226C27.1989 56.4882 26.8625 56.3489 26.5086 56.3265C26.1548 56.304 25.8035 56.3997 25.5099 56.5986Z" fill="#484A53"/>
</svg>
