<svg width="90" height="90" viewBox="0 0 90 90" fill="none" xmlns="http://www.w3.org/2000/svg">
<g clip-path="url(#clip0_878_30)">
<path d="M43.548 3.61099V7.22198L42.148 7.33099C33.1421 8.01398 24.6839 11.9192 18.323 18.331C11.905 24.6798 7.99825 33.1346 7.323 42.137L7.214 43.552H0V46.452H7.222L7.331 47.852C8.00586 56.86 11.9123 65.3209 18.331 71.677C24.6967 78.082 33.1522 81.9859 42.156 82.677L43.556 82.786V90H46.456V82.778L47.871 82.669C52.7707 82.287 57.5482 80.9495 61.934 78.732C67.7617 75.811 72.7344 71.4319 76.3687 66.0202C80.003 60.6086 82.1752 54.3486 82.674 47.849L82.783 46.449H90V43.549H82.778L82.669 42.134C82.1698 35.6368 79.9973 29.3794 76.3629 23.9707C72.7285 18.562 67.7559 14.1862 61.929 11.269C57.5432 9.05147 52.7657 7.71397 47.866 7.332L46.451 7.22299V0H43.551L43.548 3.61099ZM43.548 12.321V14.462L41.625 14.68C36.5869 15.2572 31.7721 17.0808 27.6157 19.9859C23.4592 22.891 20.0923 26.786 17.819 31.319C16.2254 34.4975 15.1999 37.9302 14.789 41.462C14.589 43.748 14.825 43.549 12.339 43.549H10.161V43.114C10.3354 40.9704 10.6629 38.8419 11.141 36.745C12.666 30.478 15.901 24.7575 20.4856 20.2207C25.0702 15.6839 30.8243 12.5091 37.107 11.05C39.0073 10.6233 40.9355 10.3322 42.877 10.179L43.548 10.161V12.321ZM49.391 10.434C56.3925 11.3109 62.9614 14.2975 68.225 18.9969C73.4885 23.6964 77.1974 29.8862 78.859 36.744C79.3371 38.8409 79.6646 40.9694 79.839 43.113V43.548H75.539L75.321 41.625C74.8162 37.2038 73.3513 32.9463 71.0287 29.1506C68.7061 25.3549 65.582 22.1128 61.875 19.651C57.7317 16.9449 53.0057 15.2598 48.085 14.734L46.543 14.607L46.489 12.375L46.435 10.161H46.889C47.141 10.161 48.266 10.289 49.391 10.434ZM45 20.323H46.452V17.492L47.867 17.637C52.3612 18.0829 56.675 19.6352 60.423 22.155C63.3089 24.2395 65.8395 26.7761 67.917 29.667C70.4293 33.457 71.9974 37.7937 72.49 42.314L72.617 43.548H69.677V46.448H72.617L72.49 47.664C71.9656 52.4929 70.2307 57.1112 67.446 61.091C65.639 63.4968 63.5008 65.635 61.095 67.442C57.1203 70.2236 52.5086 71.9584 47.686 72.486L46.452 72.613V69.673H43.552V72.613L42.336 72.486C37.8113 71.9882 33.47 70.4206 29.671 67.913C26.7801 65.8355 24.2435 63.3049 22.159 60.419C19.6392 56.671 18.0869 52.3572 17.641 47.863L17.496 46.448H20.327V43.548H17.492L17.637 42.133C18.2715 35.9028 21.0485 30.0859 25.494 25.675C27.631 23.4567 30.1516 21.6432 32.934 20.322C35.8237 18.8539 38.9622 17.9382 42.188 17.622L43.458 17.513L43.512 18.913L43.566 20.328L45 20.323ZM14.589 47.667C15.1235 53.5375 17.3343 59.1306 20.958 63.78C22.6431 65.8194 24.5274 67.6857 26.583 69.351C31.1622 72.7405 36.5729 74.8282 42.242 75.393L43.548 75.52V77.679C43.548 80.179 43.802 79.965 41.189 79.657C33.5171 78.8157 26.3456 75.4371 20.812 70.057C16.0445 65.4999 12.6876 59.6683 11.141 53.257C10.6629 51.1601 10.3354 49.0317 10.161 46.888V46.453H14.48L14.589 47.667ZM79.839 46.887C79.6646 49.0306 79.3371 51.1591 78.859 53.256C77.352 59.4614 74.1663 65.1324 69.6509 69.6479C65.1354 74.1633 59.4644 77.349 53.259 78.856C51.1621 79.3341 49.0337 79.6616 46.89 79.836H46.455V75.517L47.78 75.39C52.9873 74.897 57.9823 73.0816 62.2911 70.1162C66.5999 67.1508 70.0796 63.1337 72.4 58.446C73.9858 55.0751 74.9977 51.4631 75.394 47.759L75.521 46.453H79.84L79.839 46.887Z" fill="#484A53"/>
<path d="M43.2931 29.2138C41.9498 29.6278 40.7244 30.3555 39.7181 31.3368C39.1986 31.9497 38.7597 32.6265 38.4121 33.3508C37.9225 34.2549 37.7198 35.2867 37.8311 36.3088C37.7117 37.3876 37.9473 38.4759 38.5021 39.4088C39.222 40.9613 40.4876 42.1949 42.0581 42.8748C42.9563 43.3626 43.9818 43.5652 44.9981 43.4558C46.0143 43.5652 47.0398 43.3626 47.9381 42.8748C49.5085 42.1949 50.7741 40.9613 51.4941 39.4088C52.0515 38.4693 52.2871 37.3735 52.1651 36.2878C52.287 35.2022 52.0514 34.1064 51.4941 33.1668C50.9508 31.9928 50.0936 30.9918 49.0171 30.2745C47.9406 29.5571 46.6867 29.1513 45.3941 29.1018C44.6917 29.0654 43.9875 29.103 43.2931 29.2138ZM46.3411 32.1538C47.1817 32.4899 47.9103 33.0564 48.4432 33.7883C48.976 34.5202 49.2914 35.3876 49.3531 36.2908C49.3007 37.429 48.825 38.5065 48.0194 39.3121C47.2137 40.1178 46.1362 40.5934 44.9981 40.6458C43.8599 40.5934 42.7824 40.1178 41.9767 39.3121C41.1711 38.5065 40.6955 37.429 40.6431 36.2908C40.6428 35.7235 40.7642 35.1627 40.999 34.6463C41.2337 34.1298 41.5765 33.6696 42.0041 33.2968C42.5307 32.6957 43.2251 32.2659 43.9979 32.0626C44.7708 31.8592 45.5868 31.8917 46.3411 32.1558V32.1538Z" fill="#8D2813"/>
<path d="M36.0382 46.6519C34.6922 47.0477 33.4643 47.769 32.4632 48.7519C31.9437 49.3648 31.5048 50.0416 31.1572 50.7659L30.5762 51.9819L30.5222 56.0099L30.4492 60.0379L30.9212 60.5099L31.3752 60.9639H58.6292L59.0832 60.5099L59.5552 60.0379L59.4822 56.0099L59.4282 51.9819L58.8472 50.7659C58.1653 49.1987 56.9315 47.9364 55.3802 47.2189L54.0012 46.5479L45.3822 46.5119C40.5202 46.4879 36.4372 46.5609 36.0382 46.6519ZM53.6032 49.5729C54.8547 50.1169 55.8532 51.1154 56.3972 52.3669C56.5709 53.4344 56.6439 54.5158 56.6152 55.5969V58.0649H33.3892V55.5969C33.3605 54.5158 33.4335 53.4344 33.6072 52.3669C34.1578 51.1614 35.1057 50.1814 36.2922 49.5909C42.0583 49.2946 47.8366 49.2886 53.6032 49.5729Z" fill="#8D2813"/>
</g>
<defs>
<clipPath id="clip0_878_30">
<rect width="90" height="90" fill="white"/>
</clipPath>
</defs>
</svg>
