<svg width="97" height="90" viewBox="0 0 97 90" fill="none" xmlns="http://www.w3.org/2000/svg">
<path d="M44.8659 0.312917C42.7008 0.743025 40.6172 1.51215 38.6919 2.59191C36.8919 3.61791 36.7539 3.73192 36.6029 4.51092C36.5429 4.70655 36.5454 4.91605 36.6101 5.11019C36.6748 5.30433 36.7985 5.47344 36.9639 5.59392C37.6479 6.27792 38.1419 6.22093 39.8699 5.23293C41.3462 4.36042 42.9387 3.70154 44.5999 3.27593C47.2347 2.82329 49.9285 2.83614 52.5589 3.31392C55.5029 4.04583 58.2008 5.54373 60.3787 7.65554C62.5565 9.76735 64.1367 12.4178 64.9589 15.3379C65.4114 16.7994 65.5791 18.3342 65.4529 19.8589C65.6012 22.2675 65.1302 24.6739 64.0849 26.8489C63.4866 28.1922 62.7132 29.4505 61.7849 30.5909C61.3765 30.1422 61.0255 29.6443 60.7399 29.1089C59.3022 27.0605 57.5963 25.214 55.6679 23.6189L54.7559 22.9539L55.1359 22.4219C55.9346 21.2331 56.4121 19.8579 56.522 18.43C56.6318 17.002 56.3704 15.5699 55.7629 14.2729C54.9059 12.7184 53.6289 11.4363 52.0779 10.5729C51.116 10.1064 50.0711 9.83505 49.0037 9.77462C47.9363 9.71419 46.8674 9.86585 45.859 10.2208C44.8505 10.5758 43.9224 11.1271 43.1282 11.8429C42.334 12.5586 41.6895 13.4247 41.2319 14.3909C40.6852 15.6017 40.4394 16.9268 40.5155 18.2531C40.5916 19.5794 40.9873 20.8676 41.6689 22.0079L42.2199 22.9009L41.5199 23.4709C39.5299 25.1369 37.7559 27.0451 36.2389 29.1509L35.3079 30.6509L34.8899 30.1379C33.7956 28.6956 32.9426 27.0854 32.3639 25.3699C31.5043 22.8699 31.2424 20.2032 31.5993 17.5838C31.9562 14.9643 32.9219 12.4649 34.4189 10.2859C35.2929 9.01291 35.4069 8.19593 34.8189 7.60793C34.6704 7.46991 34.4939 7.36538 34.3015 7.30141C34.109 7.23745 33.9051 7.21553 33.7035 7.23714C33.5018 7.25876 33.3072 7.32339 33.1327 7.42669C32.9582 7.52999 32.8079 7.66955 32.6919 7.83593C30.8899 10.205 29.6318 12.9418 29.0069 15.8519C28.48 18.4462 28.4705 21.1189 28.979 23.7168C29.4875 26.3148 30.5039 28.7867 31.9699 30.9909C34.0043 33.835 36.67 36.169 39.7579 37.8099C41.4945 38.6153 43.3266 39.1963 45.2099 39.5389C46.0269 39.6529 46.8099 39.7859 46.9389 39.8239C47.1099 39.8809 47.1669 41.1349 47.1669 45.3519V50.8229L41.4669 54.4889L35.7669 58.1739L34.3989 56.7099C32.5715 54.6582 30.3211 53.0268 27.8028 51.9282C25.2844 50.8296 22.5579 50.2898 19.8109 50.3459C16.7026 50.3079 13.6301 51.0118 10.8484 52.3994C8.06678 53.7869 5.65623 55.818 3.81692 58.3239C2.32397 60.4298 1.19996 62.7742 0.492923 65.2569C0.0574653 66.8652 -0.109446 68.5343 -0.00107669 70.1969C-0.11371 71.8405 0.0533267 73.4912 0.492923 75.0789C1.34607 78.3595 3.01392 81.3716 5.34177 83.8356C7.66962 86.2996 10.5821 88.1358 13.8089 89.1739C14.4622 89.405 15.1369 89.5705 15.8229 89.6679C16.0801 89.6402 16.3252 89.5442 16.5329 89.39C16.7405 89.2357 16.9032 89.0287 17.0039 88.7905C17.1047 88.5522 17.1399 88.2914 17.106 88.0349C17.0721 87.7785 16.9702 87.5358 16.8109 87.3319C16.1393 86.9521 15.4254 86.6523 14.6839 86.4389C12.2339 85.6389 8.83292 83.7039 8.79492 83.1149C9.48812 81.6283 10.369 80.2366 11.4159 78.9739C12.5879 77.6152 13.9433 76.4262 15.4429 75.4409C17.7429 73.9589 17.8739 73.4839 16.3929 71.9269C15.8413 71.4336 15.4029 70.8267 15.1077 70.148C14.8125 69.4693 14.6676 68.7349 14.6829 67.9949C14.6868 66.9539 15.0065 65.9385 15.5998 65.083C16.193 64.2275 17.032 63.5722 18.0057 63.2037C18.9794 62.8353 20.042 62.771 21.053 63.0194C22.064 63.2678 22.9758 63.8172 23.6679 64.5949C24.1225 65.0356 24.4767 65.5691 24.7062 66.1592C24.9358 66.7493 25.0353 67.3819 24.9979 68.0139C25.0244 68.7618 24.8808 69.506 24.578 70.1903C24.2753 70.8747 23.8212 71.4815 23.2499 71.9649C21.7679 73.4469 21.8819 73.8839 24.1619 75.3839C26.7929 77.1001 28.9487 79.4519 30.4299 82.2219C30.8479 83.0219 30.8479 83.0769 30.5249 83.4379C29.1596 84.5247 27.6438 85.4076 26.0249 86.0589C25.056 86.425 24.0586 86.711 23.0429 86.9139C22.1499 87.0849 21.2429 87.2559 21.0099 87.3139C20.8486 87.3704 20.7001 87.4582 20.5729 87.5723C20.4457 87.6864 20.3424 87.8247 20.2689 87.9789C20.1538 88.1446 20.0874 88.3393 20.0773 88.5408C20.0673 88.7423 20.1139 88.9426 20.2119 89.1189C20.5349 89.9189 21.0119 90.1069 22.2639 89.9549C25.5433 89.5233 28.6665 88.2929 31.3591 86.372C34.0518 84.4511 36.2315 81.8983 37.7069 78.9379C38.9691 76.192 39.6669 73.2206 39.7589 70.1999C39.6678 67.2016 38.9832 64.2511 37.7449 61.5189L37.2889 60.6069L39.7009 59.0299C46.9189 54.3379 48.4959 53.3689 48.7239 53.5019C48.8949 53.5969 58.0889 59.5019 59.6649 60.5109C59.4801 61.03 59.2644 61.5376 59.0189 62.0309C57.8372 64.5196 57.2703 67.2556 57.3659 70.0089C57.3083 71.4158 57.409 72.8246 57.6659 74.2089C58.4413 77.841 60.2078 81.1873 62.7695 83.8764C65.3311 86.5655 68.5877 88.4923 72.1779 89.4429C73.8298 89.9207 75.556 90.0882 77.2689 89.9369C78.845 90.0342 80.4268 89.8933 81.9609 89.5189C85.441 88.62 88.62 86.8132 91.173 84.2832C93.726 81.7532 95.5615 78.5907 96.4919 75.1189C96.9287 73.5177 97.0956 71.855 96.9859 70.1989C97.0942 68.5366 96.9273 66.8678 96.4919 65.2599C95.8166 62.8735 94.765 60.6101 93.3769 58.5549C92.1157 56.8443 90.6045 55.3331 88.8939 54.0719C88.1939 53.6539 87.9819 53.5969 87.4879 53.7719C87.2047 53.893 86.9606 54.0904 86.7828 54.3419C86.605 54.5935 86.5005 54.8895 86.4809 55.1969C87.1665 56.1429 87.9494 57.0144 88.8169 57.7969C90.0376 58.9193 91.0985 60.204 91.9699 61.6149C94.1705 65.4864 94.79 70.0584 93.6989 74.3759C93.1028 76.4191 92.1998 78.3599 91.0209 80.1319L90.4129 80.9489L89.4819 79.4669C87.9837 77.1268 86.0565 75.0911 83.8019 73.4669C83.4019 73.1819 83.3839 73.1249 83.6879 72.8209C84.4365 71.7129 84.9356 70.4556 85.1509 69.1359C85.3674 67.44 85.0456 65.7189 84.231 64.2158C83.4163 62.7126 82.15 61.5034 80.6109 60.7589C79.6932 60.2758 78.6655 60.04 77.6289 60.0749C76.4487 59.9501 75.2559 60.1149 74.1538 60.5551C73.0517 60.9952 72.0735 61.6975 71.3039 62.6009C70.008 63.8756 69.2646 65.6084 69.2339 67.4259C69.0453 69.0605 69.4063 70.7113 70.2599 72.1179L70.9249 73.2179L70.3929 73.6179C67.821 75.4832 65.6882 77.8884 64.1439 80.6649C63.9729 80.9649 63.8439 80.8739 63.1179 79.8099C60.812 76.4496 59.7891 72.373 60.2352 68.3221C60.6814 64.2711 62.567 60.5149 65.5489 57.7369C67.8039 55.5943 70.6024 54.1097 73.6409 53.4439C76.1513 52.9972 78.7241 53.0359 81.2199 53.5579C83.1009 54.0329 83.6699 53.9759 84.1259 53.2919C84.2357 53.1183 84.3054 52.9223 84.3299 52.7183C84.3545 52.5143 84.3332 52.3074 84.2677 52.1127C84.2022 51.9179 84.094 51.7402 83.9512 51.5925C83.8083 51.4449 83.6344 51.3309 83.4419 51.2589C81.4849 50.3089 76.0719 49.9669 73.2599 50.5939C68.8436 51.5258 64.8617 53.8975 61.9389 57.3369L61.2549 58.1539L55.6699 54.5639L50.1039 50.9739L50.0469 45.3739L50.0089 39.7739L51.0919 39.6599C55.3724 39.0863 59.3515 37.1399 62.4319 34.1129C64.4744 32.106 66.0602 29.6824 67.0813 27.0072C68.1024 24.332 68.5348 21.4681 68.3491 18.6107C68.1634 15.7533 67.3639 12.9695 66.005 10.449C64.6462 7.9285 62.76 5.73057 60.4749 4.00493C58.2597 2.36289 55.7335 1.18878 53.05 0.554067C50.3666 -0.0806452 47.5821 -0.162699 44.8659 0.312917ZM50.7549 13.0969C51.8239 13.5926 52.6797 14.4551 53.1669 15.5279C54.1929 17.6169 53.7559 19.8209 51.9129 21.7769C50.4879 23.2769 50.6399 23.7529 52.9959 25.2769C54.1471 26.0521 55.2107 26.95 56.1679 27.9549C57.7679 29.6269 59.6249 32.4759 59.4539 32.9319C58.4012 33.894 57.2023 34.6825 55.9019 35.2679C53.5772 36.3978 51.0246 36.9802 48.4398 36.9703C45.8551 36.9604 43.3069 36.3586 40.9909 35.2109C39.7428 34.5768 38.565 33.8129 37.4769 32.9319C37.4769 32.8939 37.7049 32.4189 37.9709 31.8679C39.3905 29.2469 41.4324 27.0148 43.9169 25.3679C45.6269 24.2849 46.0249 23.8679 46.0249 23.1839C46.0249 22.7279 45.8349 22.4239 45.1699 21.8159C44.1862 20.9577 43.5504 19.7693 43.3824 18.4747C43.2144 17.1801 43.5258 15.8688 44.2579 14.7879C44.9839 13.8052 46.025 13.1012 47.2074 12.7935C48.3898 12.4857 49.642 12.5928 50.7549 13.0969ZM24.7549 53.8419C28.4426 55.0256 31.6481 57.3712 33.8919 60.5279C34.9715 62.2313 35.8029 64.0799 36.3609 66.0179C36.9465 68.7725 36.953 71.6187 36.3799 74.3759C35.7588 76.4194 34.8497 78.364 33.6799 80.1509L33.0719 80.9869L32.5779 80.1509C31.0977 77.6999 29.1711 75.548 26.8979 73.8069L26.1569 73.2749L26.8789 71.8309C27.2943 70.9916 27.6069 70.1052 27.8099 69.1909C28.0392 67.4837 27.7215 65.7477 26.9024 64.2323C26.0832 62.717 24.8049 61.5002 23.2509 60.7569C22.334 60.2716 21.3057 60.0357 20.2689 60.0729C19.207 59.9603 18.1334 60.0841 17.125 60.4356C16.1167 60.7871 15.1987 61.3576 14.4369 62.1059C13.0336 63.3994 12.1297 65.145 11.8831 67.0375C11.6365 68.93 12.063 70.849 13.0879 72.4589L13.6009 73.1999L13.0499 73.5999C10.7121 75.3166 8.73089 77.472 7.21692 79.9459L6.62792 80.9909L6.20992 80.4779C5.11566 79.0356 4.26259 77.4254 3.68392 75.7099C2.93784 73.6434 2.63362 71.4433 2.79092 69.2519C3.01479 64.8556 4.9514 60.7218 8.18592 57.7359C9.65155 56.3027 11.3903 55.1788 13.2989 54.4309C15.4892 53.4455 17.8979 53.0462 20.2889 53.2719C21.798 53.2011 23.3079 53.3953 24.7499 53.8459L24.7549 53.8419ZM79.3669 63.3419C80.2843 63.7625 81.0569 64.445 81.5875 65.3036C82.1181 66.1621 82.383 67.1583 82.3489 68.1669C82.3473 68.8959 82.1886 69.6159 81.8837 70.278C81.5788 70.9402 81.1348 71.5288 80.5819 72.0039C79.1379 73.4479 79.2899 73.9609 81.6459 75.5039C84.2406 77.202 86.3642 79.5279 87.8199 82.2659L88.2569 83.1019L87.6109 83.6529C86.333 84.6212 84.9346 85.4192 83.4509 86.0269C79.7416 87.4687 75.6478 87.5828 71.8639 86.3499C70.0741 85.7237 68.3848 84.8409 66.8489 83.7289L66.1079 83.1019L66.7159 81.9429C68.2986 79.1825 70.536 76.8538 73.2309 75.1619C75.0739 73.9839 75.1499 73.4329 73.6109 71.7429C73.0784 71.2624 72.6617 70.6676 72.3919 70.0031C72.122 69.3386 72.0062 68.6216 72.0529 67.9059C72.0567 66.9245 72.3461 65.9655 72.8858 65.1458C73.4254 64.3262 74.192 63.6813 75.0919 63.2899C75.7718 63.0163 76.4991 62.8798 77.2319 62.8884C77.9647 62.897 78.6886 63.0504 79.3619 63.3399L79.3669 63.3419Z" fill="#484A53"/>
<path d="M38.1439 33.4718C38.0895 33.4483 38.037 33.4205 37.9869 33.3888C37.1802 32.8904 36.4561 32.2693 35.8409 31.5478C35.6296 31.3055 35.4511 31.0365 35.3099 30.7478L35.2969 30.6278L35.3139 30.6478L36.2449 29.1478C36.9548 28.1186 37.7471 27.1488 38.6139 26.2478C39.5145 25.252 40.4875 24.3241 41.5249 23.4718L42.2249 22.9018L41.6739 22.0088C41.3291 21.4601 41.06 20.8674 40.8739 20.2468C40.68 19.6093 40.5629 18.951 40.5249 18.2858C40.4854 17.6168 40.525 16.9455 40.6429 16.2858C40.7592 15.6322 40.9609 14.9968 41.2429 14.3958C41.8996 12.9876 42.9539 11.8023 44.2759 10.9858C45.5618 10.1868 47.045 9.76226 48.5589 9.75977C49.7812 9.75809 50.9877 10.0351 52.0869 10.5698C52.8697 10.9906 53.5825 11.5304 54.1999 12.1698C54.8332 12.7809 55.364 13.49 55.7719 14.2698C56.383 15.5843 56.6431 17.0348 56.5269 18.4798C56.4337 19.8942 55.9558 21.2562 55.1449 22.4188L54.7649 22.9508L55.6769 23.6158C57.6053 25.2108 59.3112 27.0573 60.7489 29.1058C61.0359 29.642 61.3878 30.1407 61.7969 30.5908C61.8156 30.5873 61.8338 30.5812 61.8509 30.5728C61.8359 30.5898 61.8229 30.6038 61.8119 30.6178C61.1348 31.4722 60.3473 32.2328 59.4699 32.8798C59.2687 32.1233 58.9118 31.4172 58.4219 30.8068C57.7518 29.7946 57 28.8391 56.1739 27.9498C55.2156 26.9444 54.1502 26.0467 52.9969 25.2728C51.7579 24.4728 51.0739 23.9328 51.0059 23.3678C50.9499 22.8998 51.3119 22.4118 51.9139 21.7778C53.7459 19.8328 54.1909 17.6128 53.1679 15.5288C52.6821 14.4548 51.8264 13.5913 50.7569 13.0958C50.094 12.7692 49.3638 12.6027 48.6249 12.6098C47.7763 12.5967 46.937 12.7877 46.1776 13.1665C45.4182 13.5454 44.7608 14.101 44.2609 14.7868C43.5235 15.8661 43.209 17.1789 43.3772 18.4751C43.5454 19.7713 44.1845 20.9604 45.1729 21.8158C45.8359 22.4218 46.0279 22.7288 46.0279 23.1828C46.0294 23.3602 45.9933 23.5359 45.9222 23.6984C45.851 23.8609 45.7463 24.0066 45.6149 24.1258C45.0955 24.6008 44.5254 25.0174 43.9149 25.3678C41.432 27.0166 39.3906 29.2482 37.9689 31.8678C37.6889 32.4478 37.4749 32.8938 37.4749 32.9308C37.4749 32.9848 37.7109 33.1788 38.1399 33.4748L38.1439 33.4718Z" fill="#8D2813"/>
<path d="M9.46028 83.8102C9.40586 83.7866 9.35336 83.7589 9.30328 83.7272C8.49658 83.2288 7.77255 82.6077 7.15728 81.8862C6.94605 81.6439 6.76752 81.3749 6.62628 81.0862L6.61328 80.9662L6.63028 80.9862L7.56128 79.4862C8.27121 78.457 9.06348 77.4872 9.93028 76.5862C10.8309 75.5904 11.8039 74.6625 12.8413 73.8102L13.5413 73.2402L12.9903 72.3472C12.6455 71.7985 12.3764 71.2058 12.1903 70.5852C11.9964 69.9477 11.8793 69.2894 11.8413 68.6242C11.8018 67.9552 11.8414 67.2839 11.9593 66.6242C12.0756 65.9706 12.2773 65.3351 12.5593 64.7342C13.216 63.326 14.2703 62.1407 15.5923 61.3242C16.8782 60.5252 18.3614 60.1006 19.8753 60.0982C21.0976 60.0965 22.3041 60.3735 23.4033 60.9082C24.1861 61.329 24.8989 61.8688 25.5163 62.5082C26.1496 63.1193 26.6804 63.8283 27.0883 64.6082C27.6994 65.9227 27.9596 67.3732 27.8433 68.8182C27.7501 70.2325 27.2722 71.5946 26.4613 72.7572L26.0813 73.2892L26.9933 73.9542C28.9218 75.5492 30.6276 77.3957 32.0653 79.4442C32.3523 79.9803 32.7043 80.4791 33.1133 80.9292C33.132 80.9256 33.1502 80.9196 33.1673 80.9112C33.1523 80.9282 33.1393 80.9422 33.1283 80.9562C32.4512 81.8105 31.6637 82.5712 30.7863 83.2182C30.5851 82.4617 30.2282 81.7556 29.7383 81.1452C29.0683 80.133 28.3164 79.1775 27.4903 78.2882C26.532 77.2827 25.4667 76.3851 24.3133 75.6112C23.0743 74.8112 22.3903 74.2712 22.3223 73.7062C22.2663 73.2382 22.6283 72.7502 23.2303 72.1162C25.0623 70.1712 25.5073 67.9512 24.4843 65.8672C23.9985 64.7932 23.1428 63.9297 22.0733 63.4342C21.4104 63.1076 20.6802 62.9411 19.9413 62.9482C19.0927 62.9351 18.2534 63.1261 17.494 63.5049C16.7346 63.8837 16.0773 64.4394 15.5773 65.1252C14.8399 66.2044 14.5254 67.5172 14.6936 68.8135C14.8618 70.1097 15.5009 71.2988 16.4893 72.1542C17.1523 72.7602 17.3443 73.0672 17.3443 73.5212C17.3458 73.6986 17.3097 73.8743 17.2386 74.0368C17.1674 74.1993 17.0627 74.3449 16.9313 74.4642C16.4119 74.9392 15.8418 75.3557 15.2313 75.7062C12.7484 77.355 10.707 79.5866 9.28528 82.2062C9.00528 82.7862 8.79128 83.2322 8.79128 83.2692C8.79128 83.3232 9.02728 83.5172 9.45628 83.8132L9.46028 83.8102Z" fill="#8D2813"/>
<path d="M66.6361 83.8102C66.5816 83.7866 66.5291 83.7589 66.4791 83.7272C65.6724 83.2288 64.9483 82.6077 64.3331 81.8862C64.1218 81.6439 63.9433 81.3749 63.8021 81.0862L63.7891 80.9662L63.8061 80.9862L64.7371 79.4862C65.447 78.457 66.2393 77.4872 67.1061 76.5862C68.0067 75.5904 68.9797 74.6625 70.0171 73.8102L70.7171 73.2402L70.1661 72.3472C69.8213 71.7985 69.5522 71.2058 69.3661 70.5852C69.1722 69.9477 69.0551 69.2894 69.0171 68.6242C68.9776 67.9552 69.0172 67.2839 69.1351 66.6242C69.2514 65.9706 69.4531 65.3351 69.7351 64.7342C70.3918 63.326 71.4461 62.1407 72.7681 61.3242C74.054 60.5252 75.5372 60.1006 77.0511 60.0982C78.2733 60.0965 79.4799 60.3735 80.5791 60.9082C81.3619 61.329 82.0747 61.8688 82.6921 62.5082C83.3254 63.1193 83.8561 63.8283 84.2641 64.6082C84.8752 65.9227 85.1353 67.3732 85.0191 68.8182C84.9259 70.2325 84.448 71.5946 83.6371 72.7572L83.2571 73.2892L84.1691 73.9542C86.0975 75.5492 87.8034 77.3957 89.2411 79.4442C89.528 79.9803 89.88 80.4791 90.2891 80.9292C90.3078 80.9256 90.326 80.9196 90.3431 80.9112C90.3281 80.9282 90.3151 80.9422 90.3041 80.9562C89.627 81.8105 88.8395 82.5712 87.9621 83.2182C87.7609 82.4617 87.404 81.7556 86.9141 81.1452C86.244 80.133 85.4922 79.1775 84.6661 78.2882C83.7078 77.2827 82.6424 76.3851 81.4891 75.6112C80.2501 74.8112 79.5661 74.2712 79.4981 73.7062C79.4421 73.2382 79.8041 72.7502 80.4061 72.1162C82.2381 70.1712 82.6831 67.9512 81.6601 65.8672C81.1743 64.7932 80.3186 63.9297 79.2491 63.4342C78.5862 63.1076 77.856 62.9411 77.1171 62.9482C76.2685 62.9351 75.4292 63.1261 74.6698 63.5049C73.9104 63.8837 73.253 64.4394 72.7531 65.1252C72.0157 66.2044 71.7012 67.5172 71.8694 68.8135C72.0376 70.1097 72.6767 71.2988 73.6651 72.1542C74.3281 72.7602 74.5201 73.0672 74.5201 73.5212C74.5216 73.6986 74.4855 73.8743 74.4144 74.0368C74.3432 74.1993 74.2385 74.3449 74.1071 74.4642C73.5876 74.9392 73.0175 75.3557 72.4071 75.7062C69.9242 77.355 67.8828 79.5866 66.4611 82.2062C66.1811 82.7862 65.9671 83.2322 65.9671 83.2692C65.9671 83.3232 66.2031 83.5172 66.6321 83.8132L66.6361 83.8102Z" fill="#8D2813"/>
</svg>
