<svg width="90" height="90" viewBox="0 0 90 90" fill="none" xmlns="http://www.w3.org/2000/svg">
<g clip-path="url(#clip0_878_35)">
<path d="M9.99959 0.142814C7.27359 0.986814 5.49959 3.81782 6.13059 6.31582C6.23659 6.75582 6.37659 7.26579 6.41159 7.45879C6.48159 7.73979 6.32359 7.89881 5.69059 8.23281C4.66442 8.80465 3.86128 9.70609 3.4112 10.7912C2.96111 11.8763 2.89043 13.0815 3.21059 14.2118C3.36859 14.6868 3.49159 15.1258 3.49159 15.1618C3.20676 15.4125 2.88668 15.62 2.54159 15.7778C1.85505 16.1815 1.27172 16.7392 0.837608 17.4069C0.403496 18.0746 0.130481 18.8341 0.0401052 19.6253C-0.0502709 20.4166 0.0444637 21.2181 0.316835 21.9665C0.589206 22.7149 1.03176 23.3897 1.60959 23.9378L2.38359 24.6938L1.96159 25.5728C1.49527 26.6606 1.40645 27.8731 1.70929 29.0172C2.01212 30.1613 2.68919 31.1712 3.63259 31.8858L4.56459 32.5718L4.51159 40.0808L4.46059 47.5718L2.40259 51.0008C1.55139 52.3517 0.799089 53.7623 0.151586 55.2218C0.0285864 55.7498 -0.0244136 59.7058 0.0105864 68.0418L0.0605864 80.0888L0.482586 80.8798C0.9829 81.954 1.82665 82.831 2.88069 83.3724C3.93472 83.9138 5.13904 84.0888 6.30359 83.8698C6.74359 83.7638 7.25359 83.6238 7.44659 83.5888C7.72759 83.5188 7.88659 83.6768 8.22059 84.3098C8.79242 85.336 9.69386 86.1391 10.779 86.5892C11.8641 87.0393 13.0693 87.11 14.1996 86.7898C14.6746 86.6318 15.1136 86.5088 15.1496 86.5088C15.4003 86.7936 15.6078 87.1137 15.7656 87.4588C16.4384 88.5946 17.5204 89.4298 18.7895 89.7931C20.0586 90.1565 21.4186 90.0204 22.5906 89.4128C23.1528 89.1235 23.659 88.7364 24.0856 88.2698L24.6306 87.6018L25.5306 88.0238C26.7507 88.5135 28.0981 88.5877 29.3646 88.2348C30.4135 87.843 31.3244 87.1522 31.9846 86.2478L32.5296 85.4568H39.9156C46.8266 85.4568 47.3366 85.4748 47.9526 85.7908C48.3046 85.9668 49.9396 86.9158 51.5756 87.9008C52.738 88.6423 53.9548 89.2948 55.2156 89.8528C55.6556 89.9758 60.1396 90.0288 67.9826 89.9938L80.0826 89.9408L80.9616 89.4658C82.0127 88.958 82.8668 88.1173 83.3912 87.0743C83.9156 86.0313 84.0809 84.8444 83.8616 83.6978C83.7556 83.2578 83.6156 82.7478 83.5806 82.5548C83.5106 82.2738 83.6686 82.1148 84.3016 81.7808C85.3278 81.209 86.1309 80.3075 86.581 79.2224C87.0311 78.1373 87.1017 76.9321 86.7816 75.8018C86.6236 75.3268 86.5006 74.8878 86.5006 74.8518C86.7854 74.6011 87.1055 74.3936 87.4506 74.2358C88.1371 73.8321 88.7205 73.2744 89.1546 72.6067C89.5887 71.939 89.8617 71.1796 89.9521 70.3883C90.0424 69.597 89.9477 68.7956 89.6753 68.0472C89.403 67.2988 88.9604 66.6239 88.3826 66.0758L87.6086 65.3198L88.0306 64.4408C88.3105 63.7658 88.453 63.0417 88.4499 62.311C88.4469 61.5803 88.2982 60.8574 88.0126 60.1848C87.5174 59.1777 86.742 58.335 85.7796 57.7578C85.4626 57.6518 85.4456 57.3888 85.4456 50.1778C85.4456 43.1778 85.4636 42.6688 85.7796 42.0528C85.9556 41.7008 86.9056 40.0658 87.8896 38.4298C88.6311 37.2674 89.2836 36.0506 89.8416 34.7898C89.9646 34.3498 90.0176 29.8658 89.9826 22.0228L89.9296 9.92281L89.4546 9.04381C88.9468 7.99268 88.1061 7.1386 87.0631 6.61422C86.0201 6.08984 84.8332 5.92446 83.6866 6.14379C83.2466 6.24979 82.7366 6.3898 82.5436 6.4248C82.2626 6.4948 82.1036 6.33679 81.7696 5.70379C81.1977 4.67762 80.2963 3.87448 79.2112 3.4244C78.1261 2.97432 76.9209 2.90365 75.7906 3.22381C75.3156 3.38181 74.8766 3.50481 74.8406 3.50481C74.5899 3.21999 74.3823 2.8999 74.2246 2.5548C73.8209 1.86827 73.2632 1.28493 72.5955 0.850822C71.9278 0.416709 71.1684 0.143713 70.3771 0.0533364C69.5858 -0.0370397 68.7843 0.0576681 68.0359 0.330039C67.2875 0.602411 66.6127 1.04497 66.0646 1.62279L65.3086 2.39681L64.4296 1.97481C63.2158 1.50746 61.8845 1.43982 60.6296 1.78179C59.5778 2.16512 58.6699 2.86353 58.0296 3.78179L57.5726 4.5378H50.1826C41.6186 4.5558 42.9376 4.8188 38.4176 2.1108C37.2548 1.39073 36.0511 0.738961 34.8126 0.158805C34.0746 -0.0501948 10.6856 -0.050186 9.99959 0.142814ZM37.5606 5.0848C38.9315 5.94858 40.3659 6.7071 41.8516 7.35381C42.3086 7.45881 45.6326 7.54681 49.8006 7.54681H56.9576V20.7718L56.2896 20.2268C55.9206 19.9458 55.2346 19.3828 54.7596 18.9958C53.7858 18.1373 52.5184 17.6873 51.2212 17.7397C49.9241 17.792 48.6971 18.3426 47.7956 19.2768C47.3494 19.7453 47.0123 20.3067 46.8086 20.9208C46.605 21.5349 46.5397 22.1865 46.6176 22.8288L46.6876 24.0778H43.6766C39.8076 24.0778 39.7026 24.1308 36.8186 27.0678C35.6576 28.2458 32.1186 31.7278 28.9576 34.8228C23.4356 40.2388 23.1896 40.4328 22.5386 40.4328C22.1574 40.4321 21.7826 40.3355 21.4486 40.1518C21.1722 39.9322 20.9561 39.6459 20.8207 39.3198C20.6854 38.9938 20.6351 38.6386 20.6746 38.2878C21.2909 37.2239 22.0093 36.2225 22.8196 35.2978C23.9446 33.9088 25.0006 32.5898 25.1766 32.3438C25.3821 32.0716 25.4812 31.7337 25.4552 31.3936C25.4293 31.0536 25.28 30.7347 25.0356 30.4968L24.6136 30.0568H15.5916C7.11559 30.0568 6.51759 30.0218 5.83159 29.7228C5.44948 29.5529 5.12408 29.277 4.89391 28.9278C4.66375 28.5787 4.53846 28.1709 4.53288 27.7528C4.5273 27.3346 4.64167 26.9236 4.86245 26.5685C5.08322 26.2133 5.40115 25.9289 5.77859 25.7488C6.20059 25.5378 7.16759 25.4848 10.8786 25.4848H15.4866L15.9966 24.9748C16.1421 24.8659 16.2618 24.726 16.3469 24.5654C16.432 24.4047 16.4805 24.2272 16.4889 24.0456C16.4973 23.8639 16.4654 23.6827 16.3955 23.5149C16.3256 23.347 16.2194 23.1967 16.0846 23.0748L15.6626 22.5828L10.0526 22.4948C4.81159 22.4068 4.42559 22.3888 3.98559 22.0548C3.63713 21.8129 3.36569 21.4758 3.20368 21.0838C3.04167 20.6918 2.99595 20.2614 3.07199 19.8441C3.14802 19.4268 3.3426 19.0403 3.63246 18.7306C3.92232 18.4209 4.29522 18.2012 4.70659 18.0978C5.05859 18.0098 7.60659 17.9218 10.3866 17.9218C13.1476 17.9218 15.5566 17.8688 15.7156 17.8158C15.9725 17.6308 16.1736 17.3788 16.2971 17.0873C16.4205 16.7958 16.4615 16.476 16.4156 16.1628C16.1696 15.0728 16.0156 15.0198 11.3686 14.9318L7.14759 14.8438L6.65559 14.2808C6.33371 13.9754 6.11883 13.5743 6.04281 13.1372C5.9668 12.7 6.0337 12.25 6.23359 11.8538C6.84959 10.5538 6.95459 10.5348 12.8986 10.5348C16.7676 10.5348 18.2986 10.4648 18.6136 10.3058C18.8305 10.2019 19.0184 10.0462 19.161 9.85247C19.3035 9.65877 19.3963 9.433 19.4311 9.19503C19.4658 8.95706 19.4416 8.7142 19.3604 8.48781C19.2792 8.26143 19.1436 8.05847 18.9656 7.89681C18.6316 7.56281 18.3656 7.54479 14.8326 7.54479C10.6996 7.54479 10.1896 7.45681 9.50359 6.57781C9.29898 6.33765 9.15204 6.05386 9.07401 5.74816C8.99598 5.44246 8.98893 5.12295 9.0534 4.81411C9.11787 4.50527 9.25216 4.21525 9.44597 3.9663C9.63978 3.71735 9.88799 3.51605 10.1716 3.3778L10.7516 2.97781H34.0396L37.5606 5.0848ZM71.2196 3.60781C71.5309 3.91909 71.7657 4.29838 71.9056 4.71581C71.9936 5.06781 72.0816 7.6158 72.0816 10.3958C72.0816 13.1568 72.1346 15.5658 72.1876 15.7248C72.3726 15.9817 72.6246 16.1829 72.9161 16.3063C73.2076 16.4297 73.5274 16.4707 73.8406 16.4248C74.9306 16.1788 74.9836 16.0248 75.0716 11.3778L75.1596 7.15679L75.7226 6.66482C76.028 6.34294 76.4291 6.12804 76.8662 6.05202C77.3034 5.97601 77.7534 6.0429 78.1496 6.24279C79.4496 6.85879 79.4686 6.9638 79.4686 12.9078C79.4686 16.7768 79.5386 18.3078 79.6976 18.6228C79.8015 18.8397 79.9572 19.0277 80.1509 19.1702C80.3446 19.3128 80.5704 19.4055 80.8084 19.4403C81.0463 19.475 81.2892 19.4508 81.5156 19.3696C81.742 19.2885 81.9449 19.1529 82.1066 18.9748C82.4406 18.6408 82.4586 18.3748 82.4586 14.8418C82.4586 10.7268 82.5466 10.1988 83.4086 9.51281C83.6535 9.31826 83.9379 9.17959 84.242 9.1065C84.5461 9.03341 84.8625 9.02767 85.169 9.08968C85.4756 9.1517 85.7649 9.27996 86.0166 9.46551C86.2684 9.65105 86.4766 9.88937 86.6266 10.1638L87.0266 10.7638V34.0478L84.9166 37.5648C84.0528 38.9357 83.2943 40.3701 82.6476 41.8558C82.5416 42.3128 82.4546 45.6368 82.4546 49.7868V56.9618H69.2286L69.8966 56.1348C70.2656 55.6598 70.7966 55.0098 71.0746 54.6928C71.9297 53.7296 72.372 52.469 72.3061 51.1828C72.2403 49.8965 71.6715 48.6876 70.7226 47.8168C70.2292 47.3702 69.6461 47.034 69.0123 46.8309C68.3785 46.6277 67.7087 46.5623 67.0476 46.6388L65.9226 46.7268V43.7018C65.9226 40.9018 65.8876 40.6418 65.5006 39.8158C65.0991 39.0972 64.5891 38.4448 63.9886 37.8818C63.3886 37.3018 59.9086 33.7668 56.2336 30.0208C49.6216 23.2858 49.5686 23.2328 49.5686 22.4938C49.5574 22.2554 49.597 22.0173 49.6848 21.7953C49.7726 21.5733 49.9065 21.3725 50.0777 21.2062C50.249 21.0399 50.4536 20.9119 50.678 20.8306C50.9024 20.7493 51.1416 20.7167 51.3796 20.7348C52.1186 20.7348 52.3116 20.8398 54.6856 22.8098C56.0746 23.9528 57.4116 25.0098 57.6576 25.1838C57.9298 25.3893 58.2677 25.4884 58.6077 25.4625C58.9478 25.4365 59.2667 25.2873 59.5046 25.0428L59.9446 24.6208V15.5988C59.9446 7.12281 59.9796 6.5248 60.2786 5.8388C60.4485 5.4567 60.7244 5.13131 61.0735 4.90115C61.4227 4.67098 61.8305 4.54567 62.2486 4.54009C62.6668 4.53452 63.0778 4.64888 63.4329 4.86965C63.7881 5.09043 64.0725 5.40835 64.2526 5.78579C64.4636 6.20779 64.5166 7.17479 64.5166 10.8858V15.4938L65.0266 16.0038C65.2873 16.281 65.6348 16.4609 66.0116 16.5138C66.3884 16.4609 66.7359 16.281 66.9966 16.0038L67.5066 15.4938V10.1478C67.5066 5.31179 67.5416 4.74779 67.8236 4.22179C67.9729 3.9223 68.1901 3.66178 68.4577 3.4609C68.7254 3.26002 69.0362 3.12433 69.3655 3.06463C69.6948 3.00492 70.0335 3.02285 70.3547 3.11697C70.6758 3.21109 70.9706 3.3788 71.2156 3.6068L71.2196 3.60781ZM56.0396 34.1008L62.9336 41.1008L62.9156 45.1108L62.8976 49.1378L55.8976 56.0318L48.9156 62.9428L44.8886 62.9248L40.8606 62.9068L33.9666 55.9068L27.0606 48.9258L27.0786 44.8988L27.0966 40.8718L34.0966 33.9608L41.0966 27.0668L45.1066 27.0848H49.1336L56.0396 34.1008ZM20.0936 33.8718C19.7246 34.3468 19.1936 34.9798 18.9326 35.2958C18.5131 35.732 18.185 36.2477 17.9676 36.8125C17.7502 37.3773 17.6478 37.9799 17.6666 38.5848C17.6328 39.5621 17.8996 40.5262 18.4311 41.347C18.9625 42.1678 19.733 42.8058 20.6386 43.1748C21.2853 43.3743 21.9635 43.4519 22.6386 43.4038L23.9756 43.3688L24.0636 46.5168C24.1336 49.3168 24.1866 49.7348 24.5386 50.3678C25.3563 51.433 26.2561 52.4328 27.2296 53.3578C28.4956 54.6068 31.9956 58.1408 34.9846 61.2188C40.2606 66.6188 40.4186 66.7938 40.4186 67.4798C40.42 67.7564 40.3596 68.0298 40.2418 68.2801C40.1241 68.5304 39.9519 68.7512 39.7379 68.9264C39.524 69.1017 39.2736 69.227 39.005 69.2931C38.7364 69.3593 38.4565 69.3646 38.1856 69.3088C37.2469 68.7558 36.3635 68.1139 35.5476 67.3918C32.4346 64.8238 31.9956 64.5258 31.4146 64.5258C31.0593 64.5486 30.726 64.706 30.4826 64.9658L30.0426 65.3878V74.3568C30.0426 84.3458 30.0426 84.3988 28.8996 85.1018C28.5314 85.328 28.1071 85.4462 27.675 85.443C27.2429 85.4399 26.8204 85.3154 26.4556 85.0838C25.5056 84.3448 25.4706 84.0988 25.4706 79.1218V74.5128L24.9606 74.0028C24.8518 73.8571 24.7121 73.7373 24.5515 73.652C24.3909 73.5667 24.2134 73.5181 24.0318 73.5095C23.8502 73.5008 23.6689 73.5325 23.501 73.6023C23.3331 73.672 23.1827 73.7781 23.0606 73.9128L22.5686 74.3348L22.4806 79.9798L22.3926 85.6248L21.7246 86.2758C21.5558 86.5172 21.3236 86.7073 21.0536 86.8252C20.7837 86.9431 20.4864 86.9841 20.1946 86.9438C19.9391 86.978 19.679 86.9494 19.437 86.8606C19.195 86.7717 18.9783 86.6252 18.8056 86.4338C18.4846 86.1101 18.2384 85.7199 18.0846 85.2908C17.9966 84.9388 17.9086 82.3908 17.9086 79.6108C17.9086 76.8498 17.8556 74.4408 17.8026 74.2818C17.6176 74.0249 17.3656 73.8238 17.0741 73.7003C16.7826 73.5769 16.4628 73.5359 16.1496 73.5818C15.0596 73.8278 15.0066 73.9818 14.9186 78.6288L14.8306 82.8498L14.2676 83.3418C13.9622 83.6637 13.5611 83.8786 13.1239 83.9546C12.6868 84.0306 12.2367 83.9637 11.8406 83.7638C10.5406 83.1478 10.5216 83.0428 10.5216 77.0988C10.5216 73.2298 10.4516 71.6988 10.2926 71.3838C10.1886 71.1669 10.033 70.9789 9.83926 70.8364C9.64556 70.6938 9.41979 70.6011 9.18182 70.5663C8.94385 70.5316 8.70098 70.5558 8.47459 70.637C8.24821 70.7182 8.04525 70.8537 7.88359 71.0318C7.54959 71.3658 7.53159 71.6318 7.53159 75.1648C7.53159 79.2798 7.44359 79.8078 6.58159 80.4938C6.33671 80.6883 6.05227 80.827 5.74817 80.9001C5.44408 80.9732 5.12768 80.9789 4.82114 80.9169C4.51459 80.8549 4.22531 80.7266 3.97354 80.5411C3.72176 80.3556 3.51359 80.1172 3.36359 79.8428L2.96359 79.2428V55.9588L5.07359 52.4418C5.93735 51.0709 6.69586 49.6365 7.34259 48.1508C7.44859 47.6938 7.53559 44.3698 7.53559 40.2018V33.0448H20.7606L20.0936 33.8718ZM68.5426 49.8578C68.835 50.0864 69.0588 50.3913 69.1892 50.7389C69.3195 51.0865 69.3515 51.4632 69.2816 51.8278C68.6524 52.8821 67.9284 53.8769 67.1186 54.7998C66.0106 56.1368 64.9736 57.4198 64.8186 57.6668C64.6119 57.9384 64.5121 58.2764 64.538 58.6166C64.564 58.9569 64.714 59.2758 64.9596 59.5128L65.3816 59.9528H74.4036C82.8796 59.9528 83.4776 59.9878 84.1636 60.2868C84.5457 60.4567 84.8711 60.7326 85.1013 61.0817C85.3314 61.4309 85.4567 61.8387 85.4623 62.2568C85.4679 62.675 85.3535 63.086 85.1327 63.4411C84.912 63.7963 84.594 64.0807 84.2166 64.2608C83.7946 64.4718 82.8276 64.5248 79.1166 64.5248H74.5046L73.9946 65.0348C73.849 65.1438 73.7294 65.2836 73.6443 65.4443C73.5592 65.6049 73.5107 65.7824 73.5023 65.964C73.4938 66.1457 73.5257 66.3269 73.5956 66.4947C73.6655 66.6626 73.7717 66.8129 73.9066 66.9348L74.3286 67.4268L79.9386 67.5148C85.1796 67.6028 85.5656 67.6208 86.0056 67.9548C86.3543 68.1966 86.6261 68.5337 86.7883 68.9259C86.9505 69.318 86.9963 69.7486 86.9203 70.1661C86.8442 70.5836 86.6495 70.9704 86.3594 71.2801C86.0694 71.5899 85.6962 71.8095 85.2846 71.9128C84.9326 72.0008 82.3846 72.0888 79.6046 72.0888C76.8436 72.0888 74.4346 72.1418 74.2756 72.1948C74.0187 72.3798 73.8175 72.6318 73.6941 72.9233C73.5707 73.2148 73.5297 73.5346 73.5756 73.8478C73.8216 74.9378 73.9756 74.9908 78.6226 75.0788L82.8436 75.1668L83.3356 75.7298C83.6575 76.0352 83.8724 76.4363 83.9484 76.8734C84.0244 77.3106 83.9575 77.7606 83.7576 78.1568C83.1416 79.4568 83.0366 79.4758 77.0926 79.4758C73.2236 79.4758 71.6926 79.5458 71.3776 79.7048C71.1607 79.8088 70.9727 79.9644 70.8302 80.1581C70.6876 80.3518 70.5949 80.5776 70.5601 80.8156C70.5253 81.0535 70.5496 81.2964 70.6308 81.5228C70.7119 81.7492 70.8475 81.9521 71.0256 82.1138C71.3596 82.4478 71.6256 82.4658 75.1586 82.4658C79.2736 82.4658 79.8016 82.5538 80.4876 83.4158C80.682 83.6607 80.8205 83.9452 80.8935 84.2493C80.9665 84.5533 80.9722 84.8696 80.9102 85.1761C80.8482 85.4826 80.72 85.7719 80.5345 86.0237C80.3491 86.2755 80.1109 86.4837 79.8366 86.6338L79.2366 87.0338H55.9516L52.4346 84.9238C51.0637 84.06 49.6292 83.3015 48.1436 82.6548C47.6866 82.5498 44.3626 82.4618 40.2126 82.4618H33.0366V69.2368L33.7046 69.7818C34.0736 70.0628 34.7596 70.6258 35.2346 71.0128C35.8113 71.5367 36.5036 71.9169 37.2552 72.1223C38.0068 72.3278 38.7962 72.3526 39.5592 72.1948C40.3222 72.0371 41.0371 71.7012 41.6456 71.2146C42.2541 70.728 42.7389 70.1044 43.0606 69.3948C43.3504 68.7316 43.4654 68.0051 43.3946 67.2848L43.3596 66.0188L46.5076 65.9308C50.3586 65.8258 50.3076 65.8428 52.9966 63.1168C54.0696 62.0438 57.5866 58.5448 60.8576 55.3618C66.5576 49.7868 66.7836 49.5758 67.4526 49.5758C67.8338 49.5768 68.2087 49.6738 68.5426 49.8578Z" fill="#484A53"/>
<path d="M40.2481 24.2427H49.6181L49.9851 24.6177L65.6741 40.5977V49.5718L49.6161 65.8296H40.2391L39.8711 65.4526L24.3711 49.5674V40.1187L24.7371 39.7524L40.2481 24.2427ZM48.5691 26.7427H41.2841L26.8751 41.1538V48.5537L41.2931 63.3335H48.5721L63.1721 48.5498V41.6245L48.5691 26.7427Z" fill="#8D2813"/>
</g>
<defs>
<clipPath id="clip0_878_35">
<rect width="89.991" height="90" fill="white"/>
</clipPath>
</defs>
</svg>
