<svg width="81" height="90" viewBox="0 0 81 90" fill="none" xmlns="http://www.w3.org/2000/svg">
<path d="M38.9417 0.112941C37.8485 0.390643 36.8551 0.969587 36.0747 1.78393C34.5267 3.26193 33.6117 3.54295 32.1517 3.01495C31.4865 2.83276 30.8004 2.73829 30.1107 2.73394C28.7519 2.72479 27.4342 3.19933 26.3932 4.07269C25.3522 4.94604 24.6558 6.16124 24.4287 7.50094C24.3088 8.11969 24.0152 8.6915 23.5822 9.14947C23.1492 9.60744 22.5947 9.93262 21.9837 10.0869C19.5737 10.7379 18.3067 11.7229 17.4627 13.5529C16.9044 14.9317 16.8422 16.4615 17.2867 17.8809C17.8147 19.3409 17.5327 20.2559 16.0727 21.7859C15.4812 22.3059 15.0179 22.9555 14.7188 23.684C14.4198 24.4126 14.2931 25.2004 14.3487 25.986C14.2931 26.7715 14.4198 27.5593 14.7188 28.2878C15.0179 29.0164 15.4812 29.666 16.0727 30.1859C17.5327 31.7159 17.8147 32.6309 17.2867 34.0909C16.8422 35.5104 16.9044 37.0402 17.4627 38.4189C18.3067 40.2489 19.5917 41.2339 21.9627 41.8849C22.5143 42.02 23.0227 42.2924 23.4407 42.6769L23.9337 43.1869L20.7497 49.344C18.6207 53.478 17.5657 55.695 17.5657 56.064C17.5619 56.4507 17.6693 56.8304 17.8751 57.1579C18.0809 57.4853 18.3765 57.7467 18.7267 57.9109C19.3947 58.2279 19.3947 58.2279 22.9137 57.4009C24.8667 56.9609 26.5377 56.5919 26.6427 56.5919C27.2519 57.6106 27.7546 58.6893 28.1427 59.8109C29.6027 63.4519 30.0957 64.1559 31.2037 64.1559C32.4877 64.1559 32.7037 63.8919 35.1797 59.0559C36.4637 56.5929 37.8187 53.9719 38.2057 53.2509L38.8917 51.9319H41.6707L44.5907 57.597C47.7397 63.754 48.0387 64.1589 49.2697 64.1589C50.4307 64.1589 50.9057 63.508 52.4007 59.796C52.7881 58.6837 53.2831 57.612 53.8787 56.5959C53.9847 56.5959 55.6557 56.9649 57.6077 57.4049C61.1257 58.2319 61.1257 58.2319 61.7947 57.9149C62.1471 57.7537 62.4447 57.493 62.651 57.1648C62.8573 56.8367 62.9632 56.4555 62.9557 56.068C62.9557 55.681 61.9177 53.5 59.7717 49.348L56.5877 43.1909L57.0807 42.6809C57.4942 42.2903 58.0044 42.0169 58.5587 41.8889C60.7927 41.2729 62.1127 40.3409 62.8867 38.7889C63.6957 37.2059 63.7487 35.922 63.1157 33.689C62.7817 32.489 63.0807 31.6659 64.3997 30.2589C65.0146 29.7374 65.4988 29.079 65.8135 28.3367C66.1281 27.5943 66.2645 26.7885 66.2117 25.9839C66.2645 25.1794 66.1281 24.3736 65.8135 23.6312C65.4988 22.8888 65.0146 22.2305 64.3997 21.709C63.0807 20.302 62.7817 19.475 63.1157 18.279C63.7487 16.045 63.6967 14.761 62.8867 13.179C62.0947 11.631 60.7937 10.6989 58.5417 10.0789C57.932 9.92188 57.379 9.59583 56.9465 9.13833C56.5139 8.68083 56.2193 8.11049 56.0967 7.49295C55.8695 6.15324 55.1732 4.93805 54.1322 4.06469C53.0912 3.19134 51.7735 2.7168 50.4147 2.72595C49.725 2.73029 49.0389 2.82476 48.3737 3.00695C46.9137 3.53495 45.9987 3.25294 44.4507 1.77594C43.8984 1.24874 43.277 0.798987 42.6037 0.43896C41.4328 0.0106574 40.1698 -0.101798 38.9417 0.112941ZM41.4577 2.85696C42.0521 3.18935 42.5968 3.60373 43.0757 4.08795C43.8082 4.88625 44.7561 5.45549 45.8049 5.72698C46.8538 5.99848 47.9589 5.96061 48.9867 5.61795C51.4667 4.96695 52.9447 5.74093 53.4547 7.90493C53.663 9.12632 54.2455 10.2529 55.1216 11.129C55.9977 12.0052 57.1243 12.5876 58.3457 12.796C60.5097 13.306 61.2837 14.7839 60.6327 17.2639C60.2923 18.292 60.2556 19.3964 60.527 20.4448C60.7983 21.4932 61.3663 22.4411 62.1627 23.175C64.1327 25.04 64.1327 26.94 62.1627 28.804C61.3663 29.5378 60.7983 30.4857 60.527 31.5341C60.2556 32.5825 60.2923 33.6869 60.6327 34.7149C61.2837 37.1949 60.5267 38.656 58.2927 39.201C57.0825 39.4159 55.9683 39.9994 55.1023 40.8716C54.2364 41.7439 53.6609 42.8623 53.4547 44.0739C52.9447 46.2379 51.4667 47.012 48.9867 46.361C47.9589 46.0183 46.8538 45.9804 45.8049 46.2519C44.7561 46.5234 43.8082 47.0927 43.0757 47.891C41.0707 49.861 39.4347 49.8789 37.5347 47.9439C36.793 47.1306 35.8324 46.5486 34.7681 46.2678C33.7038 45.987 32.5811 46.0193 31.5347 46.361C28.9487 47.029 27.6117 46.273 26.9787 43.761C26.7349 42.6641 26.1833 41.6594 25.3888 40.8649C24.5942 40.0703 23.5896 39.5188 22.4927 39.275C19.9767 38.642 19.2557 37.358 19.8927 34.736C20.2301 33.6866 20.2604 32.5627 19.9799 31.4967C19.6994 30.4308 19.1199 29.4673 18.3097 28.7199C16.9197 27.3649 16.5677 26.1689 17.1487 24.7969C17.4544 24.23 17.846 23.7139 18.3097 23.2669C19.1199 22.5196 19.6994 21.5561 19.9799 20.4902C20.2604 19.4242 20.2301 18.3003 19.8927 17.2509C19.2597 14.6299 19.9807 13.3459 22.4927 12.7119C23.5896 12.4681 24.5942 11.9166 25.3888 11.122C26.1833 10.3275 26.7349 9.32284 26.9787 8.22595C27.6117 5.70995 28.9487 4.95394 31.5347 5.62594C32.5811 5.96758 33.7038 5.99994 34.7681 5.71914C35.8324 5.43834 36.793 4.85631 37.5347 4.04293C38.9067 2.64293 40.0677 2.29496 41.4577 2.85696ZM27.7887 48.7719C29.1758 49.3439 30.7193 49.4125 32.1517 48.9659C32.5364 48.8161 32.9404 48.7215 33.3517 48.6849C34.2957 48.806 35.1673 49.2544 35.8147 49.952L36.5537 50.6729L34.2537 55.1729C32.9697 57.6529 31.8087 59.8879 31.6537 60.1729L31.3537 60.6479L30.3337 58.1479C28.9617 54.7479 28.7507 54.3659 28.1337 54.0479C27.4127 53.6789 27.1137 53.6959 23.8237 54.4879C22.2057 54.8879 20.8507 55.1739 20.8157 55.1559C20.7977 55.1209 21.7657 53.1859 22.9797 50.8279L25.1797 46.5709L25.9357 47.4149C26.4565 47.9866 27.0865 48.448 27.7887 48.7719ZM57.6597 51.0059C58.8597 53.3059 59.7707 55.193 59.7357 55.193C59.6827 55.193 58.3287 54.8759 56.7097 54.4929C53.4377 53.7009 53.1207 53.6839 52.3997 54.0529C51.7837 54.3699 51.6997 54.5279 50.2887 57.9759L49.1807 60.6679L48.8117 59.9999C48.6007 59.6309 47.4217 57.3789 46.2117 54.9999L43.9777 50.6719L44.7167 49.951C45.3641 49.2534 46.2357 48.805 47.1797 48.684C47.5909 48.7205 47.995 48.8151 48.3797 48.9649C49.0431 49.1557 49.7304 49.2504 50.4207 49.2459C51.2085 49.2557 51.9894 49.0975 52.7113 48.782C53.4333 48.4665 54.0797 48.0008 54.6077 47.416C54.9947 46.994 55.3637 46.6769 55.4167 46.7299C55.4777 46.7839 56.4807 48.7189 57.6597 51.0059Z" fill="#8D2813"/>
<path d="M37.0087 8.29313C33.6339 8.9339 30.5099 10.5186 27.9995 12.8634C25.4891 15.2081 23.6951 18.2168 22.8257 21.5401C22.5447 22.6481 22.5257 23.0001 22.6847 23.4051C23.2657 24.8121 24.9187 24.3551 25.2847 22.6841C26.0368 19.2925 27.9196 16.2574 30.624 14.0769C33.3284 11.8963 36.6938 10.6999 40.1677 10.6841C43.4818 10.6569 46.7153 11.7053 49.383 13.6719C52.0506 15.6385 54.0085 18.4173 54.9627 21.5911C55.4197 22.9811 55.4557 23.2971 55.4557 25.9911C55.4557 28.6851 55.4207 28.9991 54.9627 30.3911C54.0105 33.5491 52.0653 36.3159 49.4159 38.2807C46.7665 40.2455 43.5542 41.3037 40.2557 41.2981C36.7668 41.3018 33.3812 40.1143 30.6589 37.9322C27.9365 35.7502 26.0406 32.7042 25.2847 29.2981C24.9327 27.6621 23.4027 27.1871 22.7337 28.4891C22.4877 28.9641 22.5047 29.1221 22.8397 30.4241C23.7167 33.8594 25.5887 36.9592 28.2208 39.3345C30.8528 41.7099 34.1278 43.255 37.6347 43.7761C40.0022 44.0362 42.3961 43.9116 44.7237 43.4071C47.856 42.5946 50.713 40.9566 52.9966 38.6639C55.2802 36.3711 56.9068 33.5076 57.7067 30.3721C58.0686 28.9421 58.2036 27.4641 58.1067 25.9921C58.2036 24.5202 58.0686 23.0422 57.7067 21.6121C56.9068 18.4766 55.2802 15.6131 52.9966 13.3204C50.713 11.0276 47.856 9.3896 44.7237 8.57713C42.1849 8.06101 39.5786 7.96507 37.0087 8.29313Z" fill="#8D2813"/>
<path d="M39.4759 14.3088C39.2407 14.42 39.017 14.554 38.8079 14.7088C38.7199 14.7968 38.1569 16.1868 37.5409 17.8228L36.4329 20.7958L33.1959 20.9898C32.0179 21.0245 30.8431 21.1304 29.6779 21.3068C29.3942 21.4945 29.1628 21.7511 29.0054 22.0527C28.848 22.3542 28.7697 22.6908 28.7779 23.0308C28.7779 23.8748 29.0419 24.1738 31.8919 26.4438L34.0379 28.1328L33.1939 31.2328C32.2619 34.6458 32.2619 35.1208 33.1759 35.8418C34.0759 36.5418 34.6889 36.3518 37.5919 34.4348L40.2659 32.6928L42.9399 34.4348C45.8779 36.3518 46.4579 36.5458 47.3559 35.8418C48.2709 35.1208 48.2709 34.6108 47.3909 31.4088C46.9509 29.8088 46.5989 28.4008 46.5989 28.2598C47.3162 27.4821 48.1121 26.7807 48.9739 26.1668C51.9119 23.8668 52.2809 23.1938 51.4019 21.8388C51.0019 21.2228 50.3819 21.0828 47.1619 20.9388L44.1009 20.7978L43.0099 17.8978C42.4099 16.2978 41.8489 14.8898 41.7789 14.7488C41.3387 14.3713 40.8032 14.1218 40.2309 14.0278C39.9653 14.0784 39.71 14.1734 39.4759 14.3088ZM41.1299 20.3608C42.2379 23.4038 42.4139 23.5278 45.6509 23.5278C46.2886 23.4856 46.929 23.5388 47.5509 23.6858C47.6209 23.7738 46.9509 24.4068 46.0729 25.1108C43.4519 27.1868 43.4729 27.1868 44.3839 30.4238C44.6046 31.1037 44.781 31.7971 44.9119 32.4998C44.8939 32.4998 43.9439 31.8998 42.8009 31.1808C42.0288 30.604 41.1669 30.1584 40.2499 29.8618C39.3909 30.135 38.5868 30.5578 37.8749 31.1108C36.8369 31.7968 35.8869 32.3948 35.7639 32.4478C35.6409 32.4828 35.7819 31.7478 36.1509 30.4428C36.416 29.5792 36.6165 28.6971 36.7509 27.8038C36.7509 27.0828 36.2409 26.4848 34.3589 25.0248C33.5499 24.3738 32.9159 23.7758 32.9689 23.6878C33.5969 23.5428 34.2427 23.4896 34.8859 23.5298C38.1229 23.5298 38.2989 23.4068 39.4069 20.3628C39.6405 19.6384 39.9286 18.9327 40.2689 18.2518C40.6071 18.9322 40.8932 19.6372 41.1249 20.3608H41.1299Z" fill="#8D2813"/>
<path d="M2.86261 55.1949C2.38061 55.314 1.92711 55.5277 1.52848 55.8237C1.12985 56.1197 0.794048 56.492 0.54061 56.9189L0.065612 57.7459L0.0126106 70.7639C-0.0223894 79.7359 0.0126113 84.0639 0.153611 84.6789C0.27574 85.227 0.519274 85.7407 0.866273 86.1822C1.21327 86.6237 1.65489 86.9817 2.15861 87.2299C2.75861 87.5109 3.33761 87.5639 5.67661 87.5639C8.19261 87.5639 8.56161 87.5289 9.26561 87.1949C9.72757 86.9496 10.1344 86.6123 10.4612 86.2039C10.7879 85.7954 11.0277 85.3244 11.1656 84.8199C11.1881 84.6131 11.2414 84.4109 11.3236 84.2199C11.3586 84.2199 14.4546 85.3629 18.2376 86.7709C22.0026 88.1609 25.5376 89.4449 26.1186 89.6209C27.0506 89.8849 28.3356 89.9379 37.9576 89.9899C45.1876 90.0249 49.1816 89.9719 50.0076 89.8489C52.8396 89.4089 52.9276 89.3559 76.0436 76.2859C77.1053 75.7155 78.1279 75.0751 79.1046 74.3689C79.7529 73.5984 80.1842 72.6691 80.3543 71.6766C80.5245 70.6842 80.4272 69.6643 80.0726 68.7219C79.5359 67.4647 78.5293 66.4668 77.2675 65.9409C76.0056 65.4151 74.5883 65.4029 73.3176 65.9069C72.7896 66.0829 67.8646 68.2289 62.3576 70.6569C56.8506 73.0849 52.2956 75.0729 52.2246 75.0729C52.1536 75.0729 52.0306 74.7209 51.9786 74.2809C51.7133 73.1385 51.2113 72.0644 50.5051 71.1281C49.7988 70.1918 48.9041 69.414 47.8786 68.8449C46.5786 68.1939 46.1196 68.1239 38.4146 67.2449C34.5446 66.7879 31.0256 66.3449 30.5866 66.2449C28.7977 65.6602 27.0854 64.8628 25.4866 63.8699C21.8335 61.64 17.6762 60.3693 13.4006 60.1759L11.2366 60.0699V58.9949C11.2821 58.1455 11.0344 57.3062 10.5348 56.6176C10.0353 55.9291 9.31426 55.4332 8.49261 55.2129C6.62256 54.9958 4.73401 54.9897 2.86261 55.1949ZM8.21061 57.9389C8.59761 58.2029 8.59761 58.2729 8.59761 61.9679C8.59761 65.9609 8.68561 66.4539 9.42461 66.7879C9.63161 66.9332 9.88551 66.9957 10.1363 66.9631C10.3871 66.9305 10.6166 66.8052 10.7796 66.6119C11.2196 66.2599 11.2366 66.1899 11.2366 64.5009V62.7589H12.5206C15.5659 62.8492 18.5677 63.5057 21.3726 64.6949C22.0236 64.9759 23.5186 65.7859 24.7146 66.4539C26.3792 67.5233 28.2014 68.3248 30.1146 68.8289C30.7146 68.9519 34.3716 69.4289 38.2416 69.8839C42.1116 70.3239 45.6476 70.7989 46.0876 70.9569C46.954 71.2624 47.7187 71.8024 48.2964 72.5167C48.8741 73.2311 49.2421 74.0917 49.3596 75.0029L49.4656 76.0029L42.8846 75.8949C40.0422 75.915 37.2006 75.7919 34.3706 75.5259C30.7116 74.9979 30.7116 74.9979 30.2366 75.3849C30.0848 75.5 29.9659 75.653 29.8919 75.8285C29.8178 76.004 29.7912 76.1959 29.8146 76.3849C29.8146 77.3699 30.2146 77.5989 32.6816 77.9509C36.7937 78.4671 40.9383 78.6787 45.0816 78.5839H50.8516L54.0516 77.1939C55.7936 76.4379 61.0356 74.1329 65.6796 72.0749C74.9156 67.9749 75.4606 67.7999 76.6216 68.5389C77.1645 68.8806 77.5586 69.4144 77.7254 70.0338C77.8922 70.6532 77.8195 71.3127 77.5216 71.8809C77.1346 72.6369 76.8356 72.8129 65.7706 79.0579C59.5256 82.5939 53.7906 85.7779 53.0166 86.1469C50.5166 87.3469 50.1496 87.3779 38.7846 87.3779C30.7976 87.3779 28.4056 87.3249 27.3846 87.1319C26.6846 86.9909 22.7576 85.6319 18.6766 84.1059L11.2356 81.3439V76.3129C11.2356 71.4049 11.2356 71.2989 10.8486 70.8949C10.6259 70.6563 10.3181 70.5152 9.99199 70.5021C9.66588 70.489 9.34775 70.605 9.10661 70.8249L8.68461 71.1589L8.59661 77.8589C8.52661 83.5759 8.47361 84.5969 8.24461 84.7369C7.36174 84.8877 6.46563 84.9467 5.57061 84.9129C3.28361 84.9129 3.14261 84.8949 2.89661 84.5259C2.65061 84.1739 2.61561 82.6259 2.61561 71.3149V58.5079L3.05561 58.0859C3.45561 57.6639 3.58361 57.6459 5.64161 57.6459C7.33161 57.6559 7.91161 57.7259 8.21061 57.9379V57.9389Z" fill="#484A53"/>
</svg>
