<svg width="91" height="90" viewBox="0 0 91 90" fill="none" xmlns="http://www.w3.org/2000/svg">
<g clip-path="url(#clip0_878_48)">
<path d="M22.2033 0.454247C22.06 0.559858 21.9502 0.704728 21.8874 0.871362C21.8246 1.038 21.8114 1.21926 21.8493 1.39324C24.0362 5.22321 26.4197 8.93749 28.9903 12.5212C29.0829 12.6378 29.2 12.7325 29.3333 12.7988C29.4666 12.865 29.6128 12.901 29.7616 12.9044C29.9104 12.9077 30.0581 12.8782 30.1943 12.8181C30.3304 12.7579 30.4516 12.6685 30.5493 12.5562C31.4353 11.8472 31.2933 11.5113 27.7143 5.92925C25.9073 3.09425 24.2593 0.613233 24.0463 0.383233C23.9263 0.256409 23.7806 0.156688 23.6189 0.0907526C23.4572 0.0248175 23.2832 -0.00581345 23.1087 0.00090883C22.9342 0.00763111 22.7632 0.0515743 22.607 0.129754C22.4509 0.207934 22.3133 0.318565 22.2033 0.454247Z" fill="#8D2813"/>
<path d="M66.6816 0.382983C66.4686 0.612983 64.8206 3.09397 63.0136 5.92897C59.4346 11.511 59.2926 11.847 60.1786 12.556C60.2763 12.6683 60.3976 12.7577 60.5337 12.8178C60.6698 12.878 60.8175 12.9074 60.9663 12.9041C61.1151 12.9008 61.2614 12.8647 61.3947 12.7985C61.528 12.7323 61.645 12.6375 61.7376 12.521C64.3082 8.93723 66.6917 5.22295 68.8786 1.39299C68.8903 1.13364 68.8243 0.876686 68.6892 0.655016C68.5541 0.433347 68.3559 0.257046 68.12 0.148608C67.8842 0.0401697 67.6213 0.00452913 67.3651 0.0462822C67.1088 0.0880353 66.8709 0.205269 66.6816 0.382983Z" fill="#8D2813"/>
<path d="M0.372 0.809225C0.169399 1.05816 0.0405354 1.35882 0 1.67721C0 1.94321 2.693 5.46922 7.726 11.7952C11.979 17.1462 15.558 21.5762 15.665 21.6472C15.9057 21.7493 16.1657 21.7978 16.427 21.7892C16.7606 21.788 17.081 21.6587 17.3218 21.4278C17.5627 21.197 17.7056 20.8825 17.721 20.5492C17.721 20.2122 15.807 17.6782 10.261 10.6972C6.168 5.54023 2.588 1.11023 2.34 0.827231C2.22573 0.675002 2.07792 0.551129 1.90804 0.465262C1.73816 0.379395 1.55078 0.333824 1.36045 0.332083C1.17011 0.330342 0.981928 0.372476 0.810508 0.455222C0.639088 0.537967 0.489037 0.659112 0.372 0.809225Z" fill="#8D2813"/>
<path d="M88.3864 1.00332C88.1384 1.28732 84.6474 5.6813 80.6424 10.8033C75.2914 17.6253 73.3594 20.2123 73.3594 20.5493C73.3748 20.8825 73.5177 21.1971 73.7585 21.4279C73.9994 21.6587 74.3198 21.7881 74.6534 21.7893C74.9147 21.7979 75.1747 21.7494 75.4154 21.6473C75.5214 21.5763 79.0154 17.1823 83.1764 11.8833C88.0144 5.71632 90.7254 2.11932 90.7254 1.85332C90.6848 1.53494 90.556 1.23424 90.3534 0.985312C90.2363 0.835387 90.0863 0.714424 89.915 0.631796C89.7437 0.549169 89.5556 0.5071 89.3654 0.508841C89.1752 0.510581 88.988 0.556088 88.8182 0.641837C88.6484 0.727585 88.5007 0.851275 88.3864 1.00332Z" fill="#8D2813"/>
<path d="M38.0266 2.4922C37.3886 2.9922 37.4266 3.55521 38.2926 6.19221C39.0546 8.53121 39.5156 9.2042 40.3306 9.2042C40.6394 9.1515 40.9268 9.01183 41.159 8.80158C41.3912 8.59134 41.5586 8.31926 41.6416 8.01722C41.4221 7.0869 41.15 6.16975 40.8266 5.27021C39.7986 2.19121 39.1966 1.5712 38.0266 2.4922Z" fill="#8D2813"/>
<path d="M51.1589 2.47428C50.8219 2.74028 50.5029 3.44927 49.9009 5.27427C49.5776 6.17381 49.3055 7.09096 49.0859 8.02128C49.1673 8.32732 49.3365 8.60281 49.5727 8.81376C49.8089 9.02471 50.1017 9.16185 50.4149 9.20826C51.1949 9.20826 51.6549 8.51726 52.4349 6.17826C53.3029 3.55526 53.3349 2.98826 52.7009 2.49226C52.6042 2.38423 52.4861 2.29749 52.354 2.23756C52.222 2.17762 52.0789 2.14581 51.9339 2.14411C51.7889 2.14242 51.6451 2.1709 51.5117 2.22773C51.3783 2.28457 51.2582 2.36854 51.1589 2.47428Z" fill="#8D2813"/>
<path d="M31.2721 16.5442C30.4525 16.8246 29.6969 17.265 29.049 17.8399C28.4011 18.4148 27.8739 19.1128 27.4981 19.8932C27.0201 20.7932 27.0201 20.8682 26.9661 24.4822L26.9131 28.1682H26.0801C24.7514 28.2376 23.4541 28.5972 22.2793 29.2217C21.1045 29.8463 20.0808 30.7206 19.2801 31.7832C18.6801 32.6342 18.6421 33.1832 19.2271 33.7502C19.9361 34.4772 20.4501 34.3352 21.6721 33.0412C22.2358 32.3925 22.9253 31.8648 23.6987 31.4901C24.4722 31.1154 25.3136 30.9014 26.1721 30.8612C26.8867 30.7876 27.6088 30.8539 28.2981 31.0562C29.0071 31.2862 43.9271 39.1902 45.6461 40.2352C46.1706 40.595 46.5438 41.1358 46.6942 41.7538C46.8446 42.3718 46.7616 43.0236 46.4611 43.5842C46.2131 44.0272 45.6991 44.4172 44.4761 45.1082C42.8469 46.1319 40.9942 46.746 39.0761 46.8982C36.8261 47.0402 35.5321 46.6682 31.7041 44.8072C28.4041 43.2122 28.3901 43.1942 27.8411 43.4782C27.5564 43.6281 27.3341 43.8743 27.214 44.1728C27.0938 44.4713 27.0836 44.8028 27.1851 45.1082C27.2911 45.4802 27.8411 45.8172 30.7111 47.2172C34.8221 49.2372 35.7261 49.5032 38.4551 49.5032C40.2923 49.5769 42.1206 49.2126 43.7891 48.4402L44.8171 47.9792L45.3171 48.5462C46.6475 49.9872 47.8016 51.5814 48.7551 53.2952C49.1451 54.2522 49.1801 54.5892 49.2691 59.3952C49.3581 64.3392 49.3751 64.4952 49.7471 64.8712C49.9904 65.1034 50.3101 65.2387 50.6462 65.2518C50.9823 65.2649 51.3115 65.1548 51.5721 64.9422C51.9091 64.6422 51.9261 64.4102 51.9261 59.7322C51.9261 53.0872 51.6601 52.1482 48.8431 48.6752C48.0101 47.6292 47.3191 46.7432 47.3191 46.6902C47.3191 46.6192 47.5491 46.3902 47.8191 46.1582C48.2211 45.7557 48.5614 45.2961 48.8291 44.7942C49.2503 44.117 49.4372 43.3201 49.3611 42.5262C49.3677 41.9089 49.3202 41.2922 49.2191 40.6832L49.0771 40.1692L49.6091 40.6302C50.0916 40.9725 50.6154 41.2524 51.1681 41.4632C52.2119 41.8195 53.3276 41.912 54.4158 41.7327C55.504 41.5533 56.5309 41.1076 57.4051 40.4352L57.8481 40.0982L58.8051 41.1262C59.5655 42.0008 60.5596 42.6404 61.6707 42.97C62.7817 43.2996 63.9638 43.3056 65.0781 42.9872C65.6271 42.8282 66.1231 42.7032 66.1781 42.7032C66.2802 43.2637 66.3158 43.8344 66.2841 44.4032C66.2553 45.0883 66.321 45.774 66.4791 46.4412C66.6045 46.6346 66.7787 46.7915 66.9841 46.896C67.1895 47.0005 67.4189 47.0489 67.6491 47.0363C67.8792 47.0237 68.1019 46.9506 68.2947 46.8243C68.4875 46.6981 68.6436 46.5231 68.7471 46.3172C68.9311 45.2171 68.9965 44.1003 68.9421 42.9862C68.9421 40.3632 68.9771 40.0092 69.3501 39.2292C69.7221 38.3782 69.7401 38.2192 69.7401 32.0702V25.7792L69.1731 24.6092C68.4948 23.2274 67.3627 22.1204 65.9661 21.4732C65.1833 21.0976 64.3161 20.9329 63.4501 20.9952C62.5637 20.9153 61.6728 21.0887 60.8811 21.4952C60.3744 21.7279 59.8934 22.0132 59.4461 22.3462C59.0921 22.6832 59.0921 22.6832 58.5251 21.8852C57.757 20.8625 56.7117 20.0816 55.5131 19.6352C54.5345 19.3268 53.4988 19.2431 52.4834 19.3905C51.4679 19.5378 50.4988 19.9123 49.6481 20.4862C48.9921 21.0182 48.8481 21.0182 48.4781 20.4332C47.3814 18.9889 45.7559 18.0392 43.9591 17.7932C42.5011 17.691 41.0485 18.0572 39.8131 18.8382L38.9271 19.4232L37.7751 18.2532C37.2288 17.6012 36.537 17.0867 35.7553 16.7513C34.9736 16.4159 34.124 16.2689 33.2751 16.3222C32.6009 16.314 31.9282 16.3886 31.2721 16.5442ZM34.8721 19.2912C35.6328 19.6799 36.2435 20.3092 36.6091 21.0812C36.9091 21.6482 36.9461 22.2332 36.9991 27.0532C37.0341 30.0122 36.9991 32.4222 36.9281 32.4222C36.8571 32.4222 35.1911 31.5712 33.2071 30.5082L29.6071 28.6082L29.5891 25.1532C29.5891 21.3962 29.7311 20.7412 30.6701 19.9082C31.2364 19.4111 31.9344 19.0884 32.68 18.9789C33.4255 18.8694 34.1868 18.9779 34.8721 19.2912ZM44.3521 20.5672C45.3234 20.9136 46.1315 21.6081 46.6201 22.5162C46.9391 23.1542 46.9571 23.6162 46.9571 29.7642C46.9571 35.1512 46.9041 36.4442 46.6911 36.9582L46.4251 37.5782L44.2631 36.4262C43.0631 35.7882 41.5341 34.9732 40.8431 34.6012L39.6031 33.9102V28.6102C39.6031 23.4002 39.6031 23.2762 40.0111 22.4612C40.3937 21.683 41.0398 21.0656 41.8346 20.7188C42.6294 20.372 43.5214 20.3183 44.3521 20.5672ZM55.4801 22.5872C55.9294 22.9239 56.3085 23.3451 56.5961 23.8272C56.9501 24.5002 56.9681 24.8022 56.9681 30.5612C56.9681 36.3202 56.9501 36.6212 56.5961 37.2952C56.3156 37.8248 55.9015 38.2718 55.3949 38.5919C54.8883 38.9121 54.3068 39.0942 53.7081 39.1202C53.1497 39.1589 52.5886 39.1171 52.0421 38.9962C51.0202 38.4948 50.2234 37.6285 49.8091 36.5682C49.552 32.5723 49.552 28.5641 49.8091 24.5682C50.1943 23.5708 50.9065 22.7335 51.8291 22.1932C52.3852 22.0232 52.9691 21.963 53.5481 22.0162C54.2401 21.9682 54.9263 22.1709 55.4811 22.5872H55.4801ZM64.5701 23.7572C65.1063 23.976 65.593 24.3005 66.001 24.7115C66.4091 25.1225 66.7302 25.6115 66.9451 26.1492C67.2258 30.0837 67.2318 34.0329 66.9631 37.9682C66.8089 38.4522 66.5555 38.8986 66.2191 39.2792C65.8109 39.7475 65.2914 40.1055 64.7084 40.3202C64.1255 40.5348 63.4978 40.5993 62.8834 40.5075C62.269 40.4157 61.6876 40.1707 61.1928 39.7951C60.6979 39.4195 60.3057 38.9253 60.0521 38.3582C59.7521 37.7202 59.7151 37.1352 59.7151 32.2452C59.6557 30.2098 59.7209 28.1726 59.9101 26.1452C60.1026 25.6307 60.3966 25.1601 60.7745 24.7614C61.1524 24.3627 61.6066 24.044 62.1101 23.8242C62.9002 23.5275 63.7669 23.5035 64.5721 23.7562L64.5701 23.7572Z" fill="#484A53"/>
<path d="M0.370421 35.1861C0.150737 35.3972 0.0222378 35.6858 0.0123363 35.9903C0.0024349 36.2948 0.111915 36.5912 0.317421 36.8161C2.64845 38.2911 5.11014 39.5488 7.67142 40.5731C7.90949 40.5476 8.13625 40.4583 8.32769 40.3145C8.51912 40.1707 8.66812 39.9778 8.75892 39.7562C8.84971 39.5347 8.87892 39.2927 8.84344 39.0559C8.80797 38.8191 8.70915 38.5963 8.55742 38.4111C6.22372 36.9831 3.77607 35.7502 1.23942 34.7251C1.06837 34.7274 0.900331 34.7704 0.749214 34.8506C0.598096 34.9308 0.468248 35.0458 0.370421 35.1861Z" fill="#8D2813"/>
<path d="M85.8346 36.4624C84.1516 37.4014 82.6626 38.2874 82.5036 38.4294C82.312 38.6921 82.2148 39.0119 82.2277 39.3367C82.2406 39.6616 82.3628 39.9727 82.5746 40.2194C82.8085 40.4326 83.1094 40.5578 83.4256 40.5734C85.874 39.5484 88.2181 38.2903 90.4256 36.8164C90.6244 36.5871 90.7277 36.2904 90.7145 35.9873C90.7013 35.6841 90.5725 35.3976 90.3546 35.1864C89.7506 34.4074 89.1836 34.5664 85.8346 36.4624Z" fill="#8D2813"/>
<path d="M16.7985 37.0113C16.2315 37.4723 13.9455 42.3453 13.4315 44.2053C12.8822 46.9541 12.8822 49.7845 13.4315 52.5333C14.0273 54.4847 14.9114 56.3362 16.0545 58.0263C18.2899 60.8155 20.6923 63.4667 23.2485 65.9653C23.4738 66.004 23.7052 65.9863 23.9219 65.9135C24.1387 65.8408 24.334 65.7154 24.4903 65.5486C24.6466 65.3817 24.759 65.1787 24.8175 64.9577C24.8761 64.7367 24.8788 64.5046 24.8255 64.2823C24.7365 64.0693 23.2665 62.2973 21.5475 60.3663C19.8475 58.4353 18.1475 56.3973 17.7905 55.8473C16.3774 53.6204 15.6154 51.0426 15.5905 48.4053C15.5905 45.8053 16.0685 44.0993 17.8765 40.4133C18.9215 38.2693 19.0105 37.5963 18.3195 37.0463C18.2245 36.9398 18.1087 36.854 17.9792 36.7942C17.8496 36.7344 17.7092 36.7018 17.5666 36.6985C17.424 36.6952 17.2822 36.7213 17.15 36.7751C17.0179 36.8289 16.8982 36.9093 16.7985 37.0113Z" fill="#484A53"/>
<path d="M66.6443 50.5141C66.3073 50.8681 66.2902 51.2232 66.2362 58.1872L66.1833 65.4701L65.6833 66.8702C65.1247 68.2137 64.4735 69.5169 63.7343 70.7701L62.2812 73.2701V89.3422L62.7062 89.6791C62.9492 89.9004 63.2695 90.017 63.5978 90.0038C63.9262 89.9905 64.236 89.8483 64.4602 89.6081C64.8502 89.2001 64.8503 89.1471 64.8503 81.6691V74.1381L66.0373 72.1182C68.8013 67.3512 68.8013 67.3512 68.8723 58.3852C68.9433 51.1732 68.9432 51.1022 68.5722 50.6242C68.4582 50.4822 68.3157 50.3658 68.1539 50.2824C67.992 50.1991 67.8145 50.1507 67.6327 50.1403C67.451 50.1299 67.2691 50.1578 67.0988 50.2222C66.9285 50.2867 66.7737 50.3861 66.6443 50.5141Z" fill="#484A53"/>
<path d="M7.26525 55.7594C5.07928 56.9396 2.96128 58.2417 0.92125 59.6594C0.702526 59.9 0.565953 60.204 0.53125 60.5274C0.581096 60.8486 0.728545 61.1466 0.953592 61.3812C1.17864 61.6157 1.47039 61.7753 1.78925 61.8384C4.13955 60.6998 6.39682 59.3784 8.54025 57.8864C9.39125 57.0534 8.36325 55.3694 7.26525 55.7594Z" fill="#8D2813"/>
<path d="M82.9297 55.8663C82.6649 56.0272 82.4595 56.2697 82.3445 56.5573C82.2294 56.845 82.2109 57.1622 82.2917 57.4613C82.3807 57.8333 83.0717 58.3293 85.6587 59.8713C86.816 60.6216 88.0308 61.2793 89.2917 61.8383C89.6105 61.7752 89.9023 61.6156 90.1273 61.3811C90.3524 61.1466 90.4998 60.8485 90.5497 60.5273C90.515 60.2039 90.3784 59.9 90.1597 59.6593C88.1075 58.2088 85.9585 56.9004 83.7277 55.7433C83.4554 55.7003 83.1764 55.7433 82.9297 55.8663Z" fill="#8D2813"/>
<path d="M17.133 68.0741C16.188 69.0059 15.3495 70.04 14.633 71.1571C14.595 71.3791 14.6121 71.607 14.6827 71.8208C14.7533 72.0347 14.8753 72.2279 15.038 72.3836C15.2007 72.5393 15.3991 72.6527 15.6158 72.7138C15.8325 72.7749 16.061 72.7819 16.281 72.7341C16.9263 72.2722 17.4992 71.7168 17.981 71.0861C19.044 69.8461 19.31 69.4381 19.31 68.9771C19.3149 68.7228 19.243 68.4729 19.1037 68.26C18.9645 68.0471 18.7643 67.8811 18.5293 67.7836C18.2943 67.6861 18.0354 67.6617 17.7864 67.7136C17.5373 67.7654 17.3096 67.891 17.133 68.0741Z" fill="#8D2813"/>
<path d="M26.6287 67.9514C26.412 68.1208 26.2531 68.3532 26.1738 68.6166C26.0944 68.88 26.0986 69.1614 26.1857 69.4224C26.8709 70.3946 27.6227 71.3182 28.4357 72.1864L30.5617 74.6144L30.6507 81.9684L30.7397 89.3404L31.1647 89.6774C31.4076 89.8986 31.728 90.0153 32.0563 90.002C32.3846 89.9887 32.6945 89.8465 32.9187 89.6064C33.3087 89.1984 33.3087 89.1634 33.3087 81.4554V73.7114L30.8087 70.8764C29.922 69.8247 28.9817 68.8194 27.9917 67.8644C27.7811 67.7435 27.5395 67.6872 27.2971 67.7027C27.0547 67.7182 26.8223 67.8047 26.6287 67.9514Z" fill="#484A53"/>
<path d="M72.1213 68.0395C71.4303 68.7305 71.6433 69.4035 73.0963 71.0875C73.578 71.7181 74.151 72.2736 74.7963 72.7355C75.0164 72.7832 75.2448 72.7762 75.4615 72.7151C75.6783 72.654 75.8767 72.5406 76.0394 72.3849C76.2021 72.2292 76.3241 72.036 76.3947 71.8222C76.4653 71.6083 76.4823 71.3804 76.4443 71.1585C75.7279 70.0413 74.8894 69.0073 73.9443 68.0755C73.701 67.8408 73.3779 67.7066 73.0399 67.7C72.7018 67.6933 72.3738 67.8146 72.1213 68.0395Z" fill="#8D2813"/>
<path d="M10.4913 75.7821C7.67435 78.9891 3.66935 83.7561 3.50935 84.1101C3.40811 84.4174 3.42034 84.7508 3.54381 85.0498C3.66728 85.3488 3.89382 85.5937 4.18235 85.7401C5.15735 86.1831 5.03335 86.2891 11.3943 78.7941C13.6443 76.1541 13.8043 75.7991 13.0243 75.0371C12.2623 74.2581 11.6913 74.4181 10.4913 75.7821Z" fill="#8D2813"/>
<path d="M78.0573 75.0213C77.2773 75.8013 77.4373 76.1553 79.6873 78.7953C86.0493 86.2953 85.9243 86.1843 86.8993 85.7413C87.1626 85.592 87.3745 85.3665 87.5073 85.0945C87.6401 84.8225 87.6875 84.5167 87.6433 84.2173C87.5903 84.0403 85.7652 81.8253 83.6032 79.2913C80.0942 75.2153 79.5813 74.6843 79.0843 74.6313C78.894 74.6038 78.6999 74.6251 78.5203 74.6934C78.3406 74.7616 78.1813 74.8745 78.0573 75.0213Z" fill="#8D2813"/>
</g>
<defs>
<clipPath id="clip0_878_48">
<rect width="90.727" height="90" fill="white"/>
</clipPath>
</defs>
</svg>
