<svg width="90" height="90" viewBox="0 0 90 90" fill="none" xmlns="http://www.w3.org/2000/svg">
<g clip-path="url(#clip0_878_39)">
<path d="M43.3225 0.117003C42.021 0.518166 40.8336 1.22323 39.8585 2.17398C39.3549 2.76795 38.9294 3.42397 38.5925 4.12601C38.1182 5.00202 37.9218 6.00167 38.0295 6.992C37.9134 8.03847 38.142 9.09423 38.6805 9.99899C39.3778 11.506 40.6056 12.7035 42.1295 13.363C42.9999 13.8357 43.9937 14.0321 44.9785 13.926C45.9633 14.0321 46.957 13.8357 47.8275 13.363C49.3498 12.7043 50.5766 11.5087 51.2745 10.004C51.815 9.09341 52.0435 8.03132 51.9255 6.979C52.0435 5.92669 51.815 4.86457 51.2745 3.95398C50.7482 2.81682 49.918 1.84719 48.8755 1.1521C47.8329 0.457005 46.6186 0.0634837 45.3665 0.0149828C44.6835 -0.0229719 43.9983 0.0112374 43.3225 0.117003ZM46.4705 2.87799C47.3026 3.20184 48.0211 3.76316 48.5367 4.49213C49.0523 5.22109 49.3423 6.08555 49.3705 6.978C49.3354 8.13382 48.8605 9.23268 48.0428 10.0504C47.2252 10.868 46.1263 11.3429 44.9705 11.378C43.8166 11.3356 42.7198 10.8654 41.8935 10.059C41.4842 9.65773 41.1591 9.17888 40.9372 8.65045C40.7153 8.12202 40.601 7.55465 40.601 6.9815C40.601 6.40836 40.7153 5.84096 40.9372 5.31253C41.1591 4.7841 41.4842 4.30525 41.8935 3.90399C42.4722 3.30371 43.2144 2.88652 44.028 2.70413C44.8416 2.52175 45.6909 2.5822 46.4705 2.87799Z" fill="#8D2813"/>
<path d="M25.1891 6.38087C24.4173 6.71366 23.7535 7.25481 23.2721 7.94365C22.7906 8.63248 22.5104 9.44178 22.4631 10.2809C22.4631 11.8989 22.5511 12.0039 28.7061 18.2289C33.6471 23.2409 35.6521 25.4559 35.6521 25.9489C35.3593 26.1971 35.034 26.404 34.6851 26.5639C31.256 28.5127 28.4276 31.3653 26.5081 34.8109L26.0511 35.6369L25.1721 35.0739C24.6971 34.7569 21.6551 31.8909 18.4201 28.6909C12.1951 22.5359 12.0901 22.4479 10.4721 22.4479C9.36027 22.4987 8.30941 22.9704 7.53262 23.7675C6.75583 24.5645 6.31126 25.6271 6.28906 26.7399C6.30706 28.1999 6.76406 28.7969 11.6521 33.7029C13.4252 35.3462 15.0713 37.1217 16.5761 39.0139C16.9631 39.9809 16.9631 49.9339 16.5761 50.8839C15.0183 52.8386 13.3198 54.6768 11.4941 56.3839C6.43006 61.5049 6.28906 61.6809 6.28906 63.2809C6.33936 64.3928 6.81076 65.4441 7.60764 66.2213C8.40451 66.9985 9.46718 67.4434 10.5801 67.4659C12.0571 67.4479 12.5801 67.0259 18.5991 61.0659C21.7471 57.9539 24.6991 55.1579 25.1761 54.8409L26.0551 54.2779L26.5121 55.1039C28.1847 58.0641 30.52 60.5969 33.3351 62.5039C33.9651 62.9389 34.6228 63.3324 35.3041 63.6819C35.4971 63.7519 35.6561 63.8579 35.6561 63.9279C34.9556 65.2025 34.0597 66.3596 33.0011 67.3569C31.2601 69.1859 31.1011 69.6079 31.8931 70.3989C32.6491 71.1379 33.1931 70.8909 35.0581 68.9919C35.9132 68.1086 36.7008 67.1622 37.4141 66.1609C37.6572 65.7519 37.9334 65.3637 38.2401 64.9999C38.2751 64.9999 38.9081 65.1579 39.6641 65.3519C43.1431 66.2838 46.8061 66.2838 50.2851 65.3519C51.0411 65.1589 51.6741 64.9999 51.7091 64.9999C52.0182 65.3677 52.2946 65.7619 52.5351 66.1779C54.5665 68.651 56.7512 70.9943 59.0761 73.1939C64.2811 78.4339 64.8441 79.0669 64.8441 79.5769C64.8129 79.9909 64.6344 80.38 64.3408 80.6736C64.0472 80.9672 63.6581 81.1458 63.2441 81.1769C62.7161 81.1769 62.1891 80.7019 57.9161 76.4469C54.3641 72.9299 52.9041 71.5939 52.1831 71.2239L51.2161 70.7139H38.7331L37.8541 71.1359C37.2031 71.4529 35.7091 72.8239 32.1211 76.3759C27.7781 80.6839 27.2151 81.1759 26.7051 81.1759C26.2921 81.1418 25.9047 80.9622 25.6117 80.6693C25.3187 80.3763 25.1392 79.9888 25.1051 79.5759C25.1051 79.1009 25.4221 78.6969 27.3911 76.6919C29.4311 74.6169 29.6771 74.2999 29.6771 73.7549C29.6884 73.5879 29.6639 73.4205 29.6052 73.2638C29.5465 73.1071 29.4548 72.9648 29.3365 72.8464C29.2182 72.7281 29.0759 72.6365 28.9192 72.5777C28.7625 72.519 28.595 72.4945 28.4281 72.5059C27.9711 72.5059 27.5281 72.8579 25.5281 74.8619C24.5569 75.7721 23.6684 76.7666 22.8731 77.8339C22.5323 78.5977 22.4273 79.4459 22.5716 80.2697C22.7159 81.0935 23.1029 81.8555 23.683 82.458C24.263 83.0606 25.0098 83.4762 25.8276 83.6516C26.6453 83.8271 27.4969 83.7544 28.2731 83.4429C28.8531 83.1969 30.3481 81.8079 33.7241 78.4489C35.3674 76.6757 37.1428 75.0296 39.0351 73.5249C40.0021 73.1379 49.9551 73.1379 50.9221 73.5249C52.8143 75.0296 54.5897 76.6757 56.2331 78.4489C61.1391 83.3379 61.7331 83.7949 63.1961 83.8119C63.8534 83.8127 64.502 83.6615 65.0912 83.3701C65.6804 83.0788 66.1943 82.6551 66.5927 82.1323C66.9911 81.6095 67.2632 81.0017 67.3878 80.3563C67.5125 79.7109 67.4862 79.0454 67.3111 78.4119C67.1001 77.6379 66.5371 77.0229 61.2441 71.6769C56.1971 66.5599 54.2981 64.4499 54.2981 63.9219C54.2981 63.8519 54.4561 63.7459 54.6501 63.6759C56.5614 62.6495 58.3145 61.3524 59.8551 59.8249C61.3826 58.2843 62.6797 56.5312 63.7061 54.6199C63.7761 54.4269 63.8821 54.2679 63.9521 54.2679C64.4801 54.2679 66.5901 56.1679 71.7071 61.2139C77.0531 66.5069 77.6681 67.0699 78.4421 67.2809C79.0756 67.456 79.7411 67.4823 80.3865 67.3576C81.0319 67.233 81.6397 66.9609 82.1625 66.5625C82.6853 66.1641 83.109 65.6502 83.4003 65.061C83.6917 64.4718 83.8429 63.8232 83.8421 63.1659C83.8241 61.7059 83.3671 61.1089 78.4791 56.2019C76.7059 54.5585 75.0598 52.7831 73.5551 50.8909C73.3441 50.3459 73.2911 49.3259 73.2911 44.9469C73.2911 40.5679 73.3441 39.5469 73.5551 39.0029C75.0598 37.1107 76.7059 35.3352 78.4791 33.6919C83.3681 28.7859 83.8251 28.1919 83.8421 26.7289C83.8422 26.0204 83.6652 25.3231 83.3273 24.7004C82.9894 24.0777 82.5012 23.5493 81.9072 23.1632C81.3132 22.7771 80.6321 22.5456 79.9258 22.4896C79.2195 22.4337 78.5105 22.5551 77.8631 22.8429C76.9216 23.5283 76.0447 24.2982 75.2431 25.1429C73.5201 26.8839 73.2431 27.2359 73.2431 27.7279C73.2466 27.8952 73.284 28.0601 73.3529 28.2126C73.4218 28.3652 73.5209 28.5022 73.6441 28.6155C73.7672 28.7288 73.9121 28.816 74.0698 28.8719C74.2276 28.9278 74.395 28.9513 74.5621 28.9409C75.0021 28.9409 75.4411 28.6069 77.0771 27.0069C78.7651 25.3539 79.1341 25.0729 79.6271 25.0729C80.0371 25.1104 80.4207 25.2915 80.7103 25.5842C80.9999 25.8769 81.1769 26.2624 81.2101 26.6729C81.2101 27.1829 80.7181 27.7459 76.4101 32.0889C72.8581 35.6759 71.4861 37.1709 71.1701 37.8219L70.7481 38.7009V51.1859L71.2581 52.1529C71.6271 52.8739 72.9641 54.3329 76.4811 57.8859C80.7361 62.1589 81.2111 62.6859 81.2111 63.2139C81.1799 63.6279 81.0014 64.017 80.7078 64.3106C80.4142 64.6042 80.0251 64.7827 79.6111 64.8139C79.1011 64.8139 78.4681 64.2509 73.2281 59.0459C71.027 56.7282 68.6895 54.544 66.2281 52.5049C65.8033 52.2673 65.4016 51.9908 65.0281 51.6789C65.0281 51.6439 65.1861 51.0109 65.3801 50.2549C65.8412 48.5221 66.0765 46.737 66.0801 44.9439C66.0765 43.1508 65.8412 41.3657 65.3801 39.6329C65.1871 38.8769 65.0281 38.2439 65.0281 38.2089C65.4037 37.8943 65.8051 37.612 66.2281 37.3649C67.3591 36.5346 68.4285 35.6235 69.4281 34.6389C71.2921 32.8279 71.4281 32.6389 71.4281 32.0189C71.4516 31.8342 71.4272 31.6465 71.3571 31.474C71.287 31.3015 71.1737 31.1499 71.0281 31.0339C70.2371 30.4009 69.8671 30.5769 67.7571 32.5989C65.9811 34.3049 64.3281 35.6239 63.9571 35.6239C63.8871 35.6239 63.7641 35.4659 63.7111 35.2549C63.3556 34.5724 62.9547 33.9146 62.5111 33.2859C60.5495 30.4369 57.9635 28.0732 54.9501 26.3749C54.7078 26.2777 54.4867 26.1343 54.2991 25.9529C54.2991 25.4429 56.2511 23.2799 61.1751 18.3039C67.4531 11.9559 67.6111 11.7269 67.4531 10.0039C67.4058 9.36847 67.2152 8.75198 66.8957 8.2007C66.5762 7.64941 66.1361 7.1776 65.6083 6.82066C65.0805 6.46372 64.4787 6.23092 63.8481 6.13969C63.2175 6.04846 62.5744 6.10115 61.9671 6.29387C61.3671 6.46987 60.4201 7.31388 56.4101 11.2879C54.703 13.1136 52.8648 14.8122 50.9101 16.3699C49.9961 16.7569 40.0101 16.7569 39.0931 16.3879C38.4269 15.9972 37.8125 15.5245 37.2641 14.9809C36.8252 14.5228 36.3215 14.1317 35.7691 13.8199C35.5523 13.8197 35.3384 13.8692 35.1437 13.9647C34.9491 14.0602 34.779 14.199 34.6465 14.3706C34.5139 14.5421 34.4225 14.7418 34.3793 14.9542C34.3361 15.1667 34.3421 15.3862 34.3971 15.5959C35.304 16.8382 36.4522 17.8847 37.7731 18.6729L38.7401 19.1829H51.2181L52.1851 18.6729C52.9061 18.3039 54.3651 16.9669 57.9181 13.4499C62.1911 9.19487 62.7181 8.71989 63.2461 8.71989C63.6601 8.75103 64.0492 8.92958 64.3428 9.22316C64.6364 9.51673 64.8149 9.90585 64.8461 10.3199C64.8461 10.8299 64.2831 11.4629 59.0781 16.7029C56.752 18.9013 54.5673 21.2446 52.5371 23.7189C51.9041 24.7189 51.7111 24.8969 51.4121 24.8089C49.3314 24.1573 47.1548 23.8658 44.9761 23.9469C42.7973 23.8658 40.6207 24.1573 38.5401 24.8089C38.2401 24.8969 38.0481 24.7209 37.4151 23.7189C35.3848 21.2446 33.2001 18.9013 30.8741 16.7029C25.6691 11.4629 25.1061 10.8299 25.1061 10.3199C25.1402 9.90692 25.3197 9.5195 25.6127 9.22651C25.9057 8.93352 26.2931 8.754 26.7061 8.71989C27.1811 8.71989 27.5321 8.98388 28.9571 10.3729C30.9441 12.3249 31.3661 12.5009 32.1401 11.7449C32.4054 11.4941 32.5893 11.1694 32.6681 10.8129C32.6681 10.2329 29.4681 7.03186 28.3601 6.50486C27.8673 6.27117 27.3322 6.1397 26.7873 6.11839C26.2423 6.09708 25.6986 6.18637 25.1891 6.38087ZM16.9951 30.9289C19.1747 33.2206 21.4881 35.3814 23.9231 37.3999C24.7141 37.8749 24.9231 38.0859 24.8551 38.3669C24.8201 38.5599 24.6091 39.4749 24.3801 40.3889C23.7998 43.4092 23.7998 46.5125 24.3801 49.5329C24.6091 50.4469 24.8201 51.3619 24.8551 51.5549C24.9251 51.8359 24.7141 52.0469 23.9231 52.5219C21.4908 54.5374 19.1776 56.6923 16.9951 58.9759C11.6841 64.2509 11.0341 64.8319 10.5241 64.8319C10.11 64.8008 9.72092 64.6222 9.42735 64.3286C9.13377 64.035 8.9552 63.6459 8.92406 63.2319C8.92406 62.7039 9.39906 62.1769 13.6541 57.9039C17.1711 54.3519 18.5071 52.8919 18.8771 52.1709L19.3871 51.2039V38.7189L18.8771 37.7519C18.5081 37.0309 17.1711 35.5719 13.6541 32.0189C9.39906 27.7459 8.92406 27.2189 8.92406 26.6909C8.9552 26.2769 9.13377 25.8877 9.42735 25.5942C9.72092 25.3006 10.11 25.122 10.5241 25.0909C11.0371 25.0869 11.6891 25.6669 16.9981 30.9249L16.9951 30.9289ZM44.4621 26.7789C44.9064 27.0293 45.3196 27.3314 45.6931 27.6789C47.7681 29.5429 47.5041 31.8469 45.0251 33.7979C43.9171 34.6599 43.6361 35.2929 44.0051 36.0139C44.1564 36.2843 44.3972 36.4936 44.6861 36.6058C44.9749 36.718 45.2938 36.7262 45.5881 36.6289C46.3091 36.4529 48.3881 34.3609 49.0351 33.1469C49.5456 32.3488 49.758 31.3962 49.6351 30.4569C49.727 29.5788 49.562 28.6929 49.1601 27.9069C48.9774 27.5928 48.8356 27.2568 48.7381 26.9069C50.0855 27.2208 51.4034 27.6504 52.6771 28.1909C54.694 29.1715 56.5311 30.4853 58.1111 32.0769L59.5881 33.5539L58.7971 34.4329C56.3181 37.1939 56.6521 42.3639 59.5181 45.4939C60.1913 46.1649 60.9407 46.7549 61.7511 47.2519C63.2981 48.1659 63.2981 48.1659 62.6511 50.2239C61.7695 53.1582 60.1746 55.8284 58.0091 57.9959C56.8311 59.1569 53.6661 61.4959 53.5251 61.3019C53.5071 61.2669 53.3841 60.9019 53.2791 60.4929C52.9202 59.4552 52.2435 58.557 51.3451 57.9259C50.869 57.6392 50.3371 57.458 49.7851 57.3943C49.2331 57.3306 48.6738 57.3861 48.1451 57.5569C46.5101 57.9089 45.4551 57.8029 44.8571 57.2569C44.3843 56.7358 43.9548 56.1769 43.5731 55.5859C42.8882 54.3941 41.8411 53.4518 40.5841 52.8959C39.7375 52.487 38.7917 52.3284 37.8581 52.4389C36.8421 52.3093 35.8115 52.5128 34.9211 53.0189C33.5562 53.6894 32.468 54.8151 31.8441 56.2019C31.6882 56.5633 31.512 56.9155 31.3161 57.2569C31.1231 57.5379 28.7161 53.8459 28.0101 52.1929C27.3684 50.6554 26.9252 49.0424 26.6911 47.3929C26.6911 46.9359 26.7261 46.9179 27.2711 47.0409C27.9232 47.1332 28.5815 47.1744 29.2401 47.1639C29.8929 47.223 30.5502 47.1207 31.1543 46.8662C31.7583 46.6116 32.2905 46.2124 32.7041 45.7039C33.5301 44.7899 33.8471 43.7699 34.1461 40.9909C34.5461 37.2099 34.9901 36.7909 37.7681 37.3909C39.3861 37.7429 39.8431 37.6909 40.3001 37.0219C41.0001 36.0369 40.3701 35.2639 38.5241 34.8419C35.8511 34.2419 34.5151 34.4899 33.1431 35.7919C32.2291 36.6709 31.8241 37.9019 31.5081 40.7159C31.2271 43.2659 30.9631 44.0039 30.1891 44.3909C29.2843 44.6916 28.3037 44.6729 27.4111 44.3379L26.4971 44.0739L26.6031 43.0739C27.0943 38.7765 29.0583 34.7819 32.1614 31.7687C35.2645 28.7555 39.3151 26.9096 43.6251 26.5449C43.9194 26.5535 44.2074 26.6324 44.4651 26.7749L44.4621 26.7789ZM61.6621 37.0789C61.9261 37.6939 62.3131 38.6969 62.5241 39.3299C63.1921 41.3299 63.7021 45.1299 63.3151 45.1299C62.9689 44.9649 62.6442 44.7584 62.3481 44.5149C59.8861 42.7039 58.9891 38.7649 60.5191 36.4259C60.6771 36.1799 60.8881 35.9859 60.9941 35.9859C61.2875 36.3029 61.5149 36.6751 61.6631 37.0809L61.6621 37.0789ZM39.7891 55.4379C40.5482 55.9504 41.1797 56.6302 41.6351 57.4249C43.6041 60.2029 45.3101 60.9069 48.3871 60.1859C49.7411 59.8689 50.1631 60.0279 50.6201 61.0479C51.1301 62.1909 51.0201 62.3839 49.8461 62.7539C47.3487 63.4202 44.7403 63.5611 42.1858 63.1676C39.6312 62.7741 37.1861 61.8548 35.0051 60.4679C33.6161 59.5539 33.5631 59.5009 33.6691 58.9729C33.7786 58.2332 34.0477 57.5261 34.4576 56.9007C34.8675 56.2753 35.4085 55.7465 36.0431 55.3509C36.6402 55.1084 37.2808 54.9911 37.9251 55.006C38.5694 55.021 39.2038 55.168 39.7891 55.4379Z" fill="#8D2813"/>
<path d="M49.1082 41.0892C48.6758 41.4151 48.2911 41.7998 47.9652 42.2322C47.2745 43.1845 46.2518 43.8432 45.0992 44.0782C44.2766 44.2895 43.5574 44.7896 43.0731 45.4873C42.5888 46.185 42.3716 47.0336 42.4612 47.8782C42.4432 50.8672 45.0812 52.1512 49.1262 51.1142C51.9922 50.3752 54.4542 48.7752 55.1932 47.1572C55.4051 46.6402 55.5112 46.0859 55.5052 45.5271C55.4992 44.9684 55.3812 44.4165 55.1582 43.9042C54.5659 42.746 53.6414 41.7909 52.5032 41.1612C51.9806 40.8899 51.4027 40.7424 50.814 40.7299C50.2254 40.7174 49.6418 40.8403 49.1082 41.0892ZM52.1152 44.1492C53.0822 45.0992 53.1352 45.7142 52.3612 46.5932C51.3762 47.7362 48.4752 48.8262 46.4882 48.8262C45.6442 48.8262 45.4682 48.7732 45.2222 48.3862C45.1115 48.2424 45.0444 48.0699 45.0288 47.8891C45.0132 47.7083 45.0498 47.5268 45.1342 47.3662C45.3102 46.8212 45.4682 46.7152 46.4882 46.3812C47.7867 45.9979 48.9391 45.231 49.7942 44.1812C50.6552 43.1292 51.0952 43.1112 52.1152 44.1492Z" fill="#484A53"/>
<path d="M77.0299 38.2758C75.9569 38.9268 75.9219 39.1018 75.9219 44.9928C75.9219 49.9688 75.9399 50.3558 76.2739 50.8838C76.9249 51.9568 77.0999 51.9918 82.9559 51.9918C88.8119 51.9918 88.9869 51.9568 89.6379 50.8838C89.9719 50.3558 89.9899 49.9698 89.9899 44.9928C89.9899 39.1018 89.9549 38.9258 88.8819 38.2758C88.3539 37.9418 87.9679 37.9238 82.9559 37.9238C77.9439 37.9238 77.5569 37.9418 77.0299 38.2758ZM87.3519 44.9578V49.3578H78.5599V40.5658H87.3519V44.9578Z" fill="#8D2813"/>
<path d="M7.3437 40.2101C0.221699 43.4801 0.5737 43.2881 0.2217 44.0081C0.0225537 44.3929 -0.0473449 44.8316 0.0223606 45.2592C0.0920661 45.6868 0.297667 46.0805 0.6087 46.3821C2.40401 47.4289 4.266 48.3569 6.1827 49.1601C11.9507 51.7801 12.2147 51.8331 13.2827 50.8661L13.9337 50.2661V39.6451L13.2827 39.0452C12.2317 38.0992 11.7747 38.1881 7.3437 40.2101ZM11.3877 44.9401V48.6151L7.4307 46.8212C5.2507 45.8542 3.4737 45.0101 3.4737 44.9571C3.4737 44.9041 10.4017 41.6692 11.3517 41.2822C11.3707 41.2652 11.3877 42.9181 11.3877 44.9401Z" fill="#8D2813"/>
<path d="M40.9835 76.1701C39.4673 78.299 38.1545 80.5656 37.0625 82.9401C38.1545 85.3147 39.4673 87.5813 40.9835 89.7101C41.5285 90.0971 48.4215 90.0971 48.9665 89.7101C50.4827 87.5813 51.7955 85.3147 52.8875 82.9401C51.7955 80.5656 50.4827 78.299 48.9665 76.1701C48.4225 75.7831 41.5285 75.7831 40.9835 76.1701ZM48.7915 80.7421L50.0575 82.9421L48.7915 85.1421L47.5255 87.3421H42.4255L41.1595 85.1421L39.8935 82.9421L41.1595 80.7421L42.4255 78.5421H47.5255L48.7915 80.7421Z" fill="#8D2813"/>
<path d="M26.4577 34.7569C24.7604 37.8695 23.8711 41.3581 23.8711 44.9034C23.8711 48.4487 24.7604 51.9373 26.4577 55.0499C28.1304 58.0102 30.4657 60.543 33.2807 62.4499C33.9108 62.8849 34.5685 63.2784 35.2497 63.6279C35.4427 63.6979 35.6017 63.8039 35.6017 63.8739C35.6017 64.2079 38.1517 64.9469 38.1867 64.9469C38.2217 64.9469 38.8547 65.1049 39.6107 65.2989C43.0897 66.2309 46.7527 66.2309 50.2317 65.2989C50.9877 65.1059 51.6207 64.9469 51.6557 64.9469C51.6907 64.9469 54.1557 63.8899 54.2407 63.8739C54.2407 63.8039 54.3987 63.6979 54.5927 63.6279C56.5041 62.6015 58.2572 61.3045 59.7977 59.7769C61.3253 58.2364 62.6224 56.4833 63.6487 54.5719C63.7187 54.3789 63.8247 54.2199 63.8947 54.2199C64.4227 54.2199 64.9677 51.6699 64.9677 51.6349C64.9677 51.5999 65.1257 50.9669 65.3197 50.2109C65.7809 48.4781 66.0162 46.693 66.0197 44.8999C66.0162 43.1068 65.7809 41.3217 65.3197 39.5889C65.1267 38.8329 64.9677 38.1999 64.9677 38.1649C64.9677 38.1299 64.2677 35.5799 63.8947 35.5799C63.8247 35.5799 63.7017 35.4219 63.6487 35.2109C63.2933 34.5284 62.8924 33.8706 62.4487 33.2419C60.4871 30.3929 57.9011 28.0292 54.8877 26.3309C54.5357 26.1549 51.6517 24.8539 51.3527 24.7659C49.2721 24.1143 47.0955 23.8228 44.9167 23.9039C42.738 23.8228 40.5614 24.1143 38.4807 24.7659C38.1867 24.8569 30.1507 27.5969 26.4577 34.7569ZM44.4117 26.7209C44.8561 26.9713 45.2693 27.2734 45.6427 27.6209C47.7177 29.4849 47.4537 31.7889 44.9747 33.7399C43.8667 34.6019 43.5857 35.2349 43.9547 35.9559C44.1061 36.2263 44.3468 36.4356 44.6357 36.5478C44.9246 36.6601 45.2435 36.6682 45.5377 36.5709C46.2587 36.3949 48.3377 34.3029 48.9847 33.0889C49.4952 32.2909 49.7077 31.3383 49.5847 30.3989C49.6767 29.5208 49.5117 28.635 49.1097 27.8489C48.9271 27.5349 48.7853 27.1988 48.6877 26.8489C50.0352 27.1629 51.3531 27.5925 52.6267 28.1329C54.6436 29.1135 56.4807 30.4273 58.0607 32.0189L59.5377 33.4959L58.7467 34.3749C56.2677 37.1359 56.6017 42.3059 59.4677 45.4359C60.141 46.1069 60.8904 46.6969 61.7007 47.1939C63.2477 48.1079 63.2477 48.1079 62.6007 50.1659C61.7191 53.1002 60.1243 55.7705 57.9587 57.9379C56.7807 59.0989 53.6157 61.4379 53.4747 61.2439C53.4567 61.2089 53.3337 60.8439 53.2287 60.4349C52.87 59.3972 52.1932 58.499 51.2947 57.8679C50.8187 57.5812 50.2868 57.4 49.7347 57.3363C49.1827 57.2727 48.6235 57.3281 48.0947 57.4989C46.4597 57.8509 45.4047 57.7449 44.8067 57.1989C44.3339 56.6778 43.9045 56.119 43.5227 55.5279C42.8378 54.3362 41.7908 53.3939 40.5337 52.8379C39.6871 52.429 38.7414 52.2705 37.8077 52.3809C36.7918 52.2513 35.7612 52.4548 34.8707 52.9609C33.5059 53.6314 32.4177 54.7571 31.7937 56.1439C31.6379 56.5053 31.4616 56.8575 31.2657 57.1989C31.0727 57.4799 28.6657 53.7879 27.9597 52.1349C27.3181 50.5974 26.8749 48.9844 26.6407 47.3349C26.6407 46.8779 26.6757 46.8599 27.2207 46.9829C27.8728 47.0753 28.5312 47.1164 29.1897 47.1059C29.8425 47.165 30.4999 47.0628 31.1039 46.8082C31.7079 46.5536 32.2402 46.1544 32.6537 45.6459C33.4797 44.7319 33.7967 43.7119 34.0957 40.9329C34.4957 37.1519 34.9397 36.7329 37.7177 37.3329C39.3357 37.6849 39.7927 37.6329 40.2497 36.9639C40.9497 35.9789 40.3197 35.2059 38.4737 34.7839C35.8007 34.1839 34.4647 34.4319 33.0927 35.7339C32.1787 36.6129 31.7737 37.8439 31.4577 40.6579C31.1767 43.2079 30.9127 43.9459 30.1387 44.3329C29.2339 44.6337 28.2534 44.6149 27.3607 44.2799L26.4467 44.0159L26.5517 43.0159C27.043 38.7186 29.007 34.7239 32.1101 31.7107C35.2131 28.6975 39.2638 26.8517 43.5737 26.4869C43.8677 26.497 44.155 26.5773 44.4117 26.7209ZM61.6117 37.0209C61.8757 37.6359 62.2627 38.6389 62.4737 39.2719C63.1417 41.2719 63.6517 45.0719 63.2647 45.0719C62.9186 44.907 62.5939 44.7004 62.2977 44.4569C59.8357 42.6459 58.9387 38.7069 60.4687 36.3679C60.6267 36.1219 60.8377 35.9279 60.9437 35.9279C61.2363 36.2458 61.4627 36.6187 61.6097 37.0249L61.6117 37.0209ZM39.7367 55.3789C40.4958 55.8914 41.1273 56.5712 41.5827 57.3659C43.5517 60.1439 45.2577 60.8479 48.3347 60.1269C49.6887 59.8099 50.1107 59.9689 50.5677 60.9889C51.0777 62.1319 50.9677 62.3249 49.7937 62.6949C47.2964 63.3612 44.688 63.5021 42.1334 63.1086C39.5789 62.7151 37.1338 61.7958 34.9527 60.4089C33.5637 59.4949 33.5107 59.4419 33.6167 58.9139C33.7263 58.1742 33.9954 57.4672 34.4053 56.8418C34.8152 56.2163 35.3562 55.6875 35.9907 55.2919C36.5879 55.0503 37.2282 54.9338 37.8721 54.9494C38.5161 54.9651 39.15 55.1126 39.7347 55.3829L39.7367 55.3789Z" fill="#484A53"/>
</g>
<defs>
<clipPath id="clip0_878_39">
<rect width="89.991" height="90" fill="white"/>
</clipPath>
</defs>
</svg>
