<svg width="91" height="90" viewBox="0 0 91 90" fill="none" xmlns="http://www.w3.org/2000/svg">
<g clip-path="url(#clip0_878_21)">
<path d="M44.0769 0.266141C43.7249 0.459141 43.2509 1.19814 42.2839 3.14914C41.8737 4.07509 41.3733 4.95835 40.7899 5.78613C40.2269 5.78613 35.7089 6.54213 35.2899 6.70013C34.9544 6.82856 34.6726 7.06738 34.4908 7.37726C34.3091 7.68713 34.2382 8.04964 34.2899 8.40515C34.2899 9.16115 34.3429 9.23114 36.3999 11.3051L38.5099 13.4322L38.0699 15.9811C37.5069 19.3211 37.5069 19.4092 38.2279 20.1302C39.1279 21.0302 39.5469 20.9561 42.4999 19.4091L45.0139 18.0731L47.5459 19.4091C50.4819 20.9391 50.9039 21.0262 51.8009 20.1302C52.1067 19.8646 52.3174 19.5064 52.4009 19.1101C52.4009 18.8811 52.2079 17.5101 51.9609 16.0681L51.5389 13.4311L53.6309 11.3041C55.6529 9.26514 55.7409 9.15914 55.7409 8.43814C55.7409 6.89114 55.3539 6.68015 51.7329 6.11715L49.0259 5.71713L47.7259 3.11715C46.7059 1.07815 46.3199 0.462157 45.9149 0.251157C45.6371 0.0833921 45.3183 -0.00405461 44.9938 -0.00140643C44.6693 0.00124174 44.3519 0.0938651 44.0769 0.266141ZM45.8879 5.46615C46.253 6.22972 46.695 6.95411 47.2069 7.62814C47.6989 8.15514 47.8929 8.20813 49.7559 8.48913C50.8639 8.64713 51.8829 8.82316 52.0239 8.87616C52.1999 8.92916 51.7599 9.45613 50.6699 10.4931C49.964 11.0569 49.3781 11.7563 48.9469 12.5501C48.8877 13.2251 48.9173 13.9049 49.0349 14.5721C49.1579 15.3981 49.2989 16.3831 49.3689 16.7521L49.4569 17.4381L47.5569 16.4381C46.7822 15.9801 45.948 15.6311 45.0779 15.4012C44.1761 15.5823 43.3133 15.9208 42.5289 16.4012L40.5599 17.4381L40.6649 16.7521C40.7179 16.3831 40.8579 15.3981 40.9809 14.5721C41.0985 13.9049 41.1281 13.2251 41.0689 12.5501C40.6425 11.753 40.0559 11.0527 39.3459 10.4931C38.2909 9.49313 37.8339 8.92816 37.9919 8.87616C38.1329 8.82316 39.1519 8.64713 40.2599 8.48913C42.1239 8.20813 42.3169 8.15514 42.8089 7.62814C43.3271 6.95844 43.7695 6.23336 44.1279 5.46615C44.3663 4.89922 44.6608 4.35753 45.0069 3.84915C45.3526 4.35889 45.6463 4.90193 45.8839 5.47015L45.8879 5.46615Z" fill="#8D2813"/>
<path d="M19.0581 15.3512C17.7246 15.6345 16.4912 16.2699 15.4864 17.1912C14.4815 18.1126 13.7418 19.2862 13.3441 20.5902C13.048 21.4844 12.9457 22.4314 13.0441 23.3682C13.0235 24.3709 13.2725 25.3607 13.7651 26.2343C14.2455 27.2317 14.9382 28.112 15.7946 28.8135C16.6511 29.515 17.6506 30.0207 18.7231 30.2952C20.4369 30.7552 22.2577 30.6009 23.8697 29.8592C25.4818 29.1175 26.7834 27.8351 27.5491 26.2343C28.0417 25.3607 28.2907 24.3709 28.2701 23.3682C28.3685 22.4314 28.2662 21.4844 27.9701 20.5902C27.3962 18.769 26.1673 17.2253 24.5212 16.2576C22.875 15.2899 20.9285 14.967 19.0581 15.3512ZM22.7681 18.2872C23.6233 18.6873 24.3487 19.3198 24.8616 20.1125C25.3744 20.9052 25.6539 21.8262 25.6681 22.7702C25.7111 23.7042 25.4834 24.6308 25.0124 25.4385C24.5414 26.2462 23.8471 26.9007 23.0131 27.3232C22.3086 27.7569 21.4792 27.9424 20.6571 27.8503C19.835 27.9424 19.0056 27.7569 18.3011 27.3232C17.3904 26.8322 16.6515 26.0746 16.1833 25.152C15.7151 24.2293 15.5399 23.1856 15.6813 22.1607C15.8227 21.1357 16.2739 20.1784 16.9745 19.417C17.675 18.6556 18.5915 18.1264 19.6011 17.9002C20.6705 17.7289 21.7666 17.863 22.7631 18.2872H22.7681Z" fill="#484A53"/>
<path d="M68.1778 15.2631C67.2638 15.4565 66.8068 15.9135 66.8068 16.6341C66.8068 17.5831 67.2638 17.8341 69.0568 17.8471C69.8635 17.7726 70.6758 17.9105 71.4128 18.2471C72.2806 18.6456 73.0183 19.2811 73.5409 20.0804C74.0635 20.8797 74.3498 21.8103 74.3668 22.7651C74.4097 23.6991 74.1821 24.6257 73.7111 25.4334C73.2401 26.2411 72.5458 26.8955 71.7118 27.3181C71.0073 27.7518 70.1779 27.9374 69.3558 27.8451C68.5336 27.9373 67.7043 27.7518 66.9998 27.3181C66.1217 26.8882 65.4002 26.1941 64.9368 25.3332C64.4733 24.4723 64.2911 23.4878 64.4158 22.5181C64.4688 21.8671 64.5568 21.0061 64.6268 20.5841C64.7148 20.0041 64.6618 19.7581 64.4338 19.4941C64.1691 19.273 63.8377 19.1475 63.493 19.1379C63.1483 19.1283 62.8103 19.2351 62.5338 19.4411C61.8695 20.6405 61.5931 22.0163 61.7428 23.3791C61.7244 24.3758 61.9734 25.3592 62.4638 26.2271C62.9442 27.2245 63.6369 28.1048 64.4933 28.8063C65.3498 29.5078 66.3493 30.0136 67.4218 30.2881C69.1356 30.7481 70.9564 30.5938 72.5684 29.8521C74.1805 29.1103 75.4821 27.8279 76.2478 26.2271C76.7404 25.3536 76.9894 24.3638 76.9688 23.3611C77.0793 22.0212 76.8276 20.6761 76.24 19.4668C75.6524 18.2574 74.7505 17.2283 73.6288 16.4871C72.0179 15.4373 70.0828 15.0028 68.1778 15.2631Z" fill="#484A53"/>
<path d="M6.013 25.4951C5.07848 25.9782 4.37396 26.8125 4.05426 27.8148C3.73455 28.817 3.82582 29.9052 4.308 30.8401L4.73 31.7012L4.203 32.5452C3.359 33.8452 3.166 34.7602 3.166 37.3802V39.7182H2.466C2.04695 39.6983 1.63018 39.7905 1.25861 39.9852C0.887032 40.18 0.574087 40.4703 0.352 40.8262C0.018 41.3532 0 41.7401 0 47.1901C0 52.6401 0.018 53.0272 0.352 53.5542C0.582707 53.9173 0.906779 54.2117 1.2903 54.4066C1.67382 54.6016 2.10268 54.6898 2.532 54.6622C3.232 54.6622 3.323 54.6971 3.411 55.1371C3.464 55.4181 4.343 61.3611 5.362 68.3751C6.362 75.3901 7.243 81.3322 7.278 81.5962L7.383 82.0882H5.872C4.149 82.0882 3.499 82.3342 2.989 83.1962C2.689 83.6712 2.637 84.0962 2.637 86.0442C2.637 87.9922 2.69 88.4171 2.989 88.8921C3.689 90.0701 2.689 90.0001 20.658 90.0001C38.627 90.0001 37.624 90.0701 38.327 88.8921C38.627 88.4171 38.679 87.9922 38.679 86.0792C38.679 83.5472 38.521 83.0022 37.571 82.4402C36.9259 82.1122 36.1959 81.9894 35.479 82.0882H33.931L34.036 81.5962C34.071 81.3322 34.95 75.3901 35.952 68.3751C36.972 61.3601 37.852 55.4181 37.903 55.1371C37.991 54.6971 38.079 54.6622 38.782 54.6622C39.2113 54.6898 39.6402 54.6016 40.0237 54.4066C40.4072 54.2117 40.7313 53.9173 40.962 53.5542C41.296 53.0272 41.314 52.6401 41.314 47.1901C41.314 41.7401 41.296 41.3532 40.962 40.8262C40.7403 40.4709 40.4279 40.181 40.0571 39.9863C39.6863 39.7915 39.2704 39.699 38.852 39.7182H38.152V37.3802C38.152 34.7602 37.959 33.8462 37.115 32.5452L36.588 31.7012L37.01 30.8401C37.3258 30.2465 37.4822 29.5812 37.4641 28.9091C37.4459 28.237 37.2537 27.581 36.9064 27.0054C36.559 26.4297 36.0683 25.9539 35.4821 25.6246C34.8959 25.2952 34.2344 25.1235 33.562 25.1262C32.9885 25.1154 32.4201 25.2348 31.8995 25.4754C31.3788 25.716 30.9195 26.0715 30.556 26.5152C28.429 28.9942 29.993 32.5802 33.369 32.9852C34.23 33.0732 34.336 33.1432 34.863 33.8992C35.426 34.7082 35.426 34.7252 35.478 37.2042L35.531 39.7182H31.681L31.611 38.1712C31.488 35.9032 30.626 34.4972 28.833 33.6712C28.077 33.3192 27.708 33.3021 21.045 33.2491C13.309 33.1961 12.887 33.2311 11.499 34.2491C11.0145 34.6628 10.6042 35.1563 10.286 35.7082C9.86363 36.4571 9.6625 37.3105 9.706 38.1692L9.636 39.7162H5.784L5.837 37.2021C5.89 34.7231 5.89 34.7022 6.452 33.8972C6.979 33.1412 7.085 33.0711 7.946 32.9831C8.52916 32.9493 9.09772 32.7876 9.61143 32.5095C10.1251 32.2314 10.5714 31.8438 10.9186 31.374C11.2659 30.9043 11.5055 30.3639 11.6207 29.7913C11.7358 29.2186 11.7237 28.6276 11.585 28.0601C11.4131 27.506 11.1336 26.9912 10.7627 26.5451C10.3917 26.099 9.93647 25.7303 9.423 25.4602C8.88177 25.2352 8.30052 25.1222 7.71441 25.1283C7.1283 25.1343 6.5495 25.2591 6.013 25.4951ZM8.773 28.2201C9.283 28.8531 9.23 29.2752 8.615 29.9082C8.175 30.3302 7.982 30.4182 7.595 30.3302C7.27457 30.2777 6.98566 30.1064 6.78576 29.8506C6.58586 29.5947 6.48963 29.2729 6.51623 28.9493C6.54283 28.6257 6.69031 28.324 6.9293 28.1042C7.1683 27.8844 7.4813 27.7626 7.806 27.7631C7.99296 27.749 8.18039 27.7837 8.34992 27.8638C8.51944 27.9439 8.66523 28.0667 8.773 28.2201ZM34.459 28.1152C34.6024 28.2734 34.7057 28.4638 34.7603 28.6703C34.8148 28.8767 34.819 29.0933 34.7724 29.3017C34.7259 29.5101 34.63 29.7043 34.4928 29.868C34.3556 30.0316 34.1811 30.1599 33.984 30.2422C33.6815 30.35 33.3499 30.3433 33.052 30.2234C32.7541 30.1034 32.5104 29.8785 32.367 29.5912C32.2216 29.3813 32.1591 29.125 32.1916 28.8718C32.2241 28.6186 32.3493 28.3864 32.543 28.2201C32.6585 28.0823 32.8012 27.9696 32.962 27.8891C33.1229 27.8086 33.2986 27.7619 33.4782 27.7521C33.6578 27.7423 33.8376 27.7694 34.0063 27.8318C34.175 27.8943 34.3291 27.9907 34.459 28.1152ZM27.659 36.0972C28.644 36.5192 28.907 36.9761 28.978 38.4181L29.048 39.7182H26.798C24.741 39.7182 24.512 39.7532 24.143 40.1052C24.0079 40.2237 23.9007 40.3705 23.8288 40.5352C23.757 40.7 23.7224 40.8785 23.7274 41.0581C23.7325 41.2377 23.7771 41.414 23.8581 41.5745C23.9391 41.7349 24.0545 41.8754 24.196 41.9861C24.653 42.3381 24.846 42.3552 31.668 42.3552H38.683V52.0251H2.637V42.3552H10.882C15.418 42.3552 19.268 42.3021 19.426 42.2501C19.658 42.0884 19.8455 41.8706 19.971 41.6172C20.0775 41.4672 20.1391 41.2901 20.1485 41.1064C20.1579 40.9227 20.1147 40.7402 20.024 40.5802C19.9269 40.3007 19.742 40.06 19.497 39.8942C18.2501 39.7306 16.9917 39.6717 15.735 39.7182H12.272L12.342 38.4181C12.412 36.9761 12.658 36.5182 13.625 36.0972C14.4 35.7622 26.846 35.7452 27.655 36.0972H27.659ZM35.254 55.0492C35.201 55.2782 34.34 61.1852 33.32 68.2002C32.32 75.2152 31.439 81.2102 31.386 81.5092L31.281 82.0892H10.039L9.934 81.5092C9.881 81.2092 9.002 75.2152 8 68.2002C6.98 61.1852 6.119 55.2782 6.066 55.0492L5.978 54.6622H35.338L35.254 55.0492ZM36.045 86.0492V87.3682H5.274V84.7262H36.041L36.045 86.0492Z" fill="#484A53"/>
<path d="M17.7574 58.934C15.5888 59.6676 13.7688 61.1786 12.6487 63.1753C11.5287 65.172 11.188 67.5128 11.6924 69.746C11.9152 70.851 12.3971 71.8874 13.0984 72.77C13.356 72.9295 13.6568 73.0051 13.9592 72.9863C14.2616 72.9675 14.5506 72.8552 14.7864 72.665C15.2264 72.265 15.1734 71.645 14.5224 69.865C14.002 68.6017 13.9398 67.1963 14.3464 65.892C14.6015 64.9967 15.0415 64.1649 15.638 63.4502C16.2345 62.7356 16.9742 62.154 17.8094 61.743C19.4148 61.0642 21.2089 60.9771 22.8724 61.497C23.8303 61.8301 24.695 62.3865 25.3951 63.1201C26.0952 63.8538 26.6105 64.7436 26.8984 65.716C27.3373 66.9789 27.3373 68.353 26.8984 69.616C26.6078 70.5869 26.0915 71.4754 25.3918 72.2086C24.692 72.9419 23.8288 73.4992 22.8724 73.835C21.9777 74.1629 21.0145 74.2595 20.0724 74.116C18.4724 74.046 18.2264 74.063 17.8394 74.38C17.6983 74.4972 17.5851 74.6444 17.508 74.8108C17.4308 74.9773 17.3917 75.1588 17.3934 75.3422C17.3951 75.5257 17.4376 75.7064 17.5179 75.8714C17.5982 76.0364 17.7142 76.1814 17.8574 76.296C18.2574 76.665 18.4904 76.718 20.2134 76.771C21.266 76.8859 22.3309 76.7838 23.3424 76.471C24.8778 75.9802 26.2613 75.1031 27.3603 73.924C28.4593 72.7448 29.2368 71.303 29.6184 69.737C30.1247 67.4782 29.7688 65.1119 28.6208 63.1019C27.4727 61.0919 25.6152 59.5834 23.4124 58.872C21.5562 58.3832 19.6025 58.4046 17.7574 58.934Z" fill="#484A53"/>
<path d="M54.7121 25.4951C53.7776 25.9782 53.0731 26.8125 52.7534 27.8148C52.4337 28.817 52.525 29.9052 53.0071 30.8401L53.4291 31.7012L52.9021 32.5452C52.0581 33.8452 51.8651 34.7602 51.8651 37.3802V39.7182H51.1651C50.7467 39.699 50.3308 39.7915 49.96 39.9863C49.5892 40.181 49.2769 40.4709 49.0551 40.8262C48.7211 41.3532 48.7031 41.7401 48.7031 47.1901C48.7031 52.6401 48.7211 53.0272 49.0551 53.5542C49.2858 53.9173 49.6099 54.2117 49.9934 54.4066C50.377 54.6016 50.8058 54.6898 51.2351 54.6622C51.9351 54.6622 52.0261 54.6971 52.1141 55.1371C52.1671 55.4181 53.0461 61.3611 54.0651 68.3751C55.0651 75.3901 55.9461 81.3322 55.9811 81.5962L56.0861 82.0882H54.5741C52.8511 82.0882 52.2011 82.3342 51.6911 83.1962C51.3911 83.6712 51.3391 84.0962 51.3391 86.0442C51.3391 87.9922 51.3921 88.4171 51.6911 88.8921C52.3911 90.0701 51.3911 90.0001 69.3601 90.0001C87.3291 90.0001 86.3261 90.0701 87.0291 88.8921C87.3291 88.4171 87.3811 87.9922 87.3811 86.0792C87.3811 83.5472 87.2231 83.0022 86.2731 82.4402C85.628 82.1122 84.898 81.9894 84.1811 82.0882H82.6511L82.7391 81.5962C82.7741 81.3322 83.6531 75.3901 84.6551 68.3751C85.6751 61.3601 86.5551 55.4181 86.6061 55.1371C86.6941 54.6971 86.7821 54.6622 87.4851 54.6622C87.9145 54.6898 88.3433 54.6016 88.7268 54.4066C89.1104 54.2117 89.4344 53.9173 89.6651 53.5542C89.9991 53.0272 90.0171 52.6401 90.0171 47.1901C90.0171 41.7401 89.9991 41.3532 89.6651 40.8262C89.4434 40.4709 89.1311 40.181 88.7603 39.9863C88.3894 39.7915 87.9735 39.699 87.5551 39.7182H86.8551V37.3802C86.8551 34.7602 86.6621 33.8462 85.8181 32.5452L85.2911 31.7012L85.7131 30.8401C86.0291 30.2462 86.1855 29.5805 86.1672 28.9081C86.1488 28.2356 85.9563 27.5794 85.6085 27.0037C85.2606 26.4279 84.7693 25.9522 84.1826 25.6231C83.5959 25.294 82.9338 25.1228 82.2611 25.1262C81.6877 25.1154 81.1193 25.2348 80.5986 25.4754C80.0779 25.716 79.6186 26.0715 79.2551 26.5152C77.1281 28.9942 78.6921 32.5802 82.0681 32.9852C82.9291 33.0732 83.0351 33.1432 83.5621 33.8992C84.1251 34.7082 84.1251 34.7252 84.1771 37.2042L84.2301 39.7182H80.3801L80.3101 38.1712C80.1871 35.9032 79.3251 34.4972 77.5321 33.6712C76.7761 33.3192 76.4071 33.3021 69.7441 33.2491C62.0081 33.1961 61.5861 33.2311 60.1981 34.2491C59.7136 34.6628 59.3034 35.1563 58.9851 35.7082C58.5628 36.4571 58.3617 37.3105 58.4051 38.1692L58.3351 39.7162H54.4851L54.5381 37.2021C54.5911 34.7231 54.5911 34.7022 55.1531 33.8972C55.6801 33.1412 55.7861 33.0711 56.6471 32.9831C57.2303 32.9493 57.7989 32.7876 58.3126 32.5095C58.8263 32.2314 59.2725 31.8438 59.6198 31.374C59.967 30.9043 60.2067 30.3639 60.3218 29.7913C60.437 29.2186 60.4248 28.6276 60.2861 28.0601C60.1142 27.506 59.8347 26.9912 59.4638 26.5451C59.0928 26.099 58.6376 25.7303 58.1241 25.4602C57.5826 25.2349 57.001 25.1218 56.4146 25.1278C55.8281 25.1338 55.2489 25.2588 54.7121 25.4951ZM57.4721 28.2201C57.9821 28.8531 57.9291 29.2752 57.3141 29.9082C56.8741 30.3302 56.6811 30.4182 56.2941 30.3302C55.9737 30.2777 55.6848 30.1064 55.4849 29.8506C55.285 29.5947 55.1888 29.2729 55.2154 28.9493C55.242 28.6257 55.3894 28.324 55.6284 28.1042C55.8674 27.8844 56.1804 27.7626 56.5051 27.7631C56.6921 27.749 56.8795 27.7837 57.049 27.8638C57.2186 27.9439 57.3644 28.0667 57.4721 28.2201ZM83.1581 28.1152C83.3015 28.2734 83.4048 28.4638 83.4594 28.6703C83.5139 28.8767 83.5181 29.0933 83.4716 29.3017C83.425 29.5101 83.3291 29.7043 83.1919 29.868C83.0547 30.0316 82.8802 30.1599 82.6831 30.2422C82.3806 30.35 82.0491 30.3433 81.7511 30.2234C81.4532 30.1034 81.2095 29.8785 81.0661 29.5912C80.9207 29.3813 80.8582 29.125 80.8907 28.8718C80.9232 28.6186 81.0484 28.3864 81.2421 28.2201C81.3577 28.0823 81.5003 27.9696 81.6612 27.8891C81.822 27.8086 81.9977 27.7619 82.1774 27.7521C82.357 27.7423 82.5367 27.7694 82.7054 27.8318C82.8741 27.8943 83.0282 27.9907 83.1581 28.1152ZM76.3581 36.0972C77.3431 36.5192 77.6061 36.9761 77.6771 38.4181L77.7471 39.7182H60.9711L61.0411 38.4181C61.1111 36.9761 61.3571 36.5182 62.3241 36.0972C63.0991 35.7622 75.5451 35.7452 76.3541 36.0972H76.3581ZM87.3811 47.1912V52.0261H76.0551C69.8311 52.0261 64.5921 52.0792 64.4341 52.1312C64.2021 52.2929 64.0146 52.5107 63.8891 52.7642C63.7826 52.9141 63.721 53.0913 63.7116 53.2749C63.7023 53.4586 63.7454 53.6411 63.8361 53.8011C63.9332 54.0807 64.1181 54.3213 64.3631 54.4871C64.5561 54.5921 68.4951 54.6631 74.3631 54.6631H84.0331L83.9451 55.0502C83.8921 55.2792 83.0311 61.1862 82.0111 68.2012C81.0111 75.2162 80.1301 81.2112 80.0771 81.5102L79.9721 82.0901H58.7381L58.6331 81.5102C58.5801 81.2102 57.7011 75.2162 56.6991 68.2012C55.6791 61.1862 54.8181 55.2792 54.7651 55.0502C54.6771 54.6632 54.6771 54.6631 56.9271 54.6631C58.9661 54.6631 59.2481 54.6282 59.6701 54.2942C59.8216 54.1887 59.9433 54.046 60.0233 53.8797C60.1034 53.7135 60.1392 53.5293 60.1271 53.3451C60.1392 53.161 60.1034 52.9769 60.0233 52.8106C59.9433 52.6443 59.8216 52.5015 59.6701 52.3961C59.2301 52.0441 58.9841 52.0272 55.2701 52.0272H51.3321V42.3571H87.3731L87.3811 47.1912ZM84.7441 86.0452V87.3642H53.9731V84.7262H84.7401L84.7441 86.0452Z" fill="#484A53"/>
<path d="M66.4575 58.9339C64.967 59.4435 63.6294 60.3214 62.5691 61.4863C61.5088 62.6512 60.76 64.0652 60.3925 65.5969C59.8864 67.856 60.2427 70.2227 61.3914 72.2328C62.54 74.2428 64.3983 75.7511 66.6015 76.4619C68.4109 76.9366 70.3121 76.9366 72.1215 76.4619C73.6411 75.9616 75.0083 75.0825 76.0941 73.9075C77.1799 72.7325 77.9485 71.3003 78.3275 69.7459C78.8337 67.4872 78.4779 65.1209 77.3298 63.1109C76.1818 61.1009 74.3242 59.5923 72.1215 58.8809C70.2633 58.3875 68.3062 58.4059 66.4575 58.9339ZM71.6265 61.5179C72.5702 61.8601 73.4209 62.418 74.1107 63.1472C74.8005 63.8764 75.3103 64.7567 75.5995 65.7179C76.0384 66.9809 76.0384 68.355 75.5995 69.6179C75.2072 70.959 74.3825 72.1327 73.2537 72.9563C72.1248 73.7798 70.7553 74.2068 69.3585 74.1709C67.9617 74.2068 66.5922 73.7798 65.4634 72.9563C64.3346 72.1327 63.5098 70.959 63.1175 69.6179C62.6998 68.4144 62.6753 67.1093 63.0475 65.8909C63.3579 64.8201 63.9279 63.8426 64.7071 63.0451C65.4862 62.2477 66.4502 61.6551 67.5135 61.3199C68.8811 61.0625 70.29 61.1304 71.6265 61.5179Z" fill="#484A53"/>
</g>
<defs>
<clipPath id="clip0_878_21">
<rect width="90.015" height="90" fill="white"/>
</clipPath>
</defs>
</svg>
